<?xml version="1.0" encoding="UTF-8" standalone="no"?>
<!-- Created with Inkscape (http://www.inkscape.org/) -->

<svg
   width="96.970673mm"
   height="94.649017mm"
   viewBox="0 0 96.970673 94.649017"
   version="1.1"
   id="svg1"
   inkscape:version="1.4 (86a8ad7, 2024-10-11)"
   sodipodi:docname="LuisLogo.svg"
   xml:space="preserve"
   inkscape:export-filename="LuisLogo.png"
   inkscape:export-xdpi="96"
   inkscape:export-ydpi="96"
   xmlns:inkscape="http://www.inkscape.org/namespaces/inkscape"
   xmlns:sodipodi="http://sodipodi.sourceforge.net/DTD/sodipodi-0.dtd"
   xmlns="http://www.w3.org/2000/svg"
   xmlns:svg="http://www.w3.org/2000/svg"><sodipodi:namedview
     id="namedview1"
     pagecolor="#ffffff"
     bordercolor="#000000"
     borderopacity="0.25"
     inkscape:showpageshadow="2"
     inkscape:pageopacity="0.0"
     inkscape:pagecheckerboard="0"
     inkscape:deskcolor="#d1d1d1"
     inkscape:document-units="mm"
     inkscape:zoom="2.1442755"
     inkscape:cx="142.70554"
     inkscape:cy="208.22884"
     inkscape:window-width="2400"
     inkscape:window-height="1261"
     inkscape:window-x="2391"
     inkscape:window-y="-9"
     inkscape:window-maximized="1"
     inkscape:current-layer="layer1" /><defs
     id="defs1"><rect
       x="216.32578"
       y="393.07974"
       width="470.90427"
       height="203.13518"
       id="rect1" /></defs><g
     inkscape:label="Layer 1"
     inkscape:groupmode="layer"
     id="layer1"
     transform="translate(-43.252524,-75.354385)"><path
       style="fill:#0038a8;stroke-width:0.679037;fill-opacity:0.87843138"
       d="m 104.63371,149.33525 c -1.13017,-0.28904 -1.10677,-0.19133 -1.10642,-4.61946 1.9e-4,-2.24627 0.0847,-7.51689 0.18771,-11.7125 0.10307,-4.19562 0.27818,-11.77012 0.38914,-16.83223 0.11096,-5.0621 0.25146,-9.97041 0.31221,-10.90735 l 0.11045,-1.70353 -0.74157,-0.26398 c -0.40786,-0.1452 -0.9899,-0.44204 -1.29341,-0.65962 -0.77134,-0.55298 -1.41186,-0.51646 -1.78716,0.10194 -0.29037,0.47841 -0.35216,0.4974 -1.610786,0.49496 -1.42478,-0.002 -1.55987,-0.046 -2.05002,-0.65624 -0.26318,-0.32765 -0.32934,-0.79986 -0.32934,-2.35043 0,-1.845573 0.0246,-1.965327 0.50391,-2.450626 0.47284,-0.478779 0.58651,-0.510229 1.84409,-0.510229 1.292236,0 1.350996,0.01786 1.642146,0.497506 0.40174,0.661902 1.1481,0.664357 2.0511,0.0067 l 0.67388,-0.490765 3.29055,-0.0067 c 3.21582,-0.0067 3.30502,0.0022 3.9285,0.407854 0.35089,0.228023 0.89736,0.414588 1.21439,0.414588 0.31702,0 1.14619,0.149937 1.8426,0.333202 3.30342,0.869315 5.84998,3.33578 6.85462,6.63902 0.50208,1.65081 -0.0307,2.02949 -1.06072,0.75394 -1.99235,-2.4672 -6.58913,-3.83485 -9.20881,-2.73982 l -0.92455,0.38646 -0.002,1.41801 c -0.001,0.77989 0.18193,10.96063 0.40694,22.62388 0.342,17.72603 0.3663,21.23973 0.14816,21.41233 -0.14354,0.11357 -0.55871,0.29091 -0.92261,0.3941 -0.75848,0.21509 -3.54867,0.22727 -4.36284,0.0191 z"
       id="path3" /><path
       style="fill:#000100;stroke-width:0.711612;fill-opacity:1"
       d="m 87.065821,149.91124 c -1.64738,-0.41838 -1.605748,-0.15675 -1.605748,-10.09144 0,-9.10225 0.01199,-9.21954 0.973694,-9.9117 0.756073,-0.54388 0.823936,-1.29052 0.175186,-1.92732 -0.502121,-0.49287 -0.540407,-0.64068 -0.48449,-1.87061 l 0.06069,-1.33545 1.243034,-0.0856 1.243022,-0.0856 0.05337,-10.35205 c 0.05062,-9.80096 0.03238,-10.40353 -0.341988,-11.31916 -0.344471,-0.84249 -0.372538,-1.19526 -0.217838,-2.73806 0.09763,-0.974037 0.181639,-2.024599 0.186605,-2.334586 l 0.0096,-0.563613 1.501987,0.05028 1.501987,0.05028 0.176685,2.310022 c 0.147875,1.933597 0.122556,2.451897 -0.155384,3.180637 -0.289514,0.75906 -0.332057,2.21134 -0.332057,11.33621 v 10.46561 h 1.243034 1.243022 v 1.45446 c 0,1.22631 -0.06501,1.50815 -0.414349,1.79668 -0.628335,0.51898 -0.551453,1.45055 0.166742,2.02022 1.082097,0.85832 1.076544,0.80688 1.072886,9.92294 -0.0036,8.50181 -0.0036,8.50506 -0.469546,9.18459 -0.351403,0.51246 -0.669235,0.73032 -1.291406,0.88518 -1.145474,0.28514 -4.345755,0.26088 -5.538245,-0.042 z"
       id="path4" /><path
       style="fill:#d52b1e;stroke-width:0.674264;fill-opacity:0.87843138"
       d="m 73.037226,149.99488 c -1.065995,-0.36419 -2.387715,-1.48917 -2.986753,-2.54213 -0.44906,-0.78934 -0.500134,-1.05733 -0.495149,-2.59801 0.0063,-1.88902 0.253477,-2.5532 1.471545,-3.95114 1.314746,-1.50889 1.220344,-0.0995 1.16579,-17.40464 l -0.04915,-15.6076 -0.833694,-0.97357 c -1.951462,-2.27894 -2.596512,-3.89073 -2.315446,-5.78564 0.161455,-1.08855 1.236539,-3.125264 1.908637,-3.615856 l 0.499441,-0.364559 0.05307,2.635612 0.05307,2.635613 1.765074,0.90602 1.765066,0.90601 1.79449,-0.90933 1.794482,-0.90933 0.09263,-2.636586 0.09264,-2.636589 0.536957,0.492545 c 0.295336,0.270899 0.795547,0.995027 1.111587,1.609171 0.517828,1.006249 0.574629,1.277949 0.574629,2.748619 0,1.45262 -0.05748,1.73583 -0.522743,2.57682 -0.287514,0.51966 -0.865392,1.32323 -1.284189,1.78572 -1.564057,1.72722 -1.435197,0.18228 -1.435197,17.20761 0,10.92105 0.05916,15.3041 0.2122,15.72528 0.116704,0.32117 0.616809,1.09575 1.111342,1.72129 1.104205,1.39671 1.470731,2.30864 1.510699,3.75863 0.05979,2.16973 -0.935174,3.88874 -2.817842,4.86832 -0.847263,0.44083 -1.234648,0.5294 -2.501065,0.57184 -1.010287,0.0339 -1.750573,-0.0358 -2.27214,-0.21412 z m 5.086768,-3.1329 c 0.531789,-0.83294 0.966887,-1.65031 0.966887,-1.8164 0,-0.1661 -0.435518,-0.99435 -0.967826,-1.84058 l -0.967825,-1.53859 -2.12541,0.048 -2.125409,0.048 -0.973638,1.54609 c -0.535494,0.85037 -0.977658,1.60992 -0.98258,1.68793 -0.0049,0.078 0.334673,0.69643 0.754661,1.3743 1.383926,2.23372 1.000673,2.00553 3.368551,2.00553 h 2.0857 z"
       id="path5" /><rect
       style="fill:#ffffff;fill-opacity:1;stroke:none;stroke-width:1.55404;stroke-miterlimit:3.4;stroke-opacity:1"
       id="rect6"
       width="50.436089"
       height="26.991886"
       x="64.873634"
       y="109.15427" /><g
       id="g7"
       transform="matrix(0.0359182,0,0,0.0359182,-44.590231,125.23055)"
       style="opacity:0.875445"><g
         id="g9"
         transform="translate(-2373.8069,188.94266)"><g
           id="g8"><path
             d="m 2565.1706,160.32316 h 1200 v 660 h -1200 z"
             fill="#0038a8"
             id="path1-7" /><path
             d="m 2565.1706,160.32316 h 1200 v 440 h -1200 z"
             fill="#ffffff"
             id="path2-1" /></g><path
           d="m 2565.1706,160.32316 h 1200 v 220 h -1200 z"
           fill="#d52b1e"
           id="path3-1" /></g></g><path
       d="m 218.91293,404.12113 h 6.94009 v 37.85502 h 11.4196 v 6.30917 h -18.35969 z m 31.79821,44.7951 q -5.04734,0 -7.69719,-2.83912 -2.64985,-2.90222 -2.64985,-8.26502 v -33.69096 h 6.94009 v 34.1957 q 0,2.2713 0.88328,3.28077 0.94638,1.00946 2.64985,1.00946 1.70348,0 2.58676,-1.00946 0.94638,-1.00947 0.94638,-3.28077 v -34.1957 h 6.68772 v 33.69096 q 0,5.3628 -2.64985,8.26502 -2.64985,2.83912 -7.69719,2.83912 z m 15.26822,-44.7951 h 6.94009 v 44.16419 h -6.94009 z m 21.13569,44.7951 q -5.04734,0 -7.6341,-2.83912 -2.58676,-2.90222 -2.58676,-8.26502 v -2.52366 h 6.56154 v 3.0284 q 0,4.29023 3.59622,4.29023 1.76657,0 2.64986,-1.00946 0.94637,-1.07256 0.94637,-3.40696 0,-2.77603 -1.26183,-4.85806 -1.26184,-2.14511 -4.66879,-5.11042 -4.29024,-3.78551 -5.99371,-6.81391 -1.70348,-3.09149 -1.70348,-6.94009 0,-5.23661 2.64985,-8.07573 2.64986,-2.90222 7.69719,-2.90222 4.98425,0 7.50791,2.90222 2.58676,2.83912 2.58676,8.20192 v 1.82966 h -6.56153 v -2.2713 q 0,-2.2713 -0.88329,-3.28077 -0.88328,-1.07256 -2.58676,-1.07256 -3.47004,0 -3.47004,4.22714 0,2.39749 1.26183,4.47951 1.32493,2.08203 4.73188,5.04734 4.35333,3.7855 5.99371,6.877 1.64039,3.09149 1.64039,7.25554 0,5.42589 -2.71295,8.32811 -2.64985,2.90221 -7.76027,2.90221 z"
       id="text1"
       style="font-size:63.0917px;font-family:'Bebas Neue';-inkscape-font-specification:'Bebas Neue, Normal';font-variant-position:sub;white-space:pre;fill:#000100;stroke-width:5.29134;stroke-miterlimit:3.4"
       transform="matrix(0.3322268,0,0,0.24013667,5.7582378,20.006196)"
       aria-label="Luis" /><path
       style="fill:#000100;stroke-width:0.65709;stroke:#000100;stroke-opacity:1;fill-opacity:1"
       d="m 95.495781,169.83335 c -0.05855,-0.0947 0.153641,-0.62282 0.471542,-1.17352 1.441451,-2.49707 1.678674,-4.14933 0.740987,-5.16111 -0.472251,-0.50957 -1.114734,-0.70548 -1.772317,-0.54044 -0.259531,0.0651 -1.217911,0.84052 -2.129729,1.72307 -1.925997,1.86418 -2.493172,2.30117 -3.924091,3.02341 -2.244332,1.1328 -3.318714,1.3452 -6.774228,1.33923 -2.875178,-0.005 -3.228252,-0.0403 -4.346377,-0.43464 -0.669345,-0.23607 -1.216984,-0.52344 -1.216984,-0.6386 0,-0.11515 0.522131,-0.64005 1.16029,-1.16643 1.500729,-1.23787 2.261968,-2.33863 2.365992,-3.42125 0.06869,-0.71492 0.01866,-0.8881 -0.368115,-1.27491 -0.674536,-0.67453 -1.487843,-0.59844 -3.439139,0.32175 -2.42513,1.14364 -3.504743,1.3886 -6.064747,1.37608 -1.657182,-0.008 -2.503429,-0.0999 -3.564032,-0.38656 -2.470174,-0.66769 -6.171972,-2.74037 -6.171768,-3.45565 5.9e-5,-0.22291 0.374936,-0.43176 1.423921,-0.79333 1.666875,-0.57454 3.177854,-1.52134 3.537374,-2.21658 0.433352,-0.838 0.329512,-1.63174 -0.28063,-2.14514 -0.512202,-0.43099 -0.625944,-0.45009 -2.679463,-0.45009 -4.895508,0 -7.74933,-1.16333 -11.017987,-4.49134 -1.961363,-1.99697 -2.694216,-2.96554 -2.602841,-3.44002 0.05263,-0.27341 0.308675,-0.30708 2.405595,-0.31637 2.751875,-0.0122 3.508843,-0.26763 4.056068,-1.36873 0.308853,-0.62145 0.308853,-0.66081 0,-1.29082 -0.243406,-0.49651 -0.503147,-0.71848 -1.100909,-0.9408 -0.430295,-0.16004 -1.369113,-0.50778 -2.086262,-0.77275 -3.377044,-1.24775 -5.833793,-3.5225 -7.478228,-6.92423 -0.610456,-1.26281 -1.384016,-3.86689 -1.38717,-4.66973 -0.0026,-0.57881 0.54095,-0.52052 2.113446,0.22677 1.269998,0.60354 1.807629,0.76106 2.819062,0.82597 1.163024,0.0746 1.288601,0.0476 1.808983,-0.39034 0.46273,-0.38936 0.559211,-0.59386 0.559211,-1.18531 0,-0.67534 -0.09044,-0.80158 -1.639178,-2.28813 -1.927384,-1.84998 -2.665645,-2.80425 -3.586669,-4.63608 -1.050536,-2.08941 -1.402343,-3.54109 -1.490794,-6.15159 -0.08427,-2.48695 0.169201,-4.12892 0.651716,-4.22184 0.153779,-0.0296 0.846313,0.52026 1.582793,1.25674 2.098425,2.09841 3.823057,2.69472 4.843216,1.67456 0.769459,-0.76946 0.68957,-1.42198 -0.433391,-3.54003 -1.281503,-2.41707 -1.678682,-3.77652 -1.792831,-6.13644 -0.143351,-2.96374 0.382623,-5.29203 1.734718,-7.67896 0.921524,-1.62681 1.172243,-1.63912 1.87372,-0.092 1.167282,2.57438 2.385876,3.87339 3.633611,3.87339 0.771812,0 1.285217,-0.33801 1.574606,-1.03664 0.181659,-0.43856 0.166907,-0.84703 -0.08631,-2.39084 -0.557797,-3.4007 -0.155139,-5.89659 1.452479,-9.00316 0.639835,-1.23643 1.143823,-1.90209 2.402263,-3.17286 1.649521,-1.66568 2.245633,-1.96987 2.384943,-1.21699 0.03982,0.21515 0.159679,0.96582 0.266378,1.66816 0.497305,3.27354 2.306394,4.94652 3.836093,3.5475 0.449325,-0.41095 0.569448,-0.72308 0.855138,-2.22203 0.182809,-0.95916 0.524726,-2.21729 0.759813,-2.79585 1.433246,-3.52723 4.748109,-6.58851 8.445097,-7.79906 1.213515,-0.39735 1.342107,-0.2566 0.993738,1.08779 -0.6459,2.49262 -0.505631,4.17535 0.425676,5.10666 0.52535,0.52535 1.439738,0.66586 2.085184,0.32043 0.178473,-0.0955 0.725231,-0.8371 1.215013,-1.64796 1.580303,-2.61628 3.474274,-4.33705 6.115028,-5.55583 2.018477,-0.931579 3.260923,-1.198298 5.656221,-1.214259 2.456401,-0.01636 2.790966,0.121595 2.178091,0.898144 -2.233996,2.830585 -2.81813,4.929845 -1.686607,6.061365 0.292898,0.2929 0.611002,0.41521 1.079856,0.41521 0.706504,0 0.970273,-0.14587 2.480555,-1.37183 1.307853,-1.06164 3.765779,-2.19078 5.550609,-2.54987 2.00598,-0.40359 5.33301,-0.27578 7.05389,0.27097 1.5876,0.50441 2.5209,0.98757 2.5209,1.30505 0,0.14028 -0.33249,0.46305 -0.73888,0.71725 -2.65672,1.66183 -4.012,3.64518 -3.35673,4.91232 0.45753,0.88476 1.29733,1.01885 3.00416,0.47966 2.8754,-0.90833 5.17753,-1.01467 7.8264,-0.36151 2.33063,0.57469 4.97409,2.07048 6.55777,3.71067 0.59722,0.61853 0.65469,0.74435 0.43464,0.95162 -0.13947,0.13137 -0.8217,0.36366 -1.51608,0.51622 -2.96744,0.65194 -4.6439,2.13158 -4.04723,3.57208 0.29581,0.71413 1.0661,1.02226 3.09607,1.23848 0.98176,0.10457 2.1944,0.31092 2.69476,0.45857 3.49037,1.02993 7.04329,4.02476 8.67362,7.31118 0.66004,1.3305 0.58221,1.69276 -0.33333,1.55145 -0.35761,-0.0552 -1.41127,-0.15318 -2.34148,-0.21774 -2.04643,-0.14204 -3.08688,0.15624 -3.62536,1.03935 -0.79477,1.30337 -0.29524,1.97824 2.50644,3.38625 1.64879,0.82862 2.49352,1.37988 3.39876,2.21799 1.21769,1.12739 1.36675,1.36413 3.43715,5.45903 0.97133,1.92113 1.42129,5.22297 0.72962,5.35393 -0.15756,0.0298 -0.69534,-0.19734 -1.19505,-0.50482 -2.89702,-1.78255 -5.33024,-1.81525 -5.65652,-0.076 -0.16667,0.88841 0.0217,1.24379 1.48078,2.79274 0.73859,0.78413 1.63425,1.90529 1.99033,2.49146 1.41813,2.3345 2.15439,5.41271 1.95695,8.18181 -0.12555,1.76083 -0.70307,4.15921 -1.09153,4.53296 -0.24671,0.23737 -0.33766,0.18655 -0.90949,-0.5082 -1.95879,-2.37981 -3.15396,-3.31365 -4.24095,-3.31365 -0.59453,0 -1.46901,0.74856 -1.60667,1.3753 -0.0776,0.35324 0.0752,0.96682 0.52894,2.12503 0.35091,0.89562 0.75245,2.25428 0.89231,3.01924 0.65876,3.60308 -0.48585,8.13608 -2.81028,11.12947 -1.27421,1.64093 -1.40711,1.62181 -1.90996,-0.27476 -0.86699,-3.26987 -2.85272,-4.90702 -4.25318,-3.50656 -0.44903,0.44903 -0.4891,0.61097 -0.60519,2.44554 -0.0684,1.08057 -0.27705,2.56578 -0.46372,3.30048 -0.97491,3.837 -3.83316,7.49024 -7.16674,9.16009 -1.48624,0.74449 -1.75148,0.67442 -1.56508,-0.41343 0.25958,-1.51495 0.16014,-3.87245 -0.19375,-4.59336 -0.52013,-1.05955 -1.81346,-1.49672 -2.66448,-0.90064 -0.20825,0.14587 -0.89327,1.26508 -1.52225,2.48712 -1.2944,2.51489 -2.38987,3.96706 -3.9615,5.25138 -1.35016,1.10334 -3.78263,2.30997 -5.586813,2.77134 -1.444357,0.36936 -3.658152,0.4728 -3.839477,0.17941 z m 3.63779,-1.22637 c 2.555909,-0.66945 4.582939,-1.86891 6.382939,-3.77701 0.88307,-0.93611 1.40484,-1.72632 2.29253,-3.47207 1.24169,-2.44192 1.94164,-3.25097 2.98129,-3.446 2.27086,-0.42602 3.82771,1.49149 3.70984,4.56921 -0.0381,0.99469 0.006,1.44025 0.14303,1.43997 0.33453,-6.6e-4 2.1866,-1.45875 3.11332,-2.45099 1.13534,-1.21562 1.90546,-2.35043 2.50326,-3.68868 0.66747,-1.49422 0.88065,-2.45668 1.13777,-5.13678 0.24228,-2.52549 0.3918,-2.89301 1.47766,-3.63204 1.71208,-1.16523 3.93822,0.19116 4.9738,3.03055 l 0.48154,1.3203 0.38207,-0.47917 c 0.63225,-0.79291 1.59565,-2.87145 2.01612,-4.34978 0.32009,-1.12539 0.39372,-1.80562 0.38577,-3.56403 -0.0102,-2.27098 -0.0392,-2.40225 -1.26712,-5.73722 -0.72387,-1.96605 0.19598,-3.66991 2.12389,-3.93416 1.15374,-0.15814 2.41295,0.47925 3.82987,1.93862 l 1.13359,1.16754 0.22025,-0.75952 c 0.33721,-1.16282 0.29619,-4.87137 -0.069,-6.23596 -0.53269,-1.99062 -1.53891,-3.76152 -3.24261,-5.70683 -1.67704,-1.91487 -2.05465,-2.68013 -1.85296,-3.75523 0.15217,-0.81113 0.99074,-1.76099 1.78651,-2.02362 1.00204,-0.33071 2.50157,-0.10295 3.99654,0.60701 l 1.32118,0.62742 -0.0985,-0.82892 c -0.14563,-1.22569 -0.58453,-2.40676 -1.44435,-3.88666 -0.42155,-0.72556 -0.76646,-1.39634 -0.76646,-1.49063 0,-0.3728 -1.26743,-1.92917 -2.21497,-2.71994 -0.55074,-0.45962 -1.88445,-1.27413 -2.9638,-1.81002 -1.18447,-0.58809 -2.16322,-1.20301 -2.46886,-1.55112 -1.21167,-1.38001 -0.7051,-3.309 1.12806,-4.29554 0.59909,-0.32242 0.97839,-0.37426 2.73822,-0.37426 1.12354,0 2.0428,-0.0434 2.0428,-0.0964 0,-0.27682 -1.19166,-1.91098 -2.0558,-2.81918 -2.40154,-2.52401 -5.30937,-3.92829 -8.72323,-4.21269 -0.71715,-0.0597 -1.63419,-0.22668 -2.03785,-0.37097 -1.35989,-0.48609 -2.0436,-1.82458 -1.63265,-3.19621 0.37301,-1.24501 2.426,-2.67725 4.40489,-3.07303 0.26543,-0.0531 0.4826,-0.15928 0.4826,-0.23598 0,-0.30209 -1.38155,-1.26505 -2.86861,-1.99948 -2.23924,-1.10591 -3.41255,-1.37692 -5.91108,-1.36535 -1.7788,0.008 -2.29123,0.0779 -3.4771,0.47258 -3.0435,1.01295 -5.02533,0.24556 -5.01965,-1.94367 0.003,-1.35395 0.93756,-2.80762 2.6983,-4.19941 l 0.8326,-0.65813 -0.65554,-0.2623 c -1.64244,-0.65717 -4.8918,-0.83987 -6.98311,-0.39263 -2.24805,0.48076 -3.4301,1.08576 -6.383079,3.267 -1.011576,0.7472 -2.315842,0.86354 -3.162963,0.28213 -1.04476,-0.71706 -1.319924,-1.24856 -1.319726,-2.54914 1.44e-4,-0.98954 0.0955,-1.35312 0.646399,-2.46468 0.355427,-0.71716 0.775623,-1.47995 0.933772,-1.69509 0.286747,-0.3901 0.285413,-0.39118 -0.484079,-0.39118 -1.751652,0 -4.429906,0.71565 -6.051139,1.61691 -2.180049,1.21191 -3.730467,2.75729 -4.996312,4.98005 -0.875573,1.53746 -1.623447,2.09581 -2.807222,2.09581 -0.900384,0 -1.386066,-0.19504 -1.988828,-0.79863 -0.94924,-0.95056 -1.35496,-2.77655 -1.020054,-4.59089 0.09707,-0.52591 0.139336,-0.99376 0.09392,-1.03967 -0.1624,-0.16415 -2.59993,1.22057 -3.582543,2.0352 -2.330588,1.93212 -3.712429,4.30199 -4.368514,7.49206 -0.438989,2.13448 -0.751061,2.72825 -1.68386,3.2039 -1.289126,0.65734 -2.816796,0.18718 -3.78856,-1.16598 -0.557154,-0.77581 -1.240882,-2.59125 -1.240882,-3.29477 0,-0.77202 -0.3623,-0.68768 -1.277752,0.29744 -1.555471,1.67385 -2.671907,3.85244 -3.16395,6.17406 -0.321284,1.51597 -0.315055,2.81299 0.02379,4.94417 0.317105,1.99455 0.23836,2.68672 -0.390706,3.43433 -1.71379,2.03671 -4.557553,0.95651 -6.220938,-2.36303 l -0.511348,-1.02046 -0.485327,1.04317 c -0.763355,1.64076 -1.186738,3.5676 -1.186738,5.4009 0,2.62987 0.426235,4.16158 1.938897,6.96755 0.820154,1.52139 0.878398,1.70882 0.805211,2.59131 -0.06538,0.78866 -0.179339,1.05494 -0.666506,1.55757 -1.377354,1.42106 -3.350143,1.12871 -5.732293,-0.84949 -0.518891,-0.4309 -1.004145,-0.74594 -1.078344,-0.70008 -0.201142,0.12431 -0.162939,3.14978 0.05474,4.33384 0.264761,1.44025 1.08387,3.48838 1.917514,4.7946 0.387854,0.60772 1.571531,1.97945 2.630392,3.04827 1.919296,1.93738 1.92544,1.94627 2.004658,2.90159 0.225474,2.71886 -2.621304,3.68321 -6.290793,2.13102 -0.37326,-0.15789 -0.709671,-0.25605 -0.747591,-0.21814 -0.15713,0.15713 0.919532,2.99621 1.497535,3.94889 1.920386,3.16523 4.066444,4.81383 7.898838,6.06789 2.072174,0.67807 3.012681,1.95596 2.53723,3.44741 -0.481943,1.51181 -1.801736,2.23949 -4.378969,2.41436 -0.836673,0.0568 -1.52123,0.16988 -1.52123,0.25135 0,0.0815 0.06865,0.14812 0.152563,0.14812 0.08391,0 0.518458,0.44985 0.96566,0.99966 1.618513,1.98989 3.756816,3.42739 6.270621,4.21552 0.957058,0.30006 1.848251,0.40585 4.172524,0.49534 2.717443,0.10461 3.001267,0.14638 3.523194,0.51858 0.735107,0.52422 1.084672,1.21965 1.081111,2.15077 -0.0059,1.49762 -1.443503,3.05228 -3.535068,3.82245 l -1.017025,0.37449 0.408533,0.31321 c 0.738819,0.56642 2.860755,1.52198 4.254792,1.91603 1.071425,0.30286 1.823347,0.38696 3.455658,0.38653 2.391356,-6.3e-4 3.623328,-0.29934 6.025322,-1.46092 2.050681,-0.99168 3.210432,-0.92546 4.304645,0.24582 0.303826,0.32522 0.441638,0.708 0.497517,1.38186 0.104884,1.26474 -0.36324,2.27196 -1.705682,3.66998 l -1.060295,1.10419 0.889215,0.1907 c 1.497574,0.32117 4.969949,0.24003 6.50256,-0.15194 2.583193,-0.66067 4.92047,-2.10817 6.675802,-4.13436 1.54842,-1.78737 3.290873,-2.21763 4.682433,-1.15624 1.377713,1.05083 1.545744,2.98776 0.470179,5.4198 -0.231591,0.52367 -0.421068,0.9815 -0.421068,1.01742 0,0.14823 0.70804,0.0448 1.987151,-0.2902 z"
       id="path1"
       sodipodi:nodetypes="ssssssssssscsccssssssssssssscsccsssssssssscssssssssssssssssssssssssssssssssscssssssssssssssssscssssssssssssssscsssssssssscsscssscsssssscsssssssssscssssscscscsssssssssssssscssssssssscssscsssssssscsssssssssscscssssssscsssssscc" /><path
       style="fill:#000100;fill-opacity:1;stroke:#000100;stroke-width:1.4;stroke-miterlimit:3.4;stroke-opacity:1"
       d="M 68.05222,109.09281 H 112.783"
       id="path2"
       sodipodi:nodetypes="cc" /><path
       style="fill:#000100;fill-opacity:1;stroke:#000100;stroke-width:1.4;stroke-miterlimit:3.4;stroke-opacity:1"
       d="M 68.344179,135.42655 H 111.59443"
       id="path2-4"
       sodipodi:nodetypes="cc" /></g></svg>
