<?xml version="1.0" encoding="UTF-8" standalone="no"?>
<!-- Created with Inkscape (http://www.inkscape.org/) -->

<svg
   width="433.63348mm"
   height="375.16827mm"
   viewBox="0 0 433.63347 375.16826"
   version="1.1"
   id="svg1"
   xml:space="preserve"
   xmlns="http://www.w3.org/2000/svg"
   xmlns:svg="http://www.w3.org/2000/svg"><defs
     id="defs1"><marker
       style="overflow:visible"
       id="DartArrow"
       refX="0"
       refY="0"
       orient="auto-start-reverse"
       markerWidth="1"
       markerHeight="1"
       viewBox="0 0 1 1"
       preserveAspectRatio="xMidYMid"><path
         style="fill:context-stroke;fill-rule:evenodd;stroke:none"
         d="M 0,0 5,-5 -12.5,0 5,5 Z"
         transform="scale(-0.5)"
         id="path23" /></marker><marker
       style="overflow:visible"
       id="DartArrow-1"
       refX="0"
       refY="0"
       orient="auto-start-reverse"
       markerWidth="1"
       markerHeight="1"
       viewBox="0 0 1 1"
       preserveAspectRatio="xMidYMid"><path
         style="fill:context-stroke;fill-rule:evenodd;stroke:none"
         d="M 0,0 5,-5 -12.5,0 5,5 Z"
         transform="scale(-0.5)"
         id="path23-2" /></marker><marker
       style="overflow:visible"
       id="DartArrow-1-1"
       refX="0"
       refY="0"
       orient="auto-start-reverse"
       markerWidth="1"
       markerHeight="1"
       viewBox="0 0 1 1"
       preserveAspectRatio="xMidYMid"><path
         style="fill:context-stroke;fill-rule:evenodd;stroke:none"
         d="M 0,0 5,-5 -12.5,0 5,5 Z"
         transform="scale(-0.5)"
         id="path23-2-3" /></marker><marker
       style="overflow:visible"
       id="DartArrow-1-1-2"
       refX="0"
       refY="0"
       orient="auto-start-reverse"
       markerWidth="1"
       markerHeight="1"
       viewBox="0 0 1 1"
       preserveAspectRatio="xMidYMid"><path
         style="fill:context-stroke;fill-rule:evenodd;stroke:none"
         d="M 0,0 5,-5 -12.5,0 5,5 Z"
         transform="scale(-0.5)"
         id="path23-2-3-9" /></marker></defs><g
     id="layer1"
     transform="translate(95.163582,25.903975)"><g
       id="g2"
       transform="translate(-20.396903,-21.249739)"><rect
         style="opacity:0.807829;fill:#0038a8;fill-opacity:1;stroke:none;stroke-width:1.791;stroke-miterlimit:3.4;stroke-opacity:1"
         id="rect143"
         width="99.116333"
         height="87.25029"
         x="228.16635"
         y="165.65833" /><rect
         style="opacity:0.807829;fill:#0038a8;fill-opacity:1;stroke:none;stroke-width:1.791;stroke-miterlimit:3.4;stroke-opacity:1"
         id="rect142"
         width="92.136307"
         height="149.3725"
         x="99.035904"
         y="12.795823" /><rect
         style="opacity:0.807829;fill:#0038a8;fill-opacity:1;stroke:none;stroke-width:1.791;stroke-miterlimit:3.4;stroke-opacity:1"
         id="rect144"
         width="76.08226"
         height="80.968269"
         x="-22.416504"
         y="183.1084" /><path
         style="opacity:1;fill:none;fill-opacity:1;stroke-width:1.22572;stroke-miterlimit:3.4;stroke-dasharray:none"
         id="path5"
         d="m -24.297151,44.254967 a 8.0817719,9.8468122 0 0 1 7.555136,-10.447875 8.0817719,9.8468122 0 0 1 8.5761211,9.20374 8.0817719,9.8468122 0 0 1 -7.5528041,10.450377 8.0817719,9.8468122 0 0 1 -8.578175,-9.200898 l 8.06542,-0.626076 z" /><path
         style="opacity:1;fill:none;fill-opacity:1;stroke-width:1.22572;stroke-miterlimit:3.4;stroke-dasharray:none"
         id="path6"
         d="M -23.317034,103.80724 A 22.819118,21.134621 0 0 1 -1.9848875,81.382533 22.819118,21.134621 0 0 1 22.23004,101.1369 22.819118,21.134621 0 0 1 0.90447763,123.56698 22.819118,21.134621 0 0 1 -23.316248,103.81871 l 22.77294701,-1.34377 z" /><path
         style="fill:none;fill-opacity:1;stroke:#000000;stroke-width:2.3635;stroke-miterlimit:3.4;stroke-opacity:1;marker-start:url(#DartArrow)"
         d="m 58.99935,127.6041 c -37.938505,5.83204 -44.783149,44.08319 -45.409618,46.05441"
         id="path22" /><path
         style="fill:none;fill-opacity:1;stroke:#000000;stroke-width:2.3635;stroke-miterlimit:3.4;stroke-opacity:1;marker-start:url(#DartArrow-1)"
         d="M 266.38773,125.0144 C 256.92333,87.416906 218.56627,84.156688 216.56276,83.713412"
         id="path22-3" /><path
         style="fill:none;fill-opacity:1;stroke:#000000;stroke-width:2.3635;stroke-miterlimit:3.4;stroke-opacity:1;marker-start:url(#DartArrow-1-1)"
         d="m 188.71396,362.95828 c 33.31487,-19.83091 25.45867,-57.51609 25.30988,-59.56265"
         id="path22-3-7" /><path
         style="fill:none;fill-opacity:1;stroke:#000000;stroke-width:2.3635;stroke-miterlimit:3.4;stroke-opacity:1;marker-start:url(#DartArrow-1-1-2)"
         d="M 23.084291,275.67656 C 37.24804,311.76719 8.7002747,307.33649 10.743865,307.52167"
         id="path22-3-7-3" /><path
         d="m -39.569417,317.35945 h 2.054612 l 0.916068,7.33337 h 0.02617 l 0.91607,-7.33337 h 2.054612 v 10.24624 h -1.361018 v -7.75787 h -0.02617 l -1.046937,7.75787 h -1.203977 l -1.046935,-7.75787 h -0.02617 v 7.75787 h -1.256324 z m 8.153016,0 h 1.949918 l 1.491884,10.24624 h -1.439537 l -0.261734,-2.03462 v 0.0292 h -1.635838 l -0.261734,2.00534 h -1.334844 z m 1.570404,6.85034 -0.641248,-5.06456 h -0.02617 l -0.628162,5.06456 z m 2.56498,-6.85034 h 1.805966 l 1.400276,6.1331 h 0.02617 v -6.1331 h 1.282497 v 10.24624 h -1.478797 l -1.727445,-7.47976 h -0.02617 v 7.47976 h -1.282498 z m 7.681892,0 h 1.805965 l 1.400277,6.1331 h 0.02617 v -6.1331 h 1.282497 v 10.24624 h -1.478797 l -1.727445,-7.47976 h -0.02617 v 7.47976 h -1.282497 z m 5.588024,0 h 3.92601 v 1.46375 h -2.486473 v 2.70792 h 1.976091 v 1.46376 h -1.976091 v 3.14705 h 2.486473 v 1.46376 h -3.92601 z m 4.7504809,0 h 1.4395373 v 4.17167 h 1.5442306 v -4.17167 h 1.4395373 v 10.24624 h -1.4395373 v -4.61081 h -1.5442306 v 4.61081 h -1.4395373 z m 5.4964154,0 h 2.0546121 l 0.91606918,7.33337 h 0.0261736 l 0.91606902,-7.33337 h 2.054612 v 10.24624 H 0.84231438 v -7.75787 h -0.0261736 l -1.04693606,7.75787 H -1.4347718 l -1.0469361,-7.75787 h -0.026174 v 7.75787 h -1.2563232 z m 7.0406451,0 h 3.9260103 v 1.46375 H 4.7159775 v 2.70792 h 1.9760918 v 1.46376 H 4.7159775 v 3.14705 h 2.4864732 v 1.46376 H 3.2764404 Z m 6.8443536,0 h 3.92601 v 1.46375 h -2.486473 v 2.70792 h 1.976092 v 1.46376 h -1.976092 v 3.14705 h 2.486473 v 1.46376 h -3.92601 z m 4.750484,0 h 1.439537 v 10.24624 h -1.439537 z m 2.512639,0 h 1.805965 l 1.400277,6.1331 h 0.02617 v -6.1331 h 1.282497 v 10.24624 h -1.478797 l -1.727445,-7.47976 h -0.02617 v 7.47976 h -1.282497 z m 5.588022,0 h 3.926011 v 1.46375 h -2.486474 v 2.70792 h 1.976093 v 1.46376 h -1.976093 v 3.14705 h 2.486474 v 1.46376 h -3.926011 z m 6.844358,0 h 1.439537 v 4.17167 h 1.544231 v -4.17167 h 1.439537 v 10.24624 h -1.439537 v -4.61081 h -1.544231 v 4.61081 h -1.439537 z m 6.608783,0 h 1.949918 l 1.491884,10.24624 h -1.439536 l -0.261735,-2.03462 v 0.0292 h -1.635837 l -0.261735,2.00534 h -1.334843 z m 1.570404,6.85034 -0.641248,-5.06456 h -0.02617 l -0.628161,5.06456 z m 2.564984,-6.85034 h 1.805964 l 1.400276,6.1331 h 0.02617 v -6.1331 h 1.282497 v 10.24624 h -1.478793 l -1.727445,-7.47976 h -0.02617 v 7.47976 h -1.282496 z m 5.588017,0 h 2.198565 q 1.073111,0 1.609664,0.64405 0.536556,0.64405 0.536556,1.88823 v 5.18166 q 0,1.2442 -0.536556,1.88825 -0.536553,0.64405 -1.609664,0.64405 h -2.198565 z m 2.172393,8.78248 q 0.353341,0 0.536554,-0.2342 0.1963,-0.23419 0.1963,-0.76114 v -5.32804 q 0,-0.52695 -0.1963,-0.76116 -0.183213,-0.23419 -0.536554,-0.23419 h -0.732855 v 7.31873 z m 2.735111,-8.78248 h 1.452623 l 0.942243,7.94815 h 0.02617 l 0.942244,-7.94815 h 1.321756 l -1.38719,10.24624 h -1.910659 z m 7.433234,10.39261 q -1.060023,0 -1.62275,-0.67333 -0.562729,-0.67332 -0.562729,-1.90287 v -5.38658 q 0,-1.22956 0.562729,-1.90288 0.562727,-0.67332 1.62275,-0.67332 1.060023,0 1.622752,0.67332 0.562727,0.67332 0.562727,1.90288 v 5.38658 q 0,1.22955 -0.562727,1.90287 -0.562729,0.67333 -1.622752,0.67333 z m 0,-1.46375 q 0.745942,0 0.745942,-1.00999 v -5.59151 q 0,-1.00999 -0.745942,-1.00999 -0.745942,0 -0.745942,1.00999 v 5.59151 q 0,1.00999 0.745942,1.00999 z m 3.153889,-8.92886 h 1.439537 v 8.78248 h 2.368693 v 1.46376 h -3.80823 z m 4.501818,0 h 1.439538 v 8.78248 h 2.368693 v 1.46376 H 66.14493 Z m -77.695745,27.10861 2.6696863,-7.34802 h -2.5388203 v -1.46374 h 4.0830509 v 1.43447 l -2.6696869,7.34802 h 2.6696869 v 1.46374 h -4.2139169 z m 5.0252872,-8.81176 h 1.439536 v 10.24623 h -1.439536 z m 2.5126389,0 h 3.92601019 v 1.46374 H -2.5733518 v 2.70794 h 1.97609175 v 1.46375 H -2.5733518 v 3.14706 h 2.48647309 v 1.46374 H -4.0128889 Z m 6.792008,10.39261 q -1.0469361,0 -1.5965775,-0.65869 -0.54964155,-0.67333 -0.54964155,-1.91751 v -5.38659 q 0,-1.24418 0.54964155,-1.90286 0.5496414,-0.67334 1.5965775,-0.67334 1.0469359,0 1.5965774,0.67334 0.5496415,0.65868 0.5496415,1.90286 v 0.87825 H 3.5643211 v -0.98071 q 0,-1.00999 -0.745942,-1.00999 -0.7459419,0 -0.7459419,1.00999 v 5.60615 q 0,0.99535 0.7459419,0.99535 0.745942,0 0.745942,-0.99535 v -2.00533 H 2.8445525 v -1.46375 H 4.925338 v 3.35198 q 0,1.24418 -0.5496415,1.91751 -0.5496415,0.65869 -1.5965774,0.65869 z M 5.854504,335.6563 h 3.9260102 v 1.46374 H 7.2940411 v 2.70794 h 1.9760917 v 1.46375 H 7.2940411 v 3.14706 h 2.4864731 v 1.46374 H 5.854504 Z m 4.750484,0 h 1.439537 v 8.78249 h 2.368693 v 1.46374 h -3.80823 z m 6.37322,10.39261 q -1.046936,0 -1.583491,-0.65869 -0.536555,-0.67333 -0.536555,-1.91751 v -0.5855 h 1.361017 v 0.7026 q 0,0.99535 0.745942,0.99535 0.366428,0 0.549641,-0.23419 0.196301,-0.24885 0.196301,-0.79044 0,-0.64404 -0.261734,-1.12708 -0.261734,-0.49767 -0.968416,-1.18563 -0.889896,-0.87826 -1.243236,-1.58085 -0.353341,-0.71723 -0.353341,-1.61013 0,-1.2149 0.549641,-1.87358 0.549641,-0.67334 1.596578,-0.67334 1.033849,0 1.557317,0.67334 0.536555,0.65868 0.536555,1.90286 v 0.42449 H 17.76341 v -0.52695 q 0,-0.52695 -0.183214,-0.76115 -0.183214,-0.24884 -0.536555,-0.24884 -0.719768,0 -0.719768,0.98071 0,0.55623 0.261734,1.03926 0.27482,0.48304 0.981502,1.17101 0.902983,0.87824 1.243237,1.59548 0.340254,0.71724 0.340254,1.68331 0,1.25882 -0.562728,1.93215 -0.549641,0.67332 -1.609664,0.67332 z m 4.122309,-8.92887 h -1.504971 v -1.46374 h 4.449478 v 1.46374 h -1.50497 v 8.78249 h -1.439537 z m 3.638107,-1.46374 h 3.92601 v 1.46374 h -2.486473 v 2.70794 h 1.976093 v 1.46375 h -1.976093 v 3.14706 h 2.486473 v 1.46374 h -3.92601 z m 4.750484,0 h 1.439537 v 10.24623 h -1.439537 z m 2.51264,0 h 1.805963 l 1.400277,6.1331 h 0.02617 v -6.1331 h 1.282497 v 10.24623 h -1.478797 l -1.727444,-7.47975 h -0.02617 v 7.47975 h -1.282495 z m 5.588017,0 h 3.92601 v 1.46374 h -2.486472 v 2.70794 h 1.976091 v 1.46375 h -1.976091 v 3.14706 h 2.486472 v 1.46374 h -3.92601 z"
         id="text140"
         style="font-size:12.7px;font-family:'Bebas Neue';-inkscape-font-specification:'Bebas Neue, Normal';font-variant-position:sub;text-align:center;text-anchor:middle;white-space:pre;inline-size:154.041;fill:#0038a8;stroke-width:1.95182;stroke-miterlimit:3.4;opacity:0.80782918"
         aria-label="Man nehme eine Handvoll Ziegelsteine" /><path
         d="m -74.766679,120.45327 h 2.078948 q 1.014725,0 1.522086,0.56302 0.507363,0.56303 0.507363,1.65071 v 4.52983 q 0,1.08766 -0.507363,1.6507 -0.507361,0.56303 -1.522086,0.56303 h -2.078948 z m 2.054198,7.67767 q 0.334117,0 0.507363,-0.20474 0.18562,-0.20473 0.18562,-0.66539 v -4.65779 q 0,-0.46066 -0.18562,-0.66541 -0.173246,-0.20474 -0.507363,-0.20474 h -0.692982 v 6.39807 z m 2.969927,-7.67767 h 1.361216 v 8.95729 h -1.361216 z m 2.375934,0 h 3.712407 v 1.2796 h -2.35119 v 2.36729 h 1.868579 v 1.27961 h -1.868579 v 2.75117 h 2.35119 v 1.27962 h -3.712407 z m 6.471972,0 h 2.017075 q 1.051849,0 1.53446,0.51184 0.482614,0.49906 0.482614,1.54834 v 0.55023 q 0,1.39477 -0.890978,1.76586 v 0.0256 q 0.494989,0.15355 0.692983,0.62701 0.210371,0.47346 0.210371,1.26682 v 1.57391 q 0,0.38389 0.02475,0.62701 0.02475,0.23034 0.123748,0.46068 h -1.385965 q -0.07425,-0.21755 -0.099,-0.40948 -0.02475,-0.19195 -0.02475,-0.69099 v -1.63791 q 0,-0.61421 -0.197995,-0.85735 -0.18562,-0.24312 -0.655858,-0.24312 h -0.470237 v 3.83885 h -1.361216 z m 1.856204,3.83884 q 0.408364,0 0.606359,-0.21754 0.21037,-0.21753 0.21037,-0.72938 v -0.69099 q 0,-0.48625 -0.173245,-0.70379 -0.160871,-0.21754 -0.519737,-0.21754 h -0.618734 v 2.55924 z m 3.130794,-3.83884 h 1.361214 v 8.95729 h -1.361214 z m 4.294009,9.08524 q -0.9776,0 -1.497337,-0.57581 -0.507362,-0.57584 -0.507362,-1.62511 v -4.81136 q 0,-1.04928 0.507362,-1.6251 0.519737,-0.57583 1.497337,-0.57583 0.977601,0 1.484964,0.57583 0.519737,0.57582 0.519737,1.6251 v 0.94692 h -1.286969 v -1.03648 q 0,-0.83175 -0.680607,-0.83175 -0.680609,0 -0.680609,0.83175 v 5.00329 q 0,0.81894 0.680609,0.81894 0.680607,0 0.680607,-0.81894 v -1.36919 h 1.286969 v 1.26682 q 0,1.04927 -0.519737,1.62511 -0.507363,0.57581 -1.484964,0.57581 z m 2.821424,-9.08524 h 1.361216 v 3.64689 h 1.460214 v -3.64689 h 1.361215 v 8.95729 h -1.361215 v -4.03079 h -1.460214 v 4.03079 h -1.361216 z m 6.261592,1.2796 h -1.423089 v -1.2796 h 4.207394 v 1.2796 h -1.423089 v 7.67769 h -1.361216 z m 3.440171,-1.2796 h 1.361215 v 8.95729 h -1.361215 z m 4.306384,9.08524 q -0.989975,0 -1.509711,-0.57581 -0.519738,-0.58862 -0.519738,-1.67631 v -4.70897 q 0,-1.08767 0.519738,-1.66349 0.519736,-0.58863 1.509711,-0.58863 0.989975,0 1.509712,0.58863 0.519737,0.57582 0.519737,1.66349 v 0.76777 h -1.286967 v -0.85734 q 0,-0.88293 -0.705357,-0.88293 -0.705359,0 -0.705359,0.88293 v 4.90091 q 0,0.87014 0.705359,0.87014 0.705357,0 0.705357,-0.87014 v -1.75306 h -0.680609 v -1.27962 h 1.967576 v 2.93031 q 0,1.08769 -0.519737,1.67631 -0.519737,0.57581 -1.509712,0.57581 z m 2.908061,-9.08524 h 3.712407 v 1.2796 h -2.35119 v 2.36729 h 1.868578 v 1.27961 h -1.868578 v 2.75117 h 2.35119 v 1.27962 h -3.712407 z m 6.47197,0 h 1.361214 v 8.95729 h -1.361214 z m 2.375932,0 h 2.078948 q 1.014725,0 1.522087,0.56302 0.507363,0.56303 0.507363,1.65071 v 4.52983 q 0,1.08766 -0.507363,1.6507 -0.507362,0.56303 -1.522087,0.56303 h -2.078948 z m 2.054199,7.67767 q 0.334117,0 0.507363,-0.20474 0.185619,-0.20473 0.185619,-0.66539 v -4.65779 q 0,-0.46066 -0.185619,-0.66541 -0.173246,-0.20474 -0.507363,-0.20474 h -0.692983 v 6.39807 z m 2.96993,-7.67767 h 3.712407 v 1.2796 h -2.351192 v 2.36729 h 1.868578 v 1.27961 h -1.868578 v 2.75117 h 2.351192 v 1.27962 h -3.712407 z m 4.492022,0 h 3.7124074 v 1.2796 H -12.15074 v 2.36729 h 1.868578 v 1.27961 h -1.868578 v 2.75117 h 2.3511914 v 1.27962 h -3.7124074 z m 8.4519224,9.08524 q -0.9899751,0 -1.5097124,-0.57581 -0.5197374,-0.58862 -0.5197374,-1.67631 v -6.83312 h 1.3612159 v 6.93549 q 0,0.46067 0.1732458,0.6654 0.1856204,0.20474 0.5197362,0.20474 0.3341181,0 0.5073627,-0.20474 0.1856216,-0.20473 0.1856216,-0.6654 v -6.93549 h 1.3117163 v 6.83312 q 0,1.08769 -0.5197374,1.67631 -0.5197362,0.57581 -1.5097113,0.57581 z m 2.9946825,-9.08524 h 1.70770752 l 1.32409147,5.36158 h 0.0247504 v -5.36158 H 2.2039174 v 8.95729 H 0.8055773 l -1.63345862,-6.53883 h -0.0247469 v 6.53883 H -2.0653476 Z m 5.28399,0 h 2.078948 q 1.0147242,0 1.5220863,0.56302 0.5073621,0.56303 0.5073621,1.65071 v 4.52983 q 0,1.08766 -0.5073621,1.6507 -0.5073621,0.56303 -1.5220863,0.56303 h -2.078948 z m 2.0541981,7.67767 q 0.3341172,0 0.5073621,-0.20474 0.185621,-0.20473 0.185621,-0.66539 v -4.65779 q 0,-0.46066 -0.185621,-0.66541 -0.1732449,-0.20474 -0.5073621,-0.20474 H 4.579854 v 6.39807 z m 6.719459,1.40757 q -0.989976,0 -1.497338,-0.57581 -0.5073617,-0.58862 -0.5073617,-1.67631 v -0.51184 h 1.2869677 v 0.61421 q 0,0.87014 0.705357,0.87014 0.346491,0 0.519737,-0.20474 0.18562,-0.21753 0.18562,-0.69098 0,-0.56303 -0.247494,-0.98531 -0.247493,-0.43506 -0.915726,-1.03648 -0.84148,-0.76778 -1.175596,-1.38198 -0.334117,-0.62701 -0.334117,-1.40758 0,-1.06208 0.519737,-1.6379 0.519737,-0.58863 1.509713,-0.58863 0.9776,0 1.472587,0.58863 0.507362,0.57582 0.507362,1.66349 v 0.37108 h -1.286967 v -0.46065 q 0,-0.46066 -0.173245,-0.6654 -0.173246,-0.21753 -0.507362,-0.21753 -0.680609,0 -0.680609,0.85733 0,0.48625 0.247494,0.90853 0.259868,0.42228 0.928102,1.0237 0.853853,0.76776 1.175595,1.39477 0.321742,0.62701 0.321742,1.47156 0,1.10046 -0.532112,1.68909 -0.519737,0.58861 -1.522086,0.58861 z m 4.801375,0 q -1.002349,0 -1.534461,-0.58861 -0.532112,-0.58863 -0.532112,-1.66351 v -4.70897 q 0,-1.07487 0.532112,-1.66349 0.532112,-0.58863 1.534461,-0.58863 1.00235,0 1.534461,0.58863 0.532112,0.58862 0.532112,1.66349 v 4.70897 q 0,1.07488 -0.532112,1.66351 -0.532111,0.58861 -1.534461,0.58861 z m 0,-1.27961 q 0.705358,0 0.705358,-0.88293 v -4.88812 q 0,-0.88293 -0.705358,-0.88293 -0.705357,0 -0.705357,0.88293 v 4.88812 q 0,0.88293 0.705357,0.88293 z m 2.982294,-7.80563 h 1.361216 v 7.67767 h 2.239818 v 1.27962 h -3.601034 z m 4.256891,0 h 1.361216 v 8.95729 h -1.361216 z m 2.375931,0 h 2.078948 q 1.014725,0 1.522086,0.56302 0.507363,0.56303 0.507363,1.65071 v 4.52983 q 0,1.08766 -0.507363,1.6507 -0.507361,0.56303 -1.522086,0.56303 h -2.078948 z m 2.054198,7.67767 q 0.334118,0 0.507363,-0.20474 0.18562,-0.20473 0.18562,-0.66539 v -4.65779 q 0,-0.46066 -0.18562,-0.66541 -0.173245,-0.20474 -0.507363,-0.20474 h -0.692982 v 6.39807 z m 2.969937,-7.67767 h 3.712407 v 1.2796 h -2.351192 v 2.36729 h 1.868578 v 1.27961 h -1.868578 v 2.75117 h 2.351192 v 1.27962 h -3.712407 z m 6.286361,9.08524 q -0.989976,0 -1.497337,-0.57581 -0.507363,-0.58862 -0.507363,-1.67631 v -0.51184 h 1.286968 v 0.61421 q 0,0.87014 0.705357,0.87014 0.346491,0 0.519737,-0.20474 0.18562,-0.21753 0.18562,-0.69098 0,-0.56303 -0.247494,-0.98531 -0.247494,-0.43506 -0.915726,-1.03648 -0.84148,-0.76778 -1.175596,-1.38198 -0.334117,-0.62701 -0.334117,-1.40758 0,-1.06208 0.519737,-1.6379 0.519738,-0.58863 1.509713,-0.58863 0.9776,0 1.472587,0.58863 0.507363,0.57582 0.507363,1.66349 v 0.37108 h -1.286968 v -0.46065 q 0,-0.46066 -0.173246,-0.6654 -0.173246,-0.21753 -0.507361,-0.21753 -0.680609,0 -0.680609,0.85733 0,0.48625 0.247494,0.90853 0.259869,0.42228 0.928102,1.0237 0.853854,0.76776 1.175595,1.39477 0.321742,0.62701 0.321742,1.47156 0,1.10046 -0.532112,1.68909 -0.519737,0.58861 -1.522086,0.58861 z m -71.847464,6.90993 h 1.361215 v 3.64689 h 1.460214 v -3.64689 h 1.361217 v 8.95729 h -1.361217 v -4.03078 h -1.460214 v 4.03078 h -1.361215 z m 6.249218,0 h 1.84383 l 1.410715,8.95729 h -1.361217 l -0.247493,-1.77867 v 0.0256 h -1.546835 l -0.247496,1.75308 h -1.262217 z m 1.484964,5.98859 -0.606359,-4.42747 h -0.02475 l -0.593986,4.42747 z m 2.425428,-5.98859 h 1.707706 l 1.324093,5.36158 h 0.02475 v -5.36158 h 1.21272 v 8.95729 h -1.39834 l -1.633459,-6.53883 h -0.02475 v 6.53883 h -1.212719 z m 5.283993,0 h 2.078949 q 1.014724,0 1.522086,0.56302 0.507361,0.56303 0.507361,1.65071 v 4.52982 q 0,1.08767 -0.507361,1.65071 -0.507362,0.56303 -1.522086,0.56303 h -2.078949 z m 2.054198,7.67767 q 0.334117,0 0.507363,-0.20474 0.185621,-0.20473 0.185621,-0.66539 v -4.65779 q 0,-0.46066 -0.185621,-0.66541 -0.173246,-0.20473 -0.507363,-0.20473 h -0.692982 v 6.39806 z m 2.648184,-7.67767 h 1.311717 l 0.606361,6.88432 h 0.02475 l 0.643483,-6.88432 h 1.4849644 l 0.6434824,6.88432 h 0.024747 l 0.6063597,-6.88432 h 1.1755966 l -0.8786035,8.95729 H -10.03467 l -0.618736,-6.03978 h -0.02475 l -0.618734,6.03978 h -1.806705 z m 7.2144354,0 h 3.7124069 v 1.27961 h -2.3511921 v 2.36728 h 1.8685798 v 1.27962 h -1.8685798 v 2.75116 h 2.3511921 v 1.27962 h -3.7124069 z m 4.4920239,0 h 2.01707434 q 1.05184796,0 1.53446126,0.51184 0.4826122,0.49904 0.4826122,1.54834 v 0.55023 q 0,1.39477 -0.89097689,1.76586 v 0.0256 q 0.49498719,0.15355 0.69298199,0.62701 0.2103699,0.47346 0.2103699,1.26682 v 1.57391 q 0,0.38389 0.02475,0.62701 0.02475,0.23034 0.1237461,0.46067 H 0.53331761 q -0.07425,-0.21754 -0.0989992,-0.40947 -0.0247504,-0.19195 -0.0247504,-0.691 v -1.6379 q 0,-0.61422 -0.19799594,-0.85735 -0.18561994,-0.24312 -0.65585826,-0.24312 h -0.47023579 v 3.83884 H -2.2757367 Z m 1.85620329,3.83884 q 0.40836466,0 0.60635956,-0.21754 0.21036975,-0.21753 0.21036975,-0.72938 v -0.69099 q 0,-0.48626 -0.17324601,-0.70379 -0.16087106,-0.21753 -0.51973701,-0.21753 h -0.61873487 v 2.55923 z m 3.13079511,-3.83884 h 1.3612162 v 3.77485 l 1.732456,-3.77485 h 1.3612163 l -1.6210848,3.2886 1.6458337,5.66869 H 5.7678102 l -1.1508465,-3.99239 -0.5444858,1.13884 v 2.85355 H 2.7112617 Z"
         id="text140-4"
         style="font-size:12.7px;font-family:'Bebas Neue';-inkscape-font-specification:'Bebas Neue, Normal';font-variant-position:sub;text-align:center;text-anchor:middle;white-space:pre;inline-size:154.041;opacity:0.80604982;fill:#0038a8;stroke-width:1.77459;stroke-miterlimit:3.4"
         aria-label="Die richtige Idee und solides     Handwerk" /><path
         d="m -2.3827563,65.330024 h 1.40970003 l 0.91439998,6.8961 h 0.0254 l 0.91439999,-6.8961 h 1.2827 l -1.3462,8.89 h -1.8542 z m 7.2135893,9.017 q -1.0287,0 -1.5748,-0.5842 -0.5461,-0.5842 -0.5461,-1.651 v -4.6736 q 0,-1.0668 0.5461,-1.651 0.5461,-0.5842 1.5748,-0.5842 1.0286999,0 1.5747999,0.5842 0.5461,0.5842 0.5461,1.651 v 4.6736 q 0,1.0668 -0.5461,1.651 -0.5461,0.5842 -1.5747999,0.5842 z m 0,-1.27 q 0.7238999,0 0.7238999,-0.8763 v -4.8514 q 0,-0.8763 -0.7238999,-0.8763 -0.7239,0 -0.7239,0.8763 v 4.8514 q 0,0.8763 0.7239,0.8763 z m 3.0606956,-7.747 h 1.397 v 8.89 h -1.397 z m 2.4383924,0 h 1.397 v 7.62 h 2.2987 v 1.27 h -3.6957 z m 5.499094,0 h 1.8923 l 1.4478,8.89 h -1.397 l -0.254,-1.7653 v 0.0254 h -1.5875 l -0.254,1.7399 h -1.2954 z m 1.524,5.9436 -0.6223,-4.3942 h -0.0254 l -0.6096,4.3942 z m -2.2225,-8.001 h 1.524 l 0.889,1.4605 h -1.0541 z"
         id="text140-4-7"
         style="font-size:12.7px;font-family:'Bebas Neue';-inkscape-font-specification:'Bebas Neue, Normal';font-variant-position:sub;white-space:pre;inline-size:154.041;opacity:0.80604982;fill:#0038a8;stroke-width:1.791;stroke-miterlimit:3.4"
         transform="matrix(1.5233637,0,0,1.3392997,211.14169,193.73838)"
         aria-label="Voilà" /><g
         id="text140-4-4"
         style="font-size:12.7px;font-family:'Bebas Neue';-inkscape-font-specification:'Bebas Neue, Normal';font-variant-position:sub;white-space:pre;inline-size:154.041;fill:#0038a8;stroke-width:1.791;stroke-miterlimit:3.4;opacity:0.80604982"
         transform="matrix(0.82496516,0,0,0.93562021,188.04868,19.326945)"
         aria-label="gepaart mit einer ordentlichen Stärkung - Asado"><path
           style="text-align:center;text-anchor:middle"
           d="m 76.847923,74.347024 q -1.016,0 -1.5494,-0.5715 -0.5334,-0.5842 -0.5334,-1.6637 v -4.6736 q 0,-1.0795 0.5334,-1.651 0.5334,-0.5842 1.5494,-0.5842 1.016,0 1.5494,0.5842 0.5334,0.5715 0.5334,1.651 v 0.762 h -1.3208 v -0.8509 q 0,-0.8763 -0.7239,-0.8763 -0.7239,0 -0.7239,0.8763 v 4.8641 q 0,0.8636 0.7239,0.8636 0.7239,0 0.7239,-0.8636 v -1.7399 h -0.6985 v -1.27 h 2.0193 v 2.9083 q 0,1.0795 -0.5334,1.6637 -0.5334,0.5715 -1.5494,0.5715 z m 2.984509,-9.017 h 3.81 v 1.27 h -2.413 v 2.3495 h 1.9177 v 1.27 h -1.9177 v 2.7305 h 2.413 v 1.27 h -3.81 z m 4.610111,0 h 2.0574 q 1.0414,0 1.5621,0.5588 0.5207,0.5588 0.5207,1.6383 v 0.8763 q 0,1.0795 -0.5207,1.6383 -0.5207,0.5588 -1.5621,0.5588 h -0.6604 v 3.6195 h -1.397 z m 2.0574,4.0005 q 0.3429,0 0.508,-0.1905 0.1778,-0.1905 0.1778,-0.6477 v -1.0541 q 0,-0.4572 -0.1778,-0.6477 -0.1651,-0.1905 -0.508,-0.1905 h -0.6604 v 2.7305 z m 3.479798,-4.0005 h 1.8923 l 1.4478,8.89 h -1.397 l -0.254,-1.7653 v 0.0254 h -1.5875 l -0.254,1.7399 h -1.2954 z m 1.524,5.9436 -0.6223,-4.3942 h -0.0254 l -0.6096,4.3942 z m 3.632177,-5.9436 h 1.8923 l 1.4478,8.89 h -1.397 l -0.254,-1.7653 v 0.0254 h -1.5875 l -0.254,1.7399 h -1.2954 z m 1.524,5.9436 -0.6223,-4.3942 h -0.0254 l -0.6096,4.3942 z m 2.489188,-5.9436 h 2.070104 q 1.0795,0 1.5748,0.508 0.4953,0.4953 0.4953,1.5367 v 0.5461 q 0,1.3843 -0.9144,1.7526 v 0.0254 q 0.508,0.1524 0.7112,0.6223 0.2159,0.4699 0.2159,1.2573 v 1.5621 q 0,0.381 0.0254,0.6223 0.0254,0.2286 0.127,0.4572 h -1.4224 q -0.0762,-0.2159 -0.1016,-0.4064 -0.0254,-0.1905 -0.0254,-0.6858 v -1.6256 q 0,-0.6096 -0.2032,-0.8509 -0.1905,-0.2413 -0.6731,-0.2413 h -0.4826 v 3.81 h -1.397004 z m 1.905004,3.81 q 0.4191,0 0.6223,-0.2159 0.2159,-0.2159 0.2159,-0.7239 v -0.6858 q 0,-0.4826 -0.1778,-0.6985 -0.1651,-0.2159 -0.5334,-0.2159 h -0.635 v 2.54 z m 4.27989,-2.54 h -1.4605 v -1.27 h 4.318 v 1.27 h -1.4605 v 7.62 h -1.397 z m 5.5626,-1.27 h 1.9939 l 0.889,6.3627 h 0.0254 l 0.889,-6.3627 h 1.9939 v 8.89 h -1.3208 v -6.731 h -0.0254 l -1.016,6.731 h -1.1684 l -1.016,-6.731 h -0.0254 v 6.731 h -1.2192 z m 6.8326,0 h 1.397 v 8.89 h -1.397 z m 3.53059,1.27 h -1.4605 v -1.27 h 4.318 v 1.27 h -1.4605 v 7.62 h -1.397 z m 5.5626,-1.27 h 3.81 v 1.27 h -2.413 v 2.3495 h 1.9177 v 1.27 h -1.9177 v 2.7305 h 2.413 v 1.27 h -3.81 z m 4.61011,0 h 1.397 v 8.89 h -1.397 z m 2.4384,0 h 1.7526 l 1.3589,5.3213 h 0.0254 v -5.3213 h 1.2446 v 8.89 h -1.4351 l -1.6764,-6.4897 h -0.0254 v 6.4897 h -1.2446 z m 5.42289,0 h 3.81 v 1.27 h -2.413 v 2.3495 h 1.9177 v 1.27 h -1.9177 v 2.7305 h 2.413 v 1.27 h -3.81 z m 4.61012,0 h 2.0701 q 1.0795,0 1.5748,0.508 0.4953,0.4953 0.4953,1.5367 v 0.5461 q 0,1.3843 -0.9144,1.7526 v 0.0254 q 0.508,0.1524 0.7112,0.6223 0.2159,0.4699 0.2159,1.2573 v 1.5621 q 0,0.381 0.0254,0.6223 0.0254,0.2286 0.127,0.4572 h -1.4224 q -0.0762,-0.2159 -0.1016,-0.4064 -0.0254,-0.1905 -0.0254,-0.6858 v -1.6256 q 0,-0.6096 -0.2032,-0.8509 -0.1905,-0.2413 -0.6731,-0.2413 h -0.4826 v 3.81 h -1.397 z m 1.905,3.81 q 0.4191,0 0.6223,-0.2159 0.2159,-0.2159 0.2159,-0.7239 v -0.6858 q 0,-0.4826 -0.1778,-0.6985 -0.1651,-0.2159 -0.5334,-0.2159 h -0.635 v 2.54 z m 7.26439,5.207 q -1.0287,0 -1.5748,-0.5842 -0.5461,-0.5842 -0.5461,-1.651 v -4.6736 q 0,-1.0668 0.5461,-1.651 0.5461,-0.5842 1.5748,-0.5842 1.0287,0 1.5748,0.5842 0.5461,0.5842 0.5461,1.651 v 4.6736 q 0,1.0668 -0.5461,1.651 -0.5461,0.5842 -1.5748,0.5842 z m 0,-1.27 q 0.7239,0 0.7239,-0.8763 v -4.8514 q 0,-0.8763 -0.7239,-0.8763 -0.7239,0 -0.7239,0.8763 v 4.8514 q 0,0.8763 0.7239,0.8763 z m 3.0607,-7.747 h 2.0701 q 1.0795,0 1.5748,0.508 0.4953,0.4953 0.4953,1.5367 v 0.5461 q 0,1.3843 -0.9144,1.7526 v 0.0254 q 0.508,0.1524 0.7112,0.6223 0.2159,0.4699 0.2159,1.2573 v 1.5621 q 0,0.381 0.0254,0.6223 0.0254,0.2286 0.127,0.4572 h -1.4224 q -0.0762,-0.2159 -0.1016,-0.4064 -0.0254,-0.1905 -0.0254,-0.6858 v -1.6256 q 0,-0.6096 -0.2032,-0.8509 -0.1905,-0.2413 -0.6731,-0.2413 h -0.4826 v 3.81 h -1.397 z m 1.905,3.81 q 0.4191,0 0.6223,-0.2159 0.2159,-0.2159 0.2159,-0.7239 v -0.6858 q 0,-0.4826 -0.1778,-0.6985 -0.1651,-0.2159 -0.5334,-0.2159 h -0.635 v 2.54 z m 3.2131,-3.81 h 2.1336 q 1.0414,0 1.5621,0.5588 0.5207,0.5588 0.5207,1.6383 v 4.4958 q 0,1.0795 -0.5207,1.6383 -0.5207,0.5588 -1.5621,0.5588 h -2.1336 z m 2.1082,7.62 q 0.3429,0 0.5207,-0.2032 0.1905,-0.2032 0.1905,-0.6604 v -4.6228 q 0,-0.4572 -0.1905,-0.6604 -0.1778,-0.2032 -0.5207,-0.2032 h -0.7112 v 6.35 z m 3.048,-7.62 h 3.81 v 1.27 h -2.413 v 2.3495 h 1.9177 v 1.27 h -1.9177 v 2.7305 h 2.413 v 1.27 h -3.81 z m 4.61011,0 h 1.7526 l 1.3589,5.3213 h 0.0254 v -5.3213 h 1.2446 v 8.89 h -1.4351 l -1.6764,-6.4897 h -0.0254 v 6.4897 h -1.2446 z m 6.5151,1.27 h -1.4605 v -1.27 h 4.318 v 1.27 h -1.4605 v 7.62 h -1.397 z m 3.53061,-1.27 h 1.397 v 7.62 h 2.2987 v 1.27 h -3.6957 z m 4.3688,0 h 1.397 v 8.89 h -1.397 z m 4.40689,9.017 q -1.0033,0 -1.5367,-0.5715 -0.5207,-0.5715 -0.5207,-1.6129 v -4.7752 q 0,-1.0414 0.5207,-1.6129 0.5334,-0.5715 1.5367,-0.5715 1.0033,0 1.524,0.5715 0.5334,0.5715 0.5334,1.6129 v 0.9398 h -1.3208 v -1.0287 q 0,-0.8255 -0.6985,-0.8255 -0.6985,0 -0.6985,0.8255 v 4.9657 q 0,0.8128 0.6985,0.8128 0.6985,0 0.6985,-0.8128 v -1.3589 h 1.3208 v 1.2573 q 0,1.0414 -0.5334,1.6129 -0.5207,0.5715 -1.524,0.5715 z m 2.89559,-9.017 h 1.397 v 3.6195 h 1.4986 v -3.6195 h 1.397 v 8.89 h -1.397 v -4.0005 h -1.4986 v 4.0005 h -1.397 z m 5.334,0 h 3.81 v 1.27 h -2.413 v 2.3495 h 1.9177 v 1.27 h -1.9177 v 2.7305 h 2.413 v 1.27 h -3.81 z m 4.61011,0 h 1.7526 l 1.3589,5.3213 h 0.0254 v -5.3213 h 1.2446 v 8.89 h -1.4351 l -1.6764,-6.4897 h -0.0254 v 6.4897 h -1.2446 z"
           id="path141" /><path
           d="m 107.16283,90.222029 q -1.016,0 -1.5367,-0.5715 -0.5207,-0.5842 -0.5207,-1.6637 v -0.508 h 1.3208 v 0.6096 q 0,0.8636 0.7239,0.8636 0.3556,0 0.5334,-0.2032 0.1905,-0.2159 0.1905,-0.6858 0,-0.5588 -0.254,-0.9779 -0.254,-0.4318 -0.9398,-1.0287 -0.8636,-0.762 -1.2065,-1.3716 -0.3429,-0.6223 -0.3429,-1.397 0,-1.0541 0.5334,-1.6256 0.5334,-0.5842 1.5494,-0.5842 1.0033,0 1.5113,0.5842 0.5207,0.5715 0.5207,1.651 v 0.3683 h -1.3208 v -0.4572 q 0,-0.4572 -0.1778,-0.6604 -0.1778,-0.2159 -0.5207,-0.2159 -0.6985,0 -0.6985,0.8509 0,0.4826 0.254,0.9017 0.2667,0.4191 0.9525,1.016 0.8763,0.762 1.2065,1.3843 0.3302,0.6223 0.3302,1.4605 0,1.0922 -0.5461,1.6764 -0.5334,0.5842 -1.5621,0.5842 z m 4.0005,-7.747 h -1.4605 v -1.27 h 4.318 v 1.27 h -1.4605 v 7.62 h -1.397 z m 4.02591,-1.27 h 1.8923 l 1.4478,8.89 h -1.397 l -0.254,-1.7653 v 0.0254 h -1.5875 l -0.254,1.7399 h -1.2954 z m 1.524,5.9436 -0.6223,-4.3942 h -0.0254 l -0.6096,4.3942 z m -2.1717,-7.8359 h 1.2446 v 1.2954 h -1.2446 z m 1.9558,0 h 1.2446 v 1.2954 h -1.2446 z m 2.70508,1.8923 h 2.0701 q 1.0795,0 1.5748,0.508 0.4953,0.4953 0.4953,1.5367 v 0.5461 q 0,1.3843 -0.9144,1.7526 v 0.0254 q 0.508,0.1524 0.7112,0.6223 0.2159,0.4699 0.2159,1.2573 v 1.5621 q 0,0.381 0.0254,0.6223 0.0254,0.2286 0.127,0.4572 h -1.4224 q -0.0762,-0.2159 -0.1016,-0.4064 -0.0254,-0.1905 -0.0254,-0.6858 v -1.6256 q 0,-0.6096 -0.2032,-0.8509 -0.1905,-0.2413 -0.6731,-0.2413 h -0.4826 v 3.81 h -1.397 z m 1.905,3.81 q 0.4191,0 0.6223,-0.2159 0.2159,-0.2159 0.2159,-0.7239 v -0.6858 q 0,-0.4826 -0.1778,-0.6985 -0.1651,-0.2159 -0.5334,-0.2159 h -0.635 v 2.54 z m 3.2131,-3.81 h 1.397 v 3.7465 l 1.778,-3.7465 h 1.397 l -1.6637,3.2639 1.6891,5.6261 h -1.4605 l -1.1811,-3.9624 -0.5588,1.1303 v 2.8321 h -1.397 z m 7.2771,9.017 q -1.016,0 -1.5494,-0.5715 -0.5334,-0.5842 -0.5334,-1.6637 v -6.7818 h 1.397 v 6.8834 q 0,0.4572 0.1778,0.6604 0.1905,0.2032 0.5334,0.2032 0.3429,0 0.5207,-0.2032 0.1905,-0.2032 0.1905,-0.6604 v -6.8834 h 1.3462 v 6.7818 q 0,1.0795 -0.5334,1.6637 -0.5334,0.5715 -1.5494,0.5715 z m 3.07341,-9.017 h 1.7526 l 1.3589,5.3213 h 0.0254 v -5.3213 h 1.2446 v 8.89 h -1.4351 l -1.6764,-6.4897 h -0.0254 v 6.4897 h -1.2446 z m 7.4041,9.017 q -1.016,0 -1.5494,-0.5715 -0.5334,-0.5842 -0.5334,-1.6637 v -4.6736 q 0,-1.0795 0.5334,-1.651 0.5334,-0.5842 1.5494,-0.5842 1.016,0 1.5494,0.5842 0.5334,0.5715 0.5334,1.651 v 0.762 h -1.3208 v -0.8509 q 0,-0.8763 -0.7239,-0.8763 -0.7239,0 -0.7239,0.8763 v 4.8641 q 0,0.8636 0.7239,0.8636 0.7239,0 0.7239,-0.8636 v -1.7399 h -0.6985 v -1.27 h 2.0193 v 2.9083 q 0,1.0795 -0.5334,1.6637 -0.5334,0.5715 -1.5494,0.5715 z m 4.81331,-5.207 h 2.794 v 1.27 h -2.794 z m 6.7437,-3.81 h 1.8923 l 1.4478,8.89 h -1.397 l -0.254,-1.7653 v 0.0254 h -1.5875 l -0.254,1.7399 h -1.2954 z m 1.524,5.9436 -0.6223,-4.3942 h -0.0254 l -0.6096,4.3942 z m 4.26719,3.0734 q -1.016,0 -1.5367,-0.5715 -0.5207,-0.5842 -0.5207,-1.6637 v -0.508 h 1.3208 v 0.6096 q 0,0.8636 0.7239,0.8636 0.3556,0 0.5334,-0.2032 0.1905,-0.2159 0.1905,-0.6858 0,-0.5588 -0.254,-0.9779 -0.254,-0.4318 -0.9398,-1.0287 -0.8636,-0.762 -1.2065,-1.3716 -0.3429,-0.6223 -0.3429,-1.397 0,-1.0541 0.5334,-1.6256 0.5334,-0.5842 1.5494,-0.5842 1.0033,0 1.5113,0.5842 0.5207,0.5715 0.5207,1.651 v 0.3683 h -1.3208 v -0.4572 q 0,-0.4572 -0.1778,-0.6604 -0.1778,-0.2159 -0.5207,-0.2159 -0.6985,0 -0.6985,0.8509 0,0.4826 0.254,0.9017 0.2667,0.4191 0.9525,1.016 0.8763,0.762 1.2065,1.3843 0.3302,0.6223 0.3302,1.4605 0,1.0922 -0.5461,1.6764 -0.5334,0.5842 -1.5621,0.5842 z m 3.94969,-9.017 h 1.8923 l 1.4478,8.89 h -1.397 l -0.254,-1.7653 v 0.0254 h -1.5875 l -0.254,1.7399 h -1.2954 z m 1.524,5.9436 -0.6223,-4.3942 h -0.0254 l -0.6096,4.3942 z m 2.48919,-5.9436 h 2.1336 q 1.0414,0 1.5621,0.5588 0.5207,0.5588 0.5207,1.6383 v 4.4958 q 0,1.0795 -0.5207,1.6383 -0.5207,0.5588 -1.5621,0.5588 h -2.1336 z m 2.1082,7.62 q 0.3429,0 0.5207,-0.2032 0.1905,-0.2032 0.1905,-0.6604 v -4.6228 q 0,-0.4572 -0.1905,-0.6604 -0.1778,-0.2032 -0.5207,-0.2032 h -0.7112 v 6.35 z m 5.0673,1.397 q -1.0287,0 -1.5748,-0.5842 -0.5461,-0.5842 -0.5461,-1.651 v -4.6736 q 0,-1.0668 0.5461,-1.651 0.5461,-0.5842 1.5748,-0.5842 1.0287,0 1.5748,0.5842 0.5461,0.5842 0.5461,1.651 v 4.6736 q 0,1.0668 -0.5461,1.651 -0.5461,0.5842 -1.5748,0.5842 z m 0,-1.27 q 0.7239,0 0.7239,-0.8763 v -4.8514 q 0,-0.8763 -0.7239,-0.8763 -0.7239,0 -0.7239,0.8763 v 4.8514 q 0,0.8763 0.7239,0.8763 z"
           id="path142" /></g></g></g></svg>
