<?xml version="1.0" encoding="UTF-8" standalone="no"?>
<!-- Created with Inkscape (http://www.inkscape.org/) -->

<svg
   width="544.75995mm"
   height="357.0202mm"
   viewBox="0 0 544.75993 357.02019"
   version="1.1"
   id="svg1"
   xml:space="preserve"
   sodipodi:docname="references_es.svg"
   inkscape:version="1.4 (86a8ad7, 2024-10-11)"
   xmlns:inkscape="http://www.inkscape.org/namespaces/inkscape"
   xmlns:sodipodi="http://sodipodi.sourceforge.net/DTD/sodipodi-0.dtd"
   xmlns="http://www.w3.org/2000/svg"
   xmlns:svg="http://www.w3.org/2000/svg"><sodipodi:namedview
     id="namedview1"
     pagecolor="#ffffff"
     bordercolor="#000000"
     borderopacity="0.25"
     inkscape:showpageshadow="2"
     inkscape:pageopacity="0.0"
     inkscape:pagecheckerboard="0"
     inkscape:deskcolor="#d1d1d1"
     inkscape:document-units="mm"
     showgrid="false"
     inkscape:zoom="0.30007923"
     inkscape:cx="1929.4904"
     inkscape:cy="1044.7241"
     inkscape:window-width="1920"
     inkscape:window-height="1111"
     inkscape:window-x="-9"
     inkscape:window-y="92"
     inkscape:window-maximized="1"
     inkscape:current-layer="text140-4-4" /><defs
     id="defs1"><rect
       x="1499.6039"
       y="183.28493"
       width="639.83099"
       height="309.91815"
       id="rect9" /><rect
       x="1479.6093"
       y="129.96567"
       width="546.52234"
       height="209.94455"
       id="rect8" /><rect
       x="2612.6433"
       y="473.20834"
       width="243.26907"
       height="176.62003"
       id="rect7" /><rect
       x="735.1969"
       y="1010.8957"
       width="871.8681"
       height="259.20404"
       id="rect5" /><rect
       x="863.10535"
       y="983.07367"
       width="236.60419"
       height="113.30341"
       id="rect4" /><rect
       x="1233.0077"
       y="284.92474"
       width="408.22552"
       height="144.96172"
       id="rect3" /><rect
       x="76.646423"
       y="416.55664"
       width="374.36642"
       height="209.90582"
       id="rect2" /><rect
       x="119.96831"
       y="1228.009"
       width="534.85876"
       height="173.28757"
       id="rect1" /><marker
       style="overflow:visible"
       id="DartArrow"
       refX="0"
       refY="0"
       orient="auto-start-reverse"
       markerWidth="1"
       markerHeight="1"
       viewBox="0 0 1 1"
       preserveAspectRatio="xMidYMid"><path
         style="fill:context-stroke;fill-rule:evenodd;stroke:none"
         d="M 0,0 5,-5 -12.5,0 5,5 Z"
         transform="scale(-0.5)"
         id="path23" /></marker><marker
       style="overflow:visible"
       id="DartArrow-1"
       refX="0"
       refY="0"
       orient="auto-start-reverse"
       markerWidth="1"
       markerHeight="1"
       viewBox="0 0 1 1"
       preserveAspectRatio="xMidYMid"><path
         style="fill:context-stroke;fill-rule:evenodd;stroke:none"
         d="M 0,0 5,-5 -12.5,0 5,5 Z"
         transform="scale(-0.5)"
         id="path23-2" /></marker><marker
       style="overflow:visible"
       id="DartArrow-1-1"
       refX="0"
       refY="0"
       orient="auto-start-reverse"
       markerWidth="1"
       markerHeight="1"
       viewBox="0 0 1 1"
       preserveAspectRatio="xMidYMid"><path
         style="fill:context-stroke;fill-rule:evenodd;stroke:none"
         d="M 0,0 5,-5 -12.5,0 5,5 Z"
         transform="scale(-0.5)"
         id="path23-2-3" /></marker><marker
       style="overflow:visible"
       id="DartArrow-1-1-2"
       refX="0"
       refY="0"
       orient="auto-start-reverse"
       markerWidth="1"
       markerHeight="1"
       viewBox="0 0 1 1"
       preserveAspectRatio="xMidYMid"><path
         style="fill:context-stroke;fill-rule:evenodd;stroke:none"
         d="M 0,0 5,-5 -12.5,0 5,5 Z"
         transform="scale(-0.5)"
         id="path23-2-3-9" /></marker><rect
       x="863.10535"
       y="983.07367"
       width="236.60419"
       height="113.30341"
       id="rect4-2" /></defs><g
     id="layer1"
     transform="translate(161.77035,8.4539159)"><g
       id="g2"
       transform="translate(-20.396903,-21.249739)"><rect
         style="opacity:0.807829;fill:#f5f5f5;fill-opacity:1;stroke:none;stroke-width:1.791;stroke-miterlimit:3.4;stroke-opacity:1"
         id="rect143"
         width="99.116333"
         height="87.25029"
         x="228.16635"
         y="165.65833" /><rect
         style="opacity:0.807829;fill:#f5f5f5;fill-opacity:1;stroke:none;stroke-width:1.791;stroke-miterlimit:3.4;stroke-opacity:1"
         id="rect142"
         width="92.136307"
         height="149.3725"
         x="99.035904"
         y="12.795823" /><rect
         style="opacity:0.807829;fill:#f5f5f5;fill-opacity:1;stroke:none;stroke-width:1.791;stroke-miterlimit:3.4;stroke-opacity:1"
         id="rect144"
         width="76.08226"
         height="80.968269"
         x="-22.416504"
         y="183.1084" /><path
         style="opacity:1;fill:none;fill-opacity:1;stroke-width:1.22572;stroke-miterlimit:3.4;stroke-dasharray:none"
         id="path5"
         d="m -24.297151,44.254967 a 8.0817719,9.8468122 0 0 1 7.555136,-10.447875 8.0817719,9.8468122 0 0 1 8.5761211,9.20374 8.0817719,9.8468122 0 0 1 -7.5528041,10.450377 8.0817719,9.8468122 0 0 1 -8.578175,-9.200898 l 8.06542,-0.626076 z" /><path
         style="opacity:1;fill:none;fill-opacity:1;stroke-width:1.22572;stroke-miterlimit:3.4;stroke-dasharray:none"
         id="path6"
         d="M -23.317034,103.80724 A 22.819118,21.134621 0 0 1 -1.9848875,81.382533 22.819118,21.134621 0 0 1 22.23004,101.1369 22.819118,21.134621 0 0 1 0.90447763,123.56698 22.819118,21.134621 0 0 1 -23.316248,103.81871 l 22.77294701,-1.34377 z" /><path
         style="fill:none;fill-opacity:1;stroke:#000000;stroke-width:2.3635;stroke-miterlimit:3.4;stroke-opacity:1;marker-start:url(#DartArrow)"
         d="m 77.147411,131.79211 c -37.938505,5.83204 -39.897133,36.40516 -40.523602,38.37638"
         id="path22" /><path
         style="fill:none;fill-opacity:1;stroke:#000000;stroke-width:2.3635;stroke-miterlimit:3.4;stroke-opacity:1;marker-start:url(#DartArrow-1)"
         d="M 266.38773,125.0144 C 256.92333,87.416906 218.56627,84.156688 216.56276,83.713412"
         id="path22-3" /><path
         style="fill:none;fill-opacity:1;stroke:#000000;stroke-width:2.3635;stroke-miterlimit:3.4;stroke-opacity:1;marker-start:url(#DartArrow-1-1)"
         d="m 241.76214,362.26028 c 33.31487,-19.83091 25.45867,-57.51609 25.30988,-59.56265"
         id="path22-3-7" /><path
         style="fill:none;fill-opacity:1;stroke:#000000;stroke-width:2.3635;stroke-miterlimit:3.4;stroke-opacity:1;marker-start:url(#DartArrow-1-1-2)"
         d="m 5.3456556,281.72874 c -6.20739667,10.12319 -6.5862174,26.27811 -3.1465757,31.08244"
         id="path22-3-7-3" /><g
         id="text140-4-4"
         style="font-size:12.7px;font-family:'Bebas Neue';-inkscape-font-specification:'Bebas Neue, Normal';font-variant-position:sub;white-space:pre;inline-size:154.041;opacity:1;fill:#0038a8;stroke-width:1.791;stroke-miterlimit:3.4"
         transform="matrix(0.86372778,0,0,0.97958217,493.18978,-11.324756)"
         aria-label="gepaart mit einer ordentlichen Stärkung - Asado"><path
           d="m 925.63121,997.0962 -19.648,44.8 h -6.336 l -19.712,-44.8 h 6.912 l 16.128,36.8 16.256,-36.8 z m 25.47203,45.312 q -6.784,0 -12.224,-2.944 -5.44,-3.008 -8.576,-8.256 -3.072,-5.248 -3.072,-11.712 0,-6.464 3.072,-11.712 3.136,-5.248 8.576,-8.192 5.44,-3.008 12.224,-3.008 6.72,0 12.16,3.008 5.44,2.944 8.512,8.192 3.072,5.184 3.072,11.712 0,6.528 -3.072,11.776 -3.072,5.184 -8.512,8.192 -5.44,2.944 -12.16,2.944 z m 0,-5.696 q 4.928,0 8.832,-2.24 3.968,-2.24 6.208,-6.144 2.304,-3.968 2.304,-8.832 0,-4.864 -2.304,-8.768 -2.24,-3.968 -6.208,-6.208 -3.904,-2.24 -8.832,-2.24 -4.928,0 -8.96,2.24 -3.968,2.24 -6.272,6.208 -2.24,3.904 -2.24,8.768 0,4.864 2.24,8.832 2.304,3.904 6.272,6.144 4.032,2.24 8.96,2.24 z m 33.53601,-39.616 h 6.4 v 44.8 h -6.4 z m 19.83995,0 h 6.4 v 39.232 h 24.256 v 5.568 h -30.656 z m 66.752,33.6 h -23.808 l -4.928,11.2 h -6.592 l 20.288,-44.8 h 6.336 l 20.352,44.8 h -6.72 z m -2.24,-5.12 -9.664,-21.952 -9.664,21.952 z m -21.312,-40.448 h 7.808 l 8.704,8.32 h -5.76 z"
           id="text4"
           style="font-size:64px;font-family:Montserrat;-inkscape-font-specification:'Montserrat, Normal';text-align:center;text-anchor:middle;stroke-width:6.76913"
           transform="matrix(0.32644747,0,0,0.319297,-576.05997,-22.777647)"
           aria-label="VOILÀ" /><path
           d="m 859.09909,1030.4865 h -15.36 v -5.568 h 37.056 v 5.568 h -15.36 v 39.232 h -6.336 z m 38.78398,39.616 q -5.056,0 -9.088,-2.24 -4.032,-2.24 -6.336,-6.144 -2.24,-3.968 -2.24,-8.96 0,-4.992 2.24,-8.896 2.304,-3.968 6.336,-6.144 4.032,-2.24 9.088,-2.24 5.056,0 9.024,2.24 4.032,2.176 6.272,6.144 2.304,3.904 2.304,8.896 0,4.992 -2.304,8.96 -2.24,3.904 -6.272,6.144 -3.968,2.24 -9.024,2.24 z m 0,-5.376 q 3.264,0 5.824,-1.472 2.624,-1.536 4.096,-4.224 1.472,-2.752 1.472,-6.272 0,-3.52 -1.472,-6.208 -1.472,-2.752 -4.096,-4.224 -2.56,-1.472 -5.824,-1.472 -3.264,0 -5.888,1.472 -2.56,1.472 -4.096,4.224 -1.472,2.688 -1.472,6.208 0,3.52 1.472,6.272 1.536,2.688 4.096,4.224 2.624,1.472 5.888,1.472 z m 68.54401,-29.248 q 6.4,0 10.112,3.712 3.776,3.712 3.776,11.008 v 19.52 h -6.144 v -18.816 q 0,-4.928 -2.304,-7.424 -2.24,-2.496 -6.464,-2.496 -4.672,0 -7.424,2.944 -2.752,2.88 -2.752,8.32 v 17.472 h -6.144 v -18.816 q 0,-4.928 -2.304,-7.424 -2.24,-2.496 -6.464,-2.496 -4.672,0 -7.424,2.944 -2.752,2.88 -2.752,8.32 v 17.472 h -6.144 v -33.92 h 5.888 v 5.056 q 1.856,-2.624 4.864,-3.968 3.008,-1.408 6.848,-1.408 3.968,0 7.04,1.6 3.072,1.6 4.736,4.672 1.92,-2.944 5.312,-4.608 3.456,-1.664 7.744,-1.664 z m 37.56792,0 q 7.04,0 10.752,3.456 3.776,3.456 3.776,10.304 v 20.48 h -5.824 v -4.48 q -1.536,2.368 -4.416,3.648 -2.816,1.216 -6.72,1.216 -5.69597,0 -9.15197,-2.752 -3.392,-2.752 -3.392,-7.232 0,-4.48 3.264,-7.168 3.264,-2.752 10.36797,-2.752 h 9.728 v -1.216 q 0,-3.968 -2.304,-6.08 -2.304,-2.112 -6.784,-2.112 -3.008,0 -5.88797,1.024 -2.88,0.96 -4.864,2.624 l -2.56,-4.608 q 2.624,-2.112 6.272,-3.2 3.648,-1.152 7.74397,-1.152 z m -1.408,29.888 q 3.52,0 6.08,-1.536 2.56,-1.6 3.712,-4.48 v -4.736 h -9.472 q -7.80797,0 -7.80797,5.248 0,2.56 1.984,4.032 1.984,1.472 5.50397,1.472 z m 76.1599,-29.568 v 33.92 h -5.824 v -5.12 q -1.856,2.624 -4.928,4.096 -3.008,1.408 -6.592,1.408 -6.784,0 -10.688,-3.712 -3.904,-3.776 -3.904,-11.072 v -19.52 h 6.144 v 18.816 q 0,4.928 2.368,7.488 2.368,2.496 6.784,2.496 4.864,0 7.68,-2.944 2.816,-2.944 2.816,-8.32 v -17.536 z m 29.824,-0.32 q 6.464,0 10.24,3.776 3.84,3.712 3.84,10.944 v 19.52 h -6.144 v -18.816 q 0,-4.928 -2.368,-7.424 -2.368,-2.496 -6.784,-2.496 -4.992,0 -7.872,2.944 -2.88,2.88 -2.88,8.32 v 17.472 h -6.144 v -33.92 h 5.888 v 5.12 q 1.856,-2.624 4.992,-4.032 3.2,-1.408 7.232,-1.408 z m 60.672,0 q 4.928,0 8.832,2.176 3.904,2.176 6.08,6.08 2.24,3.904 2.24,9.024 0,5.12 -2.24,9.088 -2.176,3.904 -6.08,6.08 -3.904,2.176 -8.832,2.176 -3.648,0 -6.72,-1.408 -3.008,-1.408 -5.12,-4.096 v 17.536 h -6.144 v -46.336 h 5.888 v 5.376 q 2.048,-2.816 5.184,-4.224 3.136,-1.472 6.912,-1.472 z m -0.512,29.248 q 3.264,0 5.824,-1.472 2.624,-1.536 4.096,-4.224 1.536,-2.752 1.536,-6.272 0,-3.52 -1.536,-6.208 -1.472,-2.752 -4.096,-4.224 -2.56,-1.472 -5.824,-1.472 -3.2,0 -5.824,1.536 -2.56,1.472 -4.096,4.16 -1.472,2.688 -1.472,6.208 0,3.52 1.472,6.272 1.472,2.688 4.096,4.224 2.624,1.472 5.824,1.472 z m 57.7919,-28.928 v 33.92 h -5.824 v -5.12 q -1.856,2.624 -4.928,4.096 -3.008,1.408 -6.592,1.408 -6.784,0 -10.688,-3.712 -3.904,-3.776 -3.904,-11.072 v -19.52 h 6.144 v 18.816 q 0,4.928 2.368,7.488 2.368,2.496 6.784,2.496 4.864,0 7.68,-2.944 2.816,-2.944 2.816,-8.32 v -17.536 z m 29.824,-0.32 q 6.464,0 10.24,3.776 3.84,3.712 3.84,10.944 v 19.52 h -6.144 v -18.816 q 0,-4.928 -2.368,-7.424 -2.368,-2.496 -6.784,-2.496 -4.992,0 -7.872,2.944 -2.88,2.88 -2.88,8.32 v 17.472 h -6.144 v -33.92 h 5.888 v 5.12 q 1.856,-2.624 4.992,-4.032 3.2,-1.408 7.232,-1.408 z m 2.496,-4.8 q -1.536,0 -2.688,-0.64 -1.088,-0.64 -2.752,-1.92 -0.96,-0.896 -1.664,-1.28 -0.704,-0.448 -1.408,-0.448 -1.408,0 -2.304,1.088 -0.896,1.024 -0.96,2.88 h -3.456 q 0.128,-3.584 1.792,-5.696 1.728,-2.112 4.48,-2.112 1.536,0 2.688,0.704 1.216,0.64 2.752,1.92 1.088,0.896 1.728,1.344 0.64,0.384 1.344,0.384 1.408,0 2.304,-1.024 0.896,-1.024 0.96,-2.816 h 3.456 q -0.128,3.456 -1.856,5.568 -1.664,2.048 -4.416,2.048 z m 35.328,4.8 q 7.04,0 10.752,3.456 3.776,3.456 3.776,10.304 v 20.48 h -5.824 v -4.48 q -1.536,2.368 -4.416,3.648 -2.816,1.216 -6.72,1.216 -5.696,0 -9.152,-2.752 -3.392,-2.752 -3.392,-7.232 0,-4.48 3.264,-7.168 3.264,-2.752 10.368,-2.752 h 9.728 v -1.216 q 0,-3.968 -2.304,-6.08 -2.304,-2.112 -6.784,-2.112 -3.008,0 -5.888,1.024 -2.88,0.96 -4.864,2.624 l -2.56,-4.608 q 2.624,-2.112 6.272,-3.2 3.648,-1.152 7.744,-1.152 z m -1.408,29.888 q 3.52,0 6.08,-1.536 2.56,-1.6 3.712,-4.48 v -4.736 h -9.472 q -7.808,0 -7.808,5.248 0,2.56 1.984,4.032 1.984,1.472 5.504,1.472 z m 59.52,-43.136 v 47.488 h -5.888 v -5.376 q -2.048,2.816 -5.184,4.288 -3.136,1.472 -6.912,1.472 -4.928,0 -8.832,-2.176 -3.904,-2.176 -6.144,-6.08 -2.176,-3.968 -2.176,-9.088 0,-5.12 2.176,-9.024 2.24,-3.904 6.144,-6.08 3.904,-2.176 8.832,-2.176 3.648,0 6.72,1.408 3.072,1.344 5.12,4.032 v -18.688 z m -17.472,42.496 q 3.2,0 5.824,-1.472 2.624,-1.536 4.096,-4.224 1.472,-2.752 1.472,-6.272 0,-3.52 -1.472,-6.208 -1.472,-2.752 -4.096,-4.224 -2.624,-1.472 -5.824,-1.472 -3.264,0 -5.888,1.472 -2.56,1.472 -4.096,4.224 -1.472,2.688 -1.472,6.208 0,3.52 1.472,6.272 1.536,2.688 4.096,4.224 2.624,1.472 5.888,1.472 z m 43.648,5.376 q -5.056,0 -9.088,-2.24 -4.032,-2.24 -6.336,-6.144 -2.24,-3.968 -2.24,-8.96 0,-4.992 2.24,-8.896 2.304,-3.968 6.336,-6.144 4.032,-2.24 9.088,-2.24 5.056,0 9.024,2.24 4.032,2.176 6.272,6.144 2.304,3.904 2.304,8.896 0,4.992 -2.304,8.96 -2.24,3.904 -6.272,6.144 -3.968,2.24 -9.024,2.24 z m 0,-5.376 q 3.264,0 5.824,-1.472 2.624,-1.536 4.096,-4.224 1.472,-2.752 1.472,-6.272 0,-3.52 -1.472,-6.208 -1.472,-2.752 -4.096,-4.224 -2.56,-1.472 -5.824,-1.472 -3.264,0 -5.888,1.472 -2.56,1.472 -4.096,4.224 -1.472,2.688 -1.472,6.208 0,3.52 1.472,6.272 1.536,2.688 4.096,4.224 2.624,1.472 5.888,1.472 z m 75.3279,-42.496 v 47.488 h -5.888 v -5.376 q -2.048,2.816 -5.184,4.288 -3.136,1.472 -6.912,1.472 -4.928,0 -8.832,-2.176 -3.904,-2.176 -6.144,-6.08 -2.176,-3.968 -2.176,-9.088 0,-5.12 2.176,-9.024 2.24,-3.904 6.144,-6.08 3.904,-2.176 8.832,-2.176 3.648,0 6.72,1.408 3.072,1.344 5.12,4.032 v -18.688 z m -17.472,42.496 q 3.2,0 5.824,-1.472 2.624,-1.536 4.096,-4.224 1.472,-2.752 1.472,-6.272 0,-3.52 -1.472,-6.208 -1.472,-2.752 -4.096,-4.224 -2.624,-1.472 -5.824,-1.472 -3.264,0 -5.888,1.472 -2.56,1.472 -4.096,4.224 -1.472,2.688 -1.472,6.208 0,3.52 1.472,6.272 1.536,2.688 4.096,4.224 2.624,1.472 5.888,1.472 z m 59.776,-11.776 q 0,0.704 -0.128,1.856 h -27.52 q 0.576,4.48 3.904,7.232 3.392,2.688 8.384,2.688 6.08,0 9.792,-4.096 l 3.392,3.968 q -2.304,2.688 -5.76,4.096 -3.392,1.408 -7.616,1.408 -5.376,0 -9.536,-2.176 -4.16,-2.24 -6.464,-6.208 -2.24,-3.968 -2.24,-8.96 0,-4.928 2.176,-8.896 2.24,-3.968 6.08,-6.144 3.904,-2.24 8.768,-2.24 4.864,0 8.64,2.24 3.84,2.176 5.952,6.144 2.176,3.968 2.176,9.088 z m -16.768,-12.288 q -4.416,0 -7.424,2.688 -2.944,2.688 -3.456,7.04 h 21.76 q -0.512,-4.288 -3.52,-6.976 -2.944,-2.752 -7.36,-2.752 z m -428.3837,61.568 h 6.144 v 47.488 h -6.144 z m 30.2079,13.248 q 7.04,0 10.752,3.456 3.776,3.456 3.776,10.304 v 20.48 h -5.824 v -4.48 q -1.536,2.368 -4.416,3.648 -2.816,1.216 -6.72,1.216 -5.696,0 -9.152,-2.752 -3.392,-2.752 -3.392,-7.232 0,-4.48 3.264,-7.168 3.264,-2.752 10.368,-2.752 h 9.728 v -1.216 q 0,-3.968 -2.304,-6.08 -2.304,-2.112 -6.784,-2.112 -3.008,0 -5.888,1.024 -2.88,0.96 -4.864,2.624 l -2.56,-4.608 q 2.624,-2.112 6.272,-3.2 3.648,-1.152 7.744,-1.152 z m -1.408,29.888 q 3.52,0 6.08,-1.536 2.56,-1.6 3.712,-4.48 v -4.736 h -9.472 q -7.808,0 -7.808,5.248 0,2.56 1.984,4.032 1.984,1.472 5.504,1.472 z m 59.52,-43.136 v 47.488 h -5.888 v -5.376 q -2.048,2.816 -5.184,4.288 -3.136,1.472 -6.912,1.472 -4.928,0 -8.832,-2.176 -3.904,-2.176 -6.144,-6.08 -2.176,-3.968 -2.176,-9.088 0,-5.12 2.176,-9.024 2.24,-3.904 6.144,-6.08 3.904,-2.176 8.832,-2.176 3.648,0 6.72,1.408 3.072,1.344 5.12,4.032 v -18.688 z m -17.472,42.496 q 3.2,0 5.824,-1.472 2.624,-1.536 4.096,-4.224 1.472,-2.752 1.472,-6.272 0,-3.52 -1.472,-6.208 -1.472,-2.752 -4.096,-4.224 -2.624,-1.472 -5.824,-1.472 -3.264,0 -5.888,1.472 -2.56,1.472 -4.096,4.224 -1.472,2.688 -1.472,6.208 0,3.52 1.472,6.272 1.536,2.688 4.096,4.224 2.624,1.472 5.888,1.472 z m 35.008,-23.232 q 1.6,-2.944 4.736,-4.48 3.136,-1.536 7.616,-1.536 v 5.952 q -0.512,-0.064 -1.408,-0.064 -4.992,0 -7.872,3.008 -2.816,2.944 -2.816,8.448 v 16.896 h -6.144 v -33.92 h 5.888 z m 19.904,-5.696 h 6.144 v 33.92 h -6.144 z m 3.072,-6.528 q -1.792,0 -3.008,-1.152 -1.152,-1.152 -1.152,-2.816 0,-1.664 1.152,-2.816 1.216,-1.216 3.008,-1.216 1.792,0 2.944,1.152 1.216,1.088 1.216,2.752 0,1.728 -1.216,2.944 -1.152,1.152 -2.944,1.152 z m 14.7839,-7.04 h 6.144 v 47.488 h -6.144 z m 17.856,0 h 6.144 v 47.488 h -6.144 z m 32.3839,47.872 q -5.056,0 -9.088,-2.24 -4.032,-2.24 -6.336,-6.144 -2.24,-3.968 -2.24,-8.96 0,-4.992 2.24,-8.896 2.304,-3.968 6.336,-6.144 4.032,-2.24 9.088,-2.24 5.056,0 9.024,2.24 4.032,2.176 6.272,6.144 2.304,3.904 2.304,8.896 0,4.992 -2.304,8.96 -2.24,3.904 -6.272,6.144 -3.968,2.24 -9.024,2.24 z m 0,-5.376 q 3.264,0 5.824,-1.472 2.624,-1.536 4.096,-4.224 1.472,-2.752 1.472,-6.272 0,-3.52 -1.472,-6.208 -1.472,-2.752 -4.096,-4.224 -2.56,-1.472 -5.824,-1.472 -3.264,0 -5.888,1.472 -2.56,1.472 -4.096,4.224 -1.472,2.688 -1.472,6.208 0,3.52 1.472,6.272 1.536,2.688 4.096,4.224 2.624,1.472 5.888,1.472 z m 35.8401,5.376 q -4.16,0 -8,-1.088 -3.84,-1.152 -6.016,-2.88 l 2.56,-4.864 q 2.24,1.6 5.44,2.56 3.2,0.96 6.464,0.96 8.064,0 8.064,-4.608 0,-1.536 -1.088,-2.432 -1.088,-0.896 -2.752,-1.28 -1.6,-0.448 -4.608,-0.96 -4.096,-0.64 -6.72,-1.472 -2.56,-0.832 -4.416,-2.816 -1.856,-1.984 -1.856,-5.568 0,-4.608 3.84,-7.36 3.84,-2.816 10.304,-2.816 3.392,0 6.784,0.832 3.392,0.832 5.568,2.24 l -2.624,4.864 q -4.16,-2.688 -9.792,-2.688 -3.904,0 -5.952,1.28 -2.048,1.28 -2.048,3.392 0,1.664 1.152,2.624 1.152,0.96 2.816,1.408 1.728,0.448 4.8,1.024 4.096,0.704 6.592,1.536 2.56,0.768 4.352,2.688 1.792,1.92 1.792,5.376 0,4.608 -3.968,7.36 -3.904,2.688 -10.688,2.688 z"
           id="text5"
           style="font-size:64px;font-family:Montserrat;-inkscape-font-specification:'Montserrat, Normal';text-align:center;text-anchor:middle;stroke-width:6.76913"
           transform="matrix(0.33486492,0,0,0.29526073,-947.72168,37.087905)"
           aria-label="Toma un puñado de ladrillos" /><g
           id="text6"
           style="font-size:18.4091px;font-family:Montserrat;-inkscape-font-specification:'Montserrat, Normal';text-align:center;text-anchor:middle;stroke-width:1.94709"
           transform="scale(1.0649568,0.93900523)"
           aria-label="La idea adecuada y un &#10;trabajo bien hecho"><path
             d="m -689.86804,131.23886 h 1.84091 v 11.28478 h 6.97705 v 1.60159 h -8.81796 z m 14.28546,3.0375 q 2.02501,0 3.09273,0.99409 1.08614,0.99409 1.08614,2.96387 v 5.89091 h -1.67523 v -1.28864 q -0.44182,0.68114 -1.27023,1.04932 -0.81,0.34977 -1.93295,0.34977 -1.63841,0 -2.6325,-0.79159 -0.97568,-0.79159 -0.97568,-2.08023 0,-1.28863 0.93886,-2.06182 0.93886,-0.79159 2.98227,-0.79159 h 2.79819 v -0.34977 q 0,-1.14136 -0.66273,-1.74886 -0.66273,-0.6075 -1.95137,-0.6075 -0.86522,0 -1.69363,0.29454 -0.82841,0.27614 -1.39909,0.75477 l -0.73637,-1.32545 q 0.75477,-0.6075 1.80409,-0.92046 1.04932,-0.33136 2.2275,-0.33136 z m -0.405,8.59705 q 1.0125,0 1.74887,-0.44182 0.73636,-0.46023 1.06773,-1.28864 v -1.36227 h -2.72455 q -2.24591,0 -2.24591,1.50955 0,0.73636 0.57068,1.15977 0.57068,0.42341 1.58318,0.42341 z m 12.81271,-8.505 h 1.76728 v 9.75682 h -1.76728 z m 0.88364,-1.87773 q -0.51546,0 -0.86523,-0.33137 -0.33136,-0.33136 -0.33136,-0.81 0,-0.47863 0.33136,-0.81 0.34977,-0.34977 0.86523,-0.34977 0.51545,0 0.84682,0.33136 0.34977,0.31296 0.34977,0.7916 0,0.49704 -0.34977,0.84681 -0.33137,0.33137 -0.84682,0.33137 z m 13.45704,-2.025 v 13.65955 h -1.69364 v -1.54637 q -0.58909,0.81 -1.49114,1.23341 -0.90204,0.42341 -1.98818,0.42341 -1.4175,0 -2.54045,-0.62591 -1.12296,-0.62591 -1.76728,-1.74886 -0.62591,-1.14136 -0.62591,-2.61409 0,-1.47273 0.62591,-2.59569 0.64432,-1.12295 1.76728,-1.74886 1.12295,-0.62591 2.54045,-0.62591 1.04932,0 1.93296,0.405 0.88363,0.38659 1.47272,1.15977 v -5.37545 z m -5.02569,12.22364 q 0.92046,0 1.67523,-0.42341 0.75478,-0.44182 1.17818,-1.215 0.42341,-0.79159 0.42341,-1.80409 0,-1.0125 -0.42341,-1.78569 -0.4234,-0.79159 -1.17818,-1.215 -0.75477,-0.42341 -1.67523,-0.42341 -0.93886,0 -1.69363,0.42341 -0.73637,0.42341 -1.17819,1.215 -0.4234,0.77319 -0.4234,1.78569 0,1.0125 0.4234,1.80409 0.44182,0.77318 1.17819,1.215 0.75477,0.42341 1.69363,0.42341 z m 17.19409,-3.38728 q 0,0.2025 -0.0368,0.53387 h -7.91591 q 0.16568,1.28864 1.12295,2.08023 0.97569,0.77318 2.4116,0.77318 1.74886,0 2.81659,-1.17818 l 0.97568,1.14136 q -0.66273,0.77318 -1.65682,1.17818 -0.97568,0.405 -2.19068,0.405 -1.54637,0 -2.74296,-0.62591 -1.19659,-0.64431 -1.85932,-1.78568 -0.64431,-1.14136 -0.64431,-2.57727 0,-1.4175 0.6259,-2.55887 0.64432,-1.14136 1.74887,-1.76727 1.12295,-0.64432 2.52205,-0.64432 1.39909,0 2.48522,0.64432 1.10455,0.62591 1.71205,1.76727 0.62591,1.14137 0.62591,2.61409 z m -4.82318,-3.53454 q -1.27023,0 -2.13546,0.77318 -0.84682,0.77318 -0.99409,2.025 h 6.25909 q -0.14727,-1.23341 -1.0125,-2.00659 -0.84682,-0.79159 -2.11704,-0.79159 z m 10.54841,-1.49114 q 2.025,0 3.09273,0.99409 1.08614,0.99409 1.08614,2.96387 v 5.89091 h -1.67523 v -1.28864 q -0.44182,0.68114 -1.27023,1.04932 -0.81,0.34977 -1.93295,0.34977 -1.63841,0 -2.63251,-0.79159 -0.97568,-0.79159 -0.97568,-2.08023 0,-1.28863 0.93887,-2.06182 0.93886,-0.79159 2.98227,-0.79159 h 2.79818 v -0.34977 q 0,-1.14136 -0.66272,-1.74886 -0.66273,-0.6075 -1.95137,-0.6075 -0.86523,0 -1.69364,0.29454 -0.8284,0.27614 -1.39909,0.75477 l -0.73636,-1.32545 q 0.75477,-0.6075 1.80409,-0.92046 1.04932,-0.33136 2.2275,-0.33136 z m -0.405,8.59705 q 1.0125,0 1.74887,-0.44182 0.73636,-0.46023 1.06772,-1.28864 v -1.36227 h -2.72454 q -2.24591,0 -2.24591,1.50955 0,0.73636 0.57068,1.15977 0.57068,0.42341 1.58318,0.42341 z m 16.36567,-8.59705 q 2.025,0 3.09273,0.99409 1.08613,0.99409 1.08613,2.96387 v 5.89091 h -1.67522 v -1.28864 q -0.44182,0.68114 -1.27023,1.04932 -0.81,0.34977 -1.93296,0.34977 -1.63841,0 -2.6325,-0.79159 -0.97568,-0.79159 -0.97568,-2.08023 0,-1.28863 0.93886,-2.06182 0.93887,-0.79159 2.98228,-0.79159 h 2.79818 v -0.34977 q 0,-1.14136 -0.66273,-1.74886 -0.66272,-0.6075 -1.95136,-0.6075 -0.86523,0 -1.69364,0.29454 -0.82841,0.27614 -1.39909,0.75477 l -0.73636,-1.32545 q 0.75477,-0.6075 1.80409,-0.92046 1.04932,-0.33136 2.2275,-0.33136 z m -0.405,8.59705 q 1.0125,0 1.74886,-0.44182 0.73637,-0.46023 1.06773,-1.28864 v -1.36227 h -2.72455 q -2.24591,0 -2.24591,1.50955 0,0.73636 0.57069,1.15977 0.57068,0.42341 1.58318,0.42341 z m 17.12046,-12.40773 v 13.65955 h -1.69364 v -1.54637 q -0.58909,0.81 -1.49114,1.23341 -0.90204,0.42341 -1.98818,0.42341 -1.4175,0 -2.54046,-0.62591 -1.12295,-0.62591 -1.76727,-1.74886 -0.62591,-1.14136 -0.62591,-2.61409 0,-1.47273 0.62591,-2.59569 0.64432,-1.12295 1.76727,-1.74886 1.12296,-0.62591 2.54046,-0.62591 1.04932,0 1.93296,0.405 0.88363,0.38659 1.47272,1.15977 v -5.37545 z m -5.02569,12.22364 q 0.92046,0 1.67523,-0.42341 0.75477,-0.44182 1.17818,-1.215 0.42341,-0.79159 0.42341,-1.80409 0,-1.0125 -0.42341,-1.78569 -0.42341,-0.79159 -1.17818,-1.215 -0.75477,-0.42341 -1.67523,-0.42341 -0.93886,0 -1.69363,0.42341 -0.73637,0.42341 -1.17819,1.215 -0.42341,0.77319 -0.42341,1.78569 0,1.0125 0.42341,1.80409 0.44182,0.77318 1.17819,1.215 0.75477,0.42341 1.69363,0.42341 z m 17.19409,-3.38728 q 0,0.2025 -0.0368,0.53387 h -7.91591 q 0.16568,1.28864 1.12295,2.08023 0.97569,0.77318 2.4116,0.77318 1.74886,0 2.81659,-1.17818 l 0.97568,1.14136 q -0.66273,0.77318 -1.65682,1.17818 -0.97568,0.405 -2.19068,0.405 -1.54637,0 -2.74296,-0.62591 -1.19659,-0.64431 -1.85932,-1.78568 -0.64432,-1.14136 -0.64432,-2.57727 0,-1.4175 0.62591,-2.55887 0.64432,-1.14136 1.74887,-1.76727 1.12295,-0.64432 2.52205,-0.64432 1.39909,0 2.48522,0.64432 1.10455,0.62591 1.71205,1.76727 0.62591,1.14137 0.62591,2.61409 z m -4.82318,-3.53454 q -1.27023,0 -2.13546,0.77318 -0.84682,0.77318 -0.99409,2.025 h 6.25909 q -0.14727,-1.23341 -1.0125,-2.00659 -0.84682,-0.79159 -2.11704,-0.79159 z m 11.52408,8.46818 q -1.49114,0 -2.66932,-0.64432 -1.15977,-0.64431 -1.8225,-1.76727 -0.66273,-1.14136 -0.66273,-2.57727 0,-1.43591 0.66273,-2.55887 0.66273,-1.14136 1.8225,-1.76727 1.17818,-0.64432 2.66932,-0.64432 1.32546,0 2.35636,0.53386 1.04932,0.53387 1.62001,1.54637 l -1.34387,0.86523 q -0.46023,-0.69955 -1.14136,-1.04932 -0.68114,-0.34978 -1.50955,-0.34978 -0.95727,0 -1.73045,0.42341 -0.75478,0.42341 -1.1966,1.215 -0.42341,0.77319 -0.42341,1.78569 0,1.03091 0.42341,1.8225 0.44182,0.77318 1.1966,1.19659 0.77318,0.42341 1.73045,0.42341 0.82841,0 1.50955,-0.34977 0.68113,-0.34978 1.14136,-1.04932 l 1.34387,0.84682 q -0.57069,1.0125 -1.62001,1.56477 -1.0309,0.53386 -2.35636,0.53386 z m 15.35317,-9.86727 v 9.75682 h -1.67522 v -1.47273 q -0.53387,0.75477 -1.4175,1.17818 -0.86523,0.405 -1.89614,0.405 -1.95137,0 -3.07432,-1.06772 -1.12296,-1.08614 -1.12296,-3.18478 v -5.61477 h 1.76728 v 5.41227 q 0,1.4175 0.68113,2.15387 0.68114,0.71795 1.95137,0.71795 1.39909,0 2.20909,-0.84682 0.81,-0.84682 0.81,-2.39318 v -5.04409 z m 6.92183,-0.0921 q 2.025,0 3.09273,0.99409 1.08614,0.99409 1.08614,2.96387 v 5.89091 h -1.67523 v -1.28864 q -0.44182,0.68114 -1.27023,1.04932 -0.81,0.34977 -1.93295,0.34977 -1.63841,0 -2.6325,-0.79159 -0.97569,-0.79159 -0.97569,-2.08023 0,-1.28863 0.93887,-2.06182 0.93886,-0.79159 2.98227,-0.79159 h 2.79818 v -0.34977 q 0,-1.14136 -0.66272,-1.74886 -0.66273,-0.6075 -1.95137,-0.6075 -0.86523,0 -1.69363,0.29454 -0.82841,0.27614 -1.3991,0.75477 l -0.73636,-1.32545 q 0.75477,-0.6075 1.80409,-0.92046 1.04932,-0.33136 2.2275,-0.33136 z m -0.405,8.59705 q 1.0125,0 1.74887,-0.44182 0.73636,-0.46023 1.06772,-1.28864 v -1.36227 h -2.72454 q -2.24591,0 -2.24591,1.50955 0,0.73636 0.57068,1.15977 0.57068,0.42341 1.58318,0.42341 z m 17.12045,-12.40773 v 13.65955 h -1.69363 v -1.54637 q -0.58909,0.81 -1.49114,1.23341 -0.90205,0.42341 -1.98818,0.42341 -1.4175,0 -2.54046,-0.62591 -1.12295,-0.62591 -1.76727,-1.74886 -0.62591,-1.14136 -0.62591,-2.61409 0,-1.47273 0.62591,-2.59569 0.64432,-1.12295 1.76727,-1.74886 1.12296,-0.62591 2.54046,-0.62591 1.04932,0 1.93295,0.405 0.88364,0.38659 1.47273,1.15977 v -5.37545 z m -5.02568,12.22364 q 0.92045,0 1.67523,-0.42341 0.75477,-0.44182 1.17818,-1.215 0.42341,-0.79159 0.42341,-1.80409 0,-1.0125 -0.42341,-1.78569 -0.42341,-0.79159 -1.17818,-1.215 -0.75478,-0.42341 -1.67523,-0.42341 -0.93886,0 -1.69364,0.42341 -0.73636,0.42341 -1.17818,1.215 -0.42341,0.77319 -0.42341,1.78569 0,1.0125 0.42341,1.80409 0.44182,0.77318 1.17818,1.215 0.75478,0.42341 1.69364,0.42341 z m 11.92908,-8.41296 q 2.025,0 3.09273,0.99409 1.08614,0.99409 1.08614,2.96387 v 5.89091 h -1.67523 v -1.28864 q -0.44182,0.68114 -1.27023,1.04932 -0.81,0.34977 -1.93295,0.34977 -1.63841,0 -2.6325,-0.79159 -0.97569,-0.79159 -0.97569,-2.08023 0,-1.28863 0.93887,-2.06182 0.93886,-0.79159 2.98227,-0.79159 h 2.79819 v -0.34977 q 0,-1.14136 -0.66273,-1.74886 -0.66273,-0.6075 -1.95137,-0.6075 -0.86522,0 -1.69363,0.29454 -0.82841,0.27614 -1.3991,0.75477 l -0.73636,-1.32545 q 0.75477,-0.6075 1.80409,-0.92046 1.04932,-0.33136 2.2275,-0.33136 z m -0.405,8.59705 q 1.0125,0 1.74887,-0.44182 0.73636,-0.46023 1.06773,-1.28864 v -1.36227 h -2.72455 q -2.24591,0 -2.24591,1.50955 0,0.73636 0.57068,1.15977 0.57068,0.42341 1.58318,0.42341 z m 21.44658,-8.505 -4.73114,10.7325 q -0.62591,1.49114 -1.47273,2.09864 -0.82841,0.6075 -2.00659,0.6075 -0.71796,0 -1.39909,-0.23932 -0.66273,-0.22091 -1.10455,-0.66273 l 0.75477,-1.32545 q 0.75478,0.71795 1.74887,0.71795 0.64432,0 1.06773,-0.34977 0.44182,-0.33136 0.79159,-1.15977 l 0.31295,-0.68114 -4.30773,-9.73841 h 1.84091 l 3.40569,7.80545 3.36886,-7.80545 z m 15.70295,0 v 9.75682 h -1.67523 v -1.47273 q -0.53387,0.75477 -1.4175,1.17818 -0.86523,0.405 -1.89614,0.405 -1.95136,0 -3.07432,-1.06772 -1.12295,-1.08614 -1.12295,-3.18478 v -5.61477 h 1.76727 v 5.41227 q 0,1.4175 0.68114,2.15387 0.68113,0.71795 1.95136,0.71795 1.39909,0 2.20909,-0.84682 0.81,-0.84682 0.81,-2.39318 v -5.04409 z m 8.57864,-0.0921 q 1.85932,0 2.94546,1.08614 1.10455,1.06773 1.10455,3.14795 v 5.61478 h -1.76728 v -5.41228 q 0,-1.4175 -0.68113,-2.13545 -0.68114,-0.71796 -1.95137,-0.71796 -1.43591,0 -2.26432,0.84682 -0.82841,0.82841 -0.82841,2.39318 v 5.02569 h -1.76727 v -9.75682 h 1.69364 v 1.47272 q 0.53386,-0.75477 1.43591,-1.15977 0.92045,-0.405 2.08022,-0.405 z"
             id="path10" /><path
             d="m -665.69694,166.56592 q -0.38659,0.33137 -0.95727,0.51546 -0.57068,0.16568 -1.17818,0.16568 -1.47273,0 -2.28273,-0.79159 -0.81,-0.79159 -0.81,-2.26432 v -5.35705 h -1.65682 v -1.45432 h 1.65682 v -2.13545 h 1.76727 v 2.13545 h 2.79818 v 1.45432 h -2.79818 v 5.28341 q 0,0.79159 0.38659,1.215 0.405,0.42341 1.14137,0.42341 0.81,0 1.38068,-0.46023 z m 3.82909,-7.54773 q 0.46022,-0.84682 1.36227,-1.28864 0.90205,-0.44181 2.19068,-0.44181 v 1.71204 q -0.14727,-0.0184 -0.405,-0.0184 -1.43591,0 -2.26432,0.86523 -0.81,0.84682 -0.81,2.43 v 4.86 h -1.76727 v -9.75682 h 1.69364 z m 9.25978,-1.73045 q 2.025,0 3.09273,0.99409 1.08614,0.99409 1.08614,2.96386 v 5.89091 h -1.67523 v -1.28863 q -0.44182,0.68113 -1.27023,1.04932 -0.81,0.34977 -1.93295,0.34977 -1.63841,0 -2.63251,-0.79159 -0.97568,-0.79159 -0.97568,-2.08023 0,-1.28864 0.93887,-2.06182 0.93886,-0.79159 2.98227,-0.79159 h 2.79818 v -0.34977 q 0,-1.14137 -0.66272,-1.74887 -0.66273,-0.6075 -1.95137,-0.6075 -0.86523,0 -1.69364,0.29455 -0.82841,0.27613 -1.39909,0.75477 l -0.73636,-1.32546 q 0.75477,-0.6075 1.80409,-0.92045 1.04932,-0.33136 2.2275,-0.33136 z m -0.405,8.59704 q 1.0125,0 1.74887,-0.44181 0.73636,-0.46023 1.06772,-1.28864 v -1.36227 h -2.72454 q -2.24591,0 -2.24591,1.50954 0,0.73637 0.57068,1.15978 0.57068,0.4234 1.58318,0.4234 z m 13.03364,-8.59704 q 1.4175,0 2.54045,0.6259 1.12296,0.62591 1.74887,1.74887 0.64431,1.12295 0.64431,2.59568 0,1.47273 -0.64431,2.61409 -0.62591,1.12296 -1.74887,1.74887 -1.12295,0.62591 -2.54045,0.62591 -1.08614,0 -1.98819,-0.42341 -0.90204,-0.42341 -1.49113,-1.23341 v 1.54636 h -1.69364 v -13.65955 h 1.76727 v 5.37546 q 0.58909,-0.77318 1.47273,-1.15977 0.88364,-0.405 1.93296,-0.405 z m -0.14728,8.41295 q 0.93887,0 1.67523,-0.42341 0.75477,-0.44181 1.17818,-1.215 0.44182,-0.79159 0.44182,-1.80409 0,-1.0125 -0.44182,-1.78568 -0.42341,-0.79159 -1.17818,-1.215 -0.73636,-0.42341 -1.67523,-0.42341 -0.92045,0 -1.67523,0.42341 -0.75477,0.42341 -1.17818,1.215 -0.42341,0.77318 -0.42341,1.78568 0,1.0125 0.42341,1.80409 0.42341,0.77319 1.17818,1.215 0.75478,0.42341 1.67523,0.42341 z m 10.99024,-8.41295 q 2.025,0 3.09272,0.99409 1.08614,0.99409 1.08614,2.96386 v 5.89091 h -1.67523 v -1.28863 q -0.44182,0.68113 -1.27022,1.04932 -0.81001,0.34977 -1.93296,0.34977 -1.63841,0 -2.6325,-0.79159 -0.97568,-0.79159 -0.97568,-2.08023 0,-1.28864 0.93886,-2.06182 0.93886,-0.79159 2.98227,-0.79159 h 2.79819 v -0.34977 q 0,-1.14137 -0.66273,-1.74887 -0.66273,-0.6075 -1.95136,-0.6075 -0.86523,0 -1.69364,0.29455 -0.82841,0.27613 -1.39909,0.75477 l -0.73637,-1.32546 q 0.75478,-0.6075 1.80409,-0.92045 1.04932,-0.33136 2.22751,-0.33136 z m -0.405,8.59704 q 1.0125,0 1.74886,-0.44181 0.73636,-0.46023 1.06773,-1.28864 v -1.36227 h -2.72455 q -2.24591,0 -2.24591,1.50954 0,0.73637 0.57068,1.15978 0.57069,0.4234 1.58319,0.4234 z m 6.60885,4.93364 q -0.64432,0 -1.19659,-0.14727 -0.55227,-0.14727 -0.92045,-0.44182 l 0.57068,-1.36227 q 0.55227,0.46023 1.43591,0.46023 0.69954,0 1.06773,-0.44182 0.38659,-0.42341 0.38659,-1.27023 v -10.23546 h 1.76727 v 10.19864 q 0,1.50955 -0.81,2.37478 -0.81,0.86522 -2.30114,0.86522 z m 2.2275,-15.31637 q -0.51545,0 -0.86522,-0.33136 -0.33137,-0.33137 -0.33137,-0.81 0,-0.47864 0.33137,-0.81 0.34977,-0.34978 0.86522,-0.34978 0.51546,0 0.84682,0.33137 0.34978,0.31295 0.34978,0.79159 0,0.49705 -0.34978,0.84682 -0.33136,0.33136 -0.84682,0.33136 z m 8.43138,11.74501 q -1.45432,0 -2.61409,-0.64432 -1.15978,-0.64432 -1.8225,-1.76727 -0.64432,-1.14137 -0.64432,-2.57728 0,-1.43591 0.64432,-2.55886 0.66272,-1.14137 1.8225,-1.76728 1.15977,-0.64431 2.61409,-0.64431 1.45432,0 2.59568,0.64431 1.15978,0.62591 1.80409,1.76728 0.66273,1.12295 0.66273,2.55886 0,1.43591 -0.66273,2.57728 -0.64431,1.12295 -1.80409,1.76727 -1.14136,0.64432 -2.59568,0.64432 z m 0,-1.54637 q 0.93886,0 1.67523,-0.42341 0.75477,-0.44181 1.17818,-1.215 0.42341,-0.79159 0.42341,-1.80409 0,-1.0125 -0.42341,-1.78568 -0.42341,-0.79159 -1.17818,-1.215 -0.73637,-0.42341 -1.67523,-0.42341 -0.93886,0 -1.69364,0.42341 -0.73636,0.42341 -1.17818,1.215 -0.42341,0.77318 -0.42341,1.78568 0,1.0125 0.42341,1.80409 0.44182,0.77319 1.17818,1.215 0.75478,0.42341 1.69364,0.42341 z m 17.6359,-8.41295 q 1.4175,0 2.54046,0.6259 1.12295,0.62591 1.74886,1.74887 0.64432,1.12295 0.64432,2.59568 0,1.47273 -0.64432,2.61409 -0.62591,1.12296 -1.74886,1.74887 -1.12296,0.62591 -2.54046,0.62591 -1.08614,0 -1.98818,-0.42341 -0.90205,-0.42341 -1.49114,-1.23341 v 1.54636 h -1.69364 v -13.65955 h 1.76728 v 5.37546 q 0.58909,-0.77318 1.47273,-1.15977 0.88363,-0.405 1.93295,-0.405 z m -0.14727,8.41295 q 0.93886,0 1.67523,-0.42341 0.75477,-0.44181 1.17818,-1.215 0.44182,-0.79159 0.44182,-1.80409 0,-1.0125 -0.44182,-1.78568 -0.42341,-0.79159 -1.17818,-1.215 -0.73637,-0.42341 -1.67523,-0.42341 -0.92046,0 -1.67523,0.42341 -0.75477,0.42341 -1.17818,1.215 -0.42341,0.77318 -0.42341,1.78568 0,1.0125 0.42341,1.80409 0.42341,0.77319 1.17818,1.215 0.75477,0.42341 1.67523,0.42341 z m 7.52931,-8.32091 h 1.76727 v 9.75682 h -1.76727 z m 0.88363,-1.87773 q -0.51545,0 -0.86522,-0.33136 -0.33137,-0.33137 -0.33137,-0.81 0,-0.47864 0.33137,-0.81 0.34977,-0.34978 0.86522,-0.34978 0.51546,0 0.84682,0.33137 0.34978,0.31295 0.34978,0.79159 0,0.49705 -0.34978,0.84682 -0.33136,0.33136 -0.84682,0.33136 z m 13.07046,6.81137 q 0,0.2025 -0.0368,0.53386 h -7.91591 q 0.16568,1.28864 1.12295,2.08023 0.97568,0.77318 2.41159,0.77318 1.74887,0 2.8166,-1.17818 l 0.97568,1.14137 q -0.66273,0.77318 -1.65682,1.17818 -0.97568,0.405 -2.19068,0.405 -1.54637,0 -2.74296,-0.62591 -1.19659,-0.64432 -1.85932,-1.78568 -0.64432,-1.14137 -0.64432,-2.57728 0,-1.4175 0.62591,-2.55886 0.64432,-1.14137 1.74887,-1.76728 1.12295,-0.64431 2.52204,-0.64431 1.39909,0 2.48523,0.64431 1.10455,0.62591 1.71205,1.76728 0.62591,1.14136 0.62591,2.61409 z m -4.82319,-3.53455 q -1.27022,0 -2.13545,0.77318 -0.84682,0.77319 -0.99409,2.02501 h 6.25909 q -0.14727,-1.23341 -1.0125,-2.0066 -0.84682,-0.79159 -2.11705,-0.79159 z m 12.48136,-1.49113 q 1.85932,0 2.94546,1.08613 1.10454,1.06773 1.10454,3.14796 v 5.61477 h -1.76727 v -5.41227 q 0,-1.4175 -0.68114,-2.13546 -0.68113,-0.71795 -1.95136,-0.71795 -1.43591,0 -2.26432,0.84682 -0.82841,0.82841 -0.82841,2.39318 v 5.02568 h -1.76727 v -9.75682 h 1.69363 v 1.47273 q 0.53387,-0.75477 1.43591,-1.15977 0.92046,-0.405 2.08023,-0.405 z m 17.48863,0 q 1.85932,0 2.94545,1.08613 1.10455,1.06773 1.10455,3.14796 v 5.61477 h -1.76728 v -5.41227 q 0,-1.4175 -0.68113,-2.13546 -0.68114,-0.71795 -1.95137,-0.71795 -1.43591,0 -2.26432,0.84682 -0.82841,0.82841 -0.82841,2.39318 v 5.02568 h -1.76727 v -13.65955 h 1.76727 v 5.28341 q 0.55228,-0.69954 1.43591,-1.08613 0.90205,-0.38659 2.0066,-0.38659 z m 16.20001,5.02568 q 0,0.2025 -0.0368,0.53386 h -7.91591 q 0.16568,1.28864 1.12295,2.08023 0.97568,0.77318 2.41159,0.77318 1.74887,0 2.8166,-1.17818 l 0.97568,1.14137 q -0.66273,0.77318 -1.65682,1.17818 -0.97568,0.405 -2.19068,0.405 -1.54637,0 -2.74296,-0.62591 -1.19659,-0.64432 -1.85932,-1.78568 -0.64432,-1.14137 -0.64432,-2.57728 0,-1.4175 0.62591,-2.55886 0.64432,-1.14137 1.74887,-1.76728 1.12295,-0.64431 2.52204,-0.64431 1.39909,0 2.48523,0.64431 1.10455,0.62591 1.71205,1.76728 0.62591,1.14136 0.62591,2.61409 z m -4.82319,-3.53455 q -1.27023,0 -2.13545,0.77318 -0.84682,0.77319 -0.99409,2.02501 h 6.25909 q -0.14727,-1.23341 -1.0125,-2.0066 -0.84682,-0.79159 -2.11705,-0.79159 z m 11.52409,8.46819 q -1.49114,0 -2.66932,-0.64432 -1.15978,-0.64432 -1.8225,-1.76727 -0.66273,-1.14137 -0.66273,-2.57728 0,-1.43591 0.66273,-2.55886 0.66272,-1.14137 1.8225,-1.76728 1.17818,-0.64431 2.66932,-0.64431 1.32545,0 2.35636,0.53386 1.04932,0.53386 1.62,1.54636 l -1.34386,0.86523 q -0.46023,-0.69954 -1.14137,-1.04932 -0.68113,-0.34977 -1.50954,-0.34977 -0.95727,0 -1.73046,0.42341 -0.75477,0.42341 -1.19659,1.215 -0.42341,0.77318 -0.42341,1.78568 0,1.03091 0.42341,1.8225 0.44182,0.77319 1.19659,1.19659 0.77319,0.42341 1.73046,0.42341 0.82841,0 1.50954,-0.34977 0.68114,-0.34977 1.14137,-1.04932 l 1.34386,0.84682 q -0.57068,1.0125 -1.62,1.56477 -1.03091,0.53387 -2.35636,0.53387 z m 11.33999,-9.95932 q 1.85932,0 2.94546,1.08613 1.10454,1.06773 1.10454,3.14796 v 5.61477 h -1.76727 v -5.41227 q 0,-1.4175 -0.68114,-2.13546 -0.68113,-0.71795 -1.95136,-0.71795 -1.43591,0 -2.26432,0.84682 -0.82841,0.82841 -0.82841,2.39318 v 5.02568 h -1.76727 v -13.65955 h 1.76727 v 5.28341 q 0.55227,-0.69954 1.43591,-1.08613 0.90205,-0.38659 2.00659,-0.38659 z m 11.5609,9.95932 q -1.45431,0 -2.61409,-0.64432 -1.15977,-0.64432 -1.8225,-1.76727 -0.64432,-1.14137 -0.64432,-2.57728 0,-1.43591 0.64432,-2.55886 0.66273,-1.14137 1.8225,-1.76728 1.15978,-0.64431 2.61409,-0.64431 1.45432,0 2.59569,0.64431 1.15977,0.62591 1.80409,1.76728 0.66273,1.12295 0.66273,2.55886 0,1.43591 -0.66273,2.57728 -0.64432,1.12295 -1.80409,1.76727 -1.14137,0.64432 -2.59569,0.64432 z m 0,-1.54637 q 0.93887,0 1.67523,-0.42341 0.75478,-0.44181 1.17818,-1.215 0.42341,-0.79159 0.42341,-1.80409 0,-1.0125 -0.42341,-1.78568 -0.4234,-0.79159 -1.17818,-1.215 -0.73636,-0.42341 -1.67523,-0.42341 -0.93886,0 -1.69363,0.42341 -0.73637,0.42341 -1.17819,1.215 -0.4234,0.77318 -0.4234,1.78568 0,1.0125 0.4234,1.80409 0.44182,0.77319 1.17819,1.215 0.75477,0.42341 1.69363,0.42341 z"
             id="path11" /></g><text
           xml:space="preserve"
           transform="matrix(0.30632722,0,0,0.27009815,-734.67965,24.623334)"
           id="text8"
           style="font-style:normal;font-variant:normal;font-weight:normal;font-stretch:normal;font-size:64px;font-family:Montserrat;-inkscape-font-specification:'Montserrat, Normal';font-variant-ligatures:normal;font-variant-position:sub;font-variant-caps:normal;font-variant-numeric:normal;font-variant-east-asian:normal;text-align:center;writing-mode:lr-tb;direction:ltr;white-space:pre;shape-inside:url(#rect8);display:inline;opacity:1;fill:#f5f5f5;fill-opacity:1;stroke-width:6.76913;stroke-miterlimit:3.4"><tspan
             x="1729.4461"
             y="188.78683"
             id="tspan1">A</tspan></text><path
           d="m 1585.3756,230.90714 h -23.808 l -4.928,11.2 h -6.592 l 20.288,-44.8 h 6.336 l 20.352,44.8 h -6.72 z m -2.24,-5.12 -9.664,-21.952 -9.664,21.952 z m 34.1121,16.704 q -5.184,0 -9.28,-2.24 -4.032,-2.24 -6.336,-6.144 -2.304,-3.968 -2.304,-8.96 0,-4.992 2.304,-8.896 2.304,-3.968 6.336,-6.144 4.096,-2.24 9.28,-2.24 4.608,0 8.192,1.856 3.648,1.856 5.632,5.376 l -4.672,3.008 q -1.6,-2.432 -3.968,-3.648 -2.368,-1.216 -5.248,-1.216 -3.328,0 -6.016,1.472 -2.624,1.472 -4.16,4.224 -1.472,2.688 -1.472,6.208 0,3.584 1.472,6.336 1.536,2.688 4.16,4.16 2.688,1.472 6.016,1.472 2.88,0 5.248,-1.216 2.368,-1.216 3.968,-3.648 l 4.672,2.944 q -1.984,3.52 -5.632,5.44 -3.584,1.856 -8.192,1.856 z m 35.776,0 q -5.056,0 -9.088,-2.24 -4.032,-2.24 -6.336,-6.144 -2.24,-3.968 -2.24,-8.96 0,-4.992 2.24,-8.896 2.304,-3.968 6.336,-6.144 4.032,-2.24 9.088,-2.24 5.056,0 9.024,2.24 4.032,2.176 6.272,6.144 2.304,3.904 2.304,8.896 0,4.992 -2.304,8.96 -2.24,3.904 -6.272,6.144 -3.968,2.24 -9.024,2.24 z m 0,-5.376 q 3.264,0 5.824,-1.472 2.624,-1.536 4.096,-4.224 1.472,-2.752 1.472,-6.272 0,-3.52 -1.472,-6.208 -1.472,-2.752 -4.096,-4.224 -2.56,-1.472 -5.824,-1.472 -3.264,0 -5.888,1.472 -2.56,1.472 -4.096,4.224 -1.472,2.688 -1.472,6.208 0,3.52 1.472,6.272 1.536,2.688 4.096,4.224 2.624,1.472 5.888,1.472 z m 68.544,-29.248 q 6.4,0 10.112,3.712 3.776,3.712 3.776,11.008 v 19.52 h -6.144 v -18.816 q 0,-4.928 -2.304,-7.424 -2.24,-2.496 -6.464,-2.496 -4.672,0 -7.424,2.944 -2.752,2.88 -2.752,8.32 v 17.472 h -6.144 v -18.816 q 0,-4.928 -2.304,-7.424 -2.24,-2.496 -6.464,-2.496 -4.672,0 -7.424,2.944 -2.752,2.88 -2.752,8.32 v 17.472 h -6.144 v -33.92 h 5.888 v 5.056 q 1.856,-2.624 4.864,-3.968 3.008,-1.408 6.848,-1.408 3.968,0 7.04,1.6 3.072,1.6 4.736,4.672 1.92,-2.944 5.312,-4.608 3.456,-1.664 7.744,-1.664 z m 43.2,0 q 4.928,0 8.832,2.176 3.904,2.176 6.08,6.08 2.24,3.904 2.24,9.024 0,5.12 -2.24,9.088 -2.176,3.904 -6.08,6.08 -3.904,2.176 -8.832,2.176 -3.648,0 -6.72,-1.408 -3.008,-1.408 -5.12,-4.096 v 17.536 h -6.144 v -46.336 h 5.888 v 5.376 q 2.048,-2.816 5.184,-4.224 3.136,-1.472 6.912,-1.472 z m -0.512,29.248 q 3.264,0 5.824,-1.472 2.624,-1.536 4.096,-4.224 1.536,-2.752 1.536,-6.272 0,-3.52 -1.536,-6.208 -1.472,-2.752 -4.096,-4.224 -2.56,-1.472 -5.824,-1.472 -3.2,0 -5.824,1.536 -2.56,1.472 -4.096,4.16 -1.472,2.688 -1.472,6.208 0,3.52 1.472,6.272 1.472,2.688 4.096,4.224 2.624,1.472 5.824,1.472 z m 38.208,-29.248 q 7.04,0 10.752,3.456 3.776,3.456 3.776,10.304 v 20.48 h -5.824 v -4.48 q -1.536,2.368 -4.416,3.648 -2.816,1.216 -6.72,1.216 -5.696,0 -9.152,-2.752 -3.392,-2.752 -3.392,-7.232 0,-4.48 3.264,-7.168 3.264,-2.752 10.368,-2.752 h 9.728 v -1.216 q 0,-3.968 -2.304,-6.08 -2.304,-2.112 -6.784,-2.112 -3.008,0 -5.888,1.024 -2.88,0.96 -4.864,2.624 l -2.56,-4.608 q 2.624,-2.112 6.272,-3.2 3.648,-1.152 7.744,-1.152 z m -1.408,29.888 q 3.52,0 6.08,-1.536 2.56,-1.6 3.712,-4.48 v -4.736 h -9.472 q -7.808,0 -7.808,5.248 0,2.56 1.984,4.032 1.984,1.472 5.504,1.472 z m 45.4399,-29.888 q 6.464,0 10.24,3.776 3.84,3.712 3.84,10.944 v 19.52 h -6.144 v -18.816 q 0,-4.928 -2.368,-7.424 -2.368,-2.496 -6.784,-2.496 -4.992,0 -7.872,2.944 -2.88,2.88 -2.88,8.32 v 17.472 h -6.144 v -33.92 h 5.888 v 5.12 q 1.856,-2.624 4.992,-4.032 3.2,-1.408 7.232,-1.408 z m 2.496,-4.8 q -1.536,0 -2.688,-0.64 -1.088,-0.64 -2.752,-1.92 -0.96,-0.896 -1.664,-1.28 -0.704,-0.448 -1.408,-0.448 -1.408,0 -2.304,1.088 -0.896,1.024 -0.96,2.88 h -3.456 q 0.128,-3.584 1.792,-5.696 1.728,-2.112 4.48,-2.112 1.536,0 2.688,0.704 1.216,0.64 2.752,1.92 1.088,0.896 1.728,1.344 0.64,0.384 1.344,0.384 1.408,0 2.304,-1.024 0.896,-1.024 0.96,-2.816 h 3.456 q -0.128,3.456 -1.856,5.568 -1.664,2.048 -4.416,2.048 z m 35.328,4.8 q 7.04,0 10.752,3.456 3.776,3.456 3.776,10.304 v 20.48 h -5.824 v -4.48 q -1.536,2.368 -4.416,3.648 -2.816,1.216 -6.72,1.216 -5.696,0 -9.152,-2.752 -3.392,-2.752 -3.392,-7.232 0,-4.48 3.264,-7.168 3.264,-2.752 10.368,-2.752 h 9.728 v -1.216 q 0,-3.968 -2.304,-6.08 -2.304,-2.112 -6.784,-2.112 -3.008,0 -5.888,1.024 -2.88,0.96 -4.864,2.624 l -2.56,-4.608 q 2.624,-2.112 6.272,-3.2 3.648,-1.152 7.744,-1.152 z m -1.408,29.888 q 3.52,0 6.08,-1.536 2.56,-1.6 3.712,-4.48 v -4.736 h -9.472 q -7.808,0 -7.808,5.248 0,2.56 1.984,4.032 1.984,1.472 5.504,1.472 z m 59.52,-43.136 v 47.488 h -5.888 v -5.376 q -2.048,2.816 -5.184,4.288 -3.136,1.472 -6.912,1.472 -4.928,0 -8.832,-2.176 -3.904,-2.176 -6.144,-6.08 -2.176,-3.968 -2.176,-9.088 0,-5.12 2.176,-9.024 2.24,-3.904 6.144,-6.08 3.904,-2.176 8.832,-2.176 3.648,0 6.72,1.408 3.072,1.344 5.12,4.032 v -18.688 z m -17.472,42.496 q 3.2,0 5.824,-1.472 2.624,-1.536 4.096,-4.224 1.472,-2.752 1.472,-6.272 0,-3.52 -1.472,-6.208 -1.472,-2.752 -4.096,-4.224 -2.624,-1.472 -5.824,-1.472 -3.264,0 -5.888,1.472 -2.56,1.472 -4.096,4.224 -1.472,2.688 -1.472,6.208 0,3.52 1.472,6.272 1.536,2.688 4.096,4.224 2.624,1.472 5.888,1.472 z m 43.648,5.376 q -5.056,0 -9.088,-2.24 -4.032,-2.24 -6.336,-6.144 -2.24,-3.968 -2.24,-8.96 0,-4.992 2.24,-8.896 2.304,-3.968 6.336,-6.144 4.032,-2.24 9.088,-2.24 5.056,0 9.024,2.24 4.032,2.176 6.272,6.144 2.304,3.904 2.304,8.896 0,4.992 -2.304,8.96 -2.24,3.904 -6.272,6.144 -3.968,2.24 -9.024,2.24 z m 0,-5.376 q 3.264,0 5.824,-1.472 2.624,-1.536 4.096,-4.224 1.472,-2.752 1.472,-6.272 0,-3.52 -1.472,-6.208 -1.472,-2.752 -4.096,-4.224 -2.56,-1.472 -5.824,-1.472 -3.264,0 -5.888,1.472 -2.56,1.472 -4.096,4.224 -1.472,2.688 -1.472,6.208 0,3.52 1.472,6.272 1.536,2.688 4.096,4.224 2.624,1.472 5.888,1.472 z m 75.3279,-42.496 v 47.488 h -5.888 v -5.376 q -2.048,2.816 -5.184,4.288 -3.136,1.472 -6.912,1.472 -4.928,0 -8.832,-2.176 -3.904,-2.176 -6.144,-6.08 -2.176,-3.968 -2.176,-9.088 0,-5.12 2.176,-9.024 2.24,-3.904 6.144,-6.08 3.904,-2.176 8.832,-2.176 3.648,0 6.72,1.408 3.072,1.344 5.12,4.032 v -18.688 z m -17.472,42.496 q 3.2,0 5.824,-1.472 2.624,-1.536 4.096,-4.224 1.472,-2.752 1.472,-6.272 0,-3.52 -1.472,-6.208 -1.472,-2.752 -4.096,-4.224 -2.624,-1.472 -5.824,-1.472 -3.264,0 -5.888,1.472 -2.56,1.472 -4.096,4.224 -1.472,2.688 -1.472,6.208 0,3.52 1.472,6.272 1.536,2.688 4.096,4.224 2.624,1.472 5.888,1.472 z m 59.776,-11.776 q 0,0.704 -0.128,1.856 h -27.52 q 0.576,4.48 3.904,7.232 3.392,2.688 8.384,2.688 6.08,0 9.792,-4.096 l 3.392,3.968 q -2.304,2.688 -5.76,4.096 -3.392,1.408 -7.616,1.408 -5.376,0 -9.536,-2.176 -4.16,-2.24 -6.464,-6.208 -2.24,-3.968 -2.24,-8.96 0,-4.928 2.176,-8.896 2.24,-3.968 6.08,-6.144 3.904,-2.24 8.768,-2.24 4.864,0 8.64,2.24 3.84,2.176 5.952,6.144 2.176,3.968 2.176,9.088 z m -16.768,-12.288 q -4.416,0 -7.424,2.688 -2.944,2.688 -3.456,7.04 h 21.76 q -0.512,-4.288 -3.52,-6.976 -2.944,-2.752 -7.36,-2.752 z m -458.7199,75.136 v 33.92 h -5.824 v -5.12 q -1.856,2.624 -4.928,4.096 -3.008,1.408 -6.592,1.408 -6.784,0 -10.688,-3.712 -3.904,-3.776 -3.904,-11.072 v -19.52 h 6.144 v 18.816 q 0,4.928 2.368,7.488 2.368,2.496 6.784,2.496 4.864,0 7.68,-2.944 2.816,-2.944 2.816,-8.32 v -17.536 z m 29.824,-0.32 q 6.464,0 10.24,3.776 3.84,3.712 3.84,10.944 v 19.52 h -6.144 v -18.816 q 0,-4.928 -2.368,-7.424 -2.368,-2.496 -6.784,-2.496 -4.992,0 -7.872,2.944 -2.88,2.88 -2.88,8.32 v 17.472 h -6.144 v -33.92 h 5.888 v 5.12 q 1.856,-2.624 4.992,-4.032 3.2,-1.408 7.232,-1.408 z m 60.672,0 q 4.928,0 8.832,2.176 3.904,2.176 6.08,6.08 2.24,3.904 2.24,9.024 0,5.12 -2.24,9.088 -2.176,3.904 -6.08,6.08 -3.904,2.176 -8.832,2.176 -3.776,0 -6.912,-1.472 -3.136,-1.472 -5.184,-4.288 v 5.376 h -5.888 v -47.488 h 6.144 v 18.688 q 2.048,-2.688 5.12,-4.032 3.072,-1.408 6.72,-1.408 z m -0.512,29.248 q 3.264,0 5.824,-1.472 2.624,-1.536 4.096,-4.224 1.536,-2.752 1.536,-6.272 0,-3.52 -1.536,-6.208 -1.472,-2.752 -4.096,-4.224 -2.56,-1.472 -5.824,-1.472 -3.2,0 -5.824,1.472 -2.624,1.472 -4.096,4.224 -1.472,2.688 -1.472,6.208 0,3.52 1.472,6.272 1.472,2.688 4.096,4.224 2.624,1.472 5.824,1.472 z m 57.7919,-28.928 v 33.92 h -5.824 v -5.12 q -1.856,2.624 -4.928,4.096 -3.008,1.408 -6.592,1.408 -6.784,0 -10.688,-3.712 -3.904,-3.776 -3.904,-11.072 v -19.52 h 6.144 v 18.816 q 0,4.928 2.368,7.488 2.368,2.496 6.784,2.496 4.864,0 7.68,-2.944 2.816,-2.944 2.816,-8.32 v -17.536 z m 42.368,17.152 q 0,0.704 -0.128,1.856 h -27.52 q 0.576,4.48 3.904,7.232 3.392,2.688 8.384,2.688 6.08,0 9.792,-4.096 l 3.392,3.968 q -2.304,2.688 -5.76,4.096 -3.392,1.408 -7.616,1.408 -5.376,0 -9.536,-2.176 -4.16,-2.24 -6.464,-6.208 -2.24,-3.968 -2.24,-8.96 0,-4.928 2.176,-8.896 2.24,-3.968 6.08,-6.144 3.904,-2.24 8.768,-2.24 4.864,0 8.64,2.24 3.84,2.176 5.952,6.144 2.176,3.968 2.176,9.088 z m -16.768,-12.288 q -4.416,0 -7.424,2.688 -2.944,2.688 -3.456,7.04 h 21.76 q -0.512,-4.288 -3.52,-6.976 -2.944,-2.752 -7.36,-2.752 z m 43.392,-5.184 q 6.464,0 10.24,3.776 3.84,3.712 3.84,10.944 v 19.52 h -6.144 v -18.816 q 0,-4.928 -2.368,-7.424 -2.368,-2.496 -6.784,-2.496 -4.992,0 -7.872,2.944 -2.88,2.88 -2.88,8.32 v 17.472 h -6.144 v -33.92 h 5.888 v 5.12 q 1.856,-2.624 4.992,-4.032 3.2,-1.408 7.232,-1.408 z m 72.1279,23.04 h -23.808 l -4.928,11.2 h -6.592 l 20.288,-44.8 h 6.336 l 20.352,44.8 h -6.72 z m -2.24,-5.12 -9.664,-21.952 -9.664,21.952 z m 29.0561,16.704 q -4.16,0 -8,-1.088 -3.84,-1.152 -6.016,-2.88 l 2.56,-4.864 q 2.24,1.6 5.44,2.56 3.2,0.96 6.464,0.96 8.064,0 8.064,-4.608 0,-1.536 -1.088,-2.432 -1.088,-0.896 -2.752,-1.28 -1.6,-0.448 -4.608,-0.96 -4.096,-0.64 -6.72,-1.472 -2.56,-0.832 -4.416,-2.816 -1.856,-1.984 -1.856,-5.568 0,-4.608 3.84,-7.36 3.84,-2.816 10.304,-2.816 3.392,0 6.784,0.832 3.392,0.832 5.568,2.24 l -2.624,4.864 q -4.16,-2.688 -9.792,-2.688 -3.904,0 -5.952,1.28 -2.048,1.28 -2.048,3.392 0,1.664 1.152,2.624 1.152,0.96 2.816,1.408 1.728,0.448 4.8,1.024 4.096,0.704 6.592,1.536 2.56,0.768 4.352,2.688 1.792,1.92 1.792,5.376 0,4.608 -3.968,7.36 -3.904,2.688 -10.688,2.688 z m 34.688,-34.624 q 7.04,0 10.752,3.456 3.776,3.456 3.776,10.304 v 20.48 h -5.824 v -4.48 q -1.536,2.368 -4.416,3.648 -2.816,1.216 -6.72,1.216 -5.696,0 -9.152,-2.752 -3.392,-2.752 -3.392,-7.232 0,-4.48 3.264,-7.168 3.264,-2.752 10.368,-2.752 h 9.728 v -1.216 q 0,-3.968 -2.304,-6.08 -2.304,-2.112 -6.784,-2.112 -3.008,0 -5.888,1.024 -2.88,0.96 -4.864,2.624 l -2.56,-4.608 q 2.624,-2.112 6.272,-3.2 3.648,-1.152 7.744,-1.152 z m -1.408,29.888 q 3.52,0 6.08,-1.536 2.56,-1.6 3.712,-4.48 v -4.736 h -9.472 q -7.808,0 -7.808,5.248 0,2.56 1.984,4.032 1.984,1.472 5.504,1.472 z m 59.52,-43.136 v 47.488 h -5.888 v -5.376 q -2.048,2.816 -5.184,4.288 -3.136,1.472 -6.912,1.472 -4.928,0 -8.832,-2.176 -3.904,-2.176 -6.144,-6.08 -2.176,-3.968 -2.176,-9.088 0,-5.12 2.176,-9.024 2.24,-3.904 6.144,-6.08 3.904,-2.176 8.832,-2.176 3.648,0 6.72,1.408 3.072,1.344 5.12,4.032 v -18.688 z m -17.472,42.496 q 3.2,0 5.824,-1.472 2.624,-1.536 4.096,-4.224 1.472,-2.752 1.472,-6.272 0,-3.52 -1.472,-6.208 -1.472,-2.752 -4.096,-4.224 -2.624,-1.472 -5.824,-1.472 -3.264,0 -5.888,1.472 -2.56,1.472 -4.096,4.224 -1.472,2.688 -1.472,6.208 0,3.52 1.472,6.272 1.536,2.688 4.096,4.224 2.624,1.472 5.888,1.472 z m 43.6479,5.376 q -5.056,0 -9.088,-2.24 -4.032,-2.24 -6.336,-6.144 -2.24,-3.968 -2.24,-8.96 0,-4.992 2.24,-8.896 2.304,-3.968 6.336,-6.144 4.032,-2.24 9.088,-2.24 5.056,0 9.024,2.24 4.032,2.176 6.272,6.144 2.304,3.904 2.304,8.896 0,4.992 -2.304,8.96 -2.24,3.904 -6.272,6.144 -3.968,2.24 -9.024,2.24 z m 0,-5.376 q 3.264,0 5.824,-1.472 2.624,-1.536 4.096,-4.224 1.472,-2.752 1.472,-6.272 0,-3.52 -1.472,-6.208 -1.472,-2.752 -4.096,-4.224 -2.56,-1.472 -5.824,-1.472 -3.264,0 -5.888,1.472 -2.56,1.472 -4.096,4.224 -1.472,2.688 -1.472,6.208 0,3.52 1.472,6.272 1.536,2.688 4.096,4.224 2.624,1.472 5.888,1.472 z"
           id="text9"
           style="font-size:64px;font-family:Montserrat;-inkscape-font-specification:'Montserrat, Normal';text-align:center;text-anchor:middle;stroke-width:6.76913"
           transform="matrix(0.30632722,0,0,0.27009815,-743.86704,37.224587)"
           aria-label="Acompañado de un buen Asado" /></g><text
         xml:space="preserve"
         transform="matrix(0.26458333,0,0,0.26458333,-141.37345,12.795823)"
         id="text7"
         style="font-style:normal;font-variant:normal;font-weight:normal;font-stretch:normal;font-size:64px;font-family:Montserrat;-inkscape-font-specification:'Montserrat, Normal';font-variant-ligatures:normal;font-variant-position:sub;font-variant-caps:normal;font-variant-numeric:normal;font-variant-east-asian:normal;text-align:center;writing-mode:lr-tb;direction:ltr;white-space:pre;shape-inside:url(#rect7);display:inline;opacity:1;fill:#f5f5f5;fill-opacity:1;stroke-width:6.76913;stroke-miterlimit:3.4"><tspan
           x="2612.6426"
           y="708.65011"
           id="tspan3"><tspan
             dx="0 46.528076 36.031982 40.640015 67.647949 43.328003 38.271973 43.583984 38.463989 43.647949 40.640015 17.215942 43.647949 39.167969 17.215942 43.328003 43.583984 43.647949 43.328003 39.167969 43.583984 17.215942 46.528076 32.063965 38.463989 43.647949"
             id="tspan2">Acompanado de unbuen Asado</tspan></tspan></text></g></g></svg>
