<?xml version="1.0" encoding="UTF-8" standalone="no"?>
<!-- Created with Inkscape (http://www.inkscape.org/) -->

<svg
   width="544.75995mm"
   height="357.0202mm"
   viewBox="0 0 544.75993 357.02019"
   version="1.1"
   id="svg1"
   xml:space="preserve"
   xmlns="http://www.w3.org/2000/svg"
   xmlns:svg="http://www.w3.org/2000/svg"><defs
     id="defs1"><rect
       x="1479.6093"
       y="129.96567"
       width="546.52234"
       height="209.94455"
       id="rect8" /><rect
       x="2612.6433"
       y="473.20834"
       width="243.26907"
       height="176.62003"
       id="rect7" /><marker
       style="overflow:visible"
       id="DartArrow"
       refX="0"
       refY="0"
       orient="auto-start-reverse"
       markerWidth="1"
       markerHeight="1"
       viewBox="0 0 1 1"
       preserveAspectRatio="xMidYMid"><path
         style="fill:context-stroke;fill-rule:evenodd;stroke:none"
         d="M 0,0 5,-5 -12.5,0 5,5 Z"
         transform="scale(-0.5)"
         id="path23" /></marker><marker
       style="overflow:visible"
       id="DartArrow-1"
       refX="0"
       refY="0"
       orient="auto-start-reverse"
       markerWidth="1"
       markerHeight="1"
       viewBox="0 0 1 1"
       preserveAspectRatio="xMidYMid"><path
         style="fill:context-stroke;fill-rule:evenodd;stroke:none"
         d="M 0,0 5,-5 -12.5,0 5,5 Z"
         transform="scale(-0.5)"
         id="path23-2" /></marker><marker
       style="overflow:visible"
       id="DartArrow-1-1"
       refX="0"
       refY="0"
       orient="auto-start-reverse"
       markerWidth="1"
       markerHeight="1"
       viewBox="0 0 1 1"
       preserveAspectRatio="xMidYMid"><path
         style="fill:context-stroke;fill-rule:evenodd;stroke:none"
         d="M 0,0 5,-5 -12.5,0 5,5 Z"
         transform="scale(-0.5)"
         id="path23-2-3" /></marker><marker
       style="overflow:visible"
       id="DartArrow-1-1-2"
       refX="0"
       refY="0"
       orient="auto-start-reverse"
       markerWidth="1"
       markerHeight="1"
       viewBox="0 0 1 1"
       preserveAspectRatio="xMidYMid"><path
         style="fill:context-stroke;fill-rule:evenodd;stroke:none"
         d="M 0,0 5,-5 -12.5,0 5,5 Z"
         transform="scale(-0.5)"
         id="path23-2-3-9" /></marker></defs><g
     id="layer1"
     transform="translate(161.77035,8.4539159)"><g
       id="g2"
       transform="translate(-20.396903,-21.249739)"><rect
         style="opacity:0.807829;fill:#f5f5f5;fill-opacity:1;stroke:none;stroke-width:1.791;stroke-miterlimit:3.4;stroke-opacity:1"
         id="rect143"
         width="99.116333"
         height="87.25029"
         x="228.16635"
         y="165.65833" /><rect
         style="opacity:0.807829;fill:#f5f5f5;fill-opacity:1;stroke:none;stroke-width:1.791;stroke-miterlimit:3.4;stroke-opacity:1"
         id="rect142"
         width="92.136307"
         height="149.3725"
         x="99.035904"
         y="12.795823" /><rect
         style="opacity:0.807829;fill:#f5f5f5;fill-opacity:1;stroke:none;stroke-width:1.791;stroke-miterlimit:3.4;stroke-opacity:1"
         id="rect144"
         width="76.08226"
         height="80.968269"
         x="-22.416504"
         y="183.1084" /><path
         style="opacity:1;fill:none;fill-opacity:1;stroke-width:1.22572;stroke-miterlimit:3.4;stroke-dasharray:none"
         id="path5"
         d="m -24.297151,44.254967 a 8.0817719,9.8468122 0 0 1 7.555136,-10.447875 8.0817719,9.8468122 0 0 1 8.5761211,9.20374 8.0817719,9.8468122 0 0 1 -7.5528041,10.450377 8.0817719,9.8468122 0 0 1 -8.578175,-9.200898 l 8.06542,-0.626076 z" /><path
         style="opacity:1;fill:none;fill-opacity:1;stroke-width:1.22572;stroke-miterlimit:3.4;stroke-dasharray:none"
         id="path6"
         d="M -23.317034,103.80724 A 22.819118,21.134621 0 0 1 -1.9848875,81.382533 22.819118,21.134621 0 0 1 22.23004,101.1369 22.819118,21.134621 0 0 1 0.90447763,123.56698 22.819118,21.134621 0 0 1 -23.316248,103.81871 l 22.77294701,-1.34377 z" /><path
         style="fill:none;fill-opacity:1;stroke:#000000;stroke-width:2.3635;stroke-miterlimit:3.4;stroke-opacity:1;marker-start:url(#DartArrow)"
         d="m 77.147411,131.79211 c -37.938505,5.83204 -39.897133,36.40516 -40.523602,38.37638"
         id="path22" /><path
         style="fill:none;fill-opacity:1;stroke:#000000;stroke-width:2.3635;stroke-miterlimit:3.4;stroke-opacity:1;marker-start:url(#DartArrow-1)"
         d="M 266.38773,125.0144 C 256.92333,87.416906 218.56627,84.156688 216.56276,83.713412"
         id="path22-3" /><path
         style="fill:none;fill-opacity:1;stroke:#000000;stroke-width:2.3635;stroke-miterlimit:3.4;stroke-opacity:1;marker-start:url(#DartArrow-1-1)"
         d="m 241.76214,362.26028 c 33.31487,-19.83091 25.45867,-57.51609 25.30988,-59.56265"
         id="path22-3-7" /><path
         style="fill:none;fill-opacity:1;stroke:#000000;stroke-width:2.3635;stroke-miterlimit:3.4;stroke-opacity:1;marker-start:url(#DartArrow-1-1-2)"
         d="m -46.776492,278.27443 c -8.986448,7.76238 -14.249346,23.04069 -12.429664,28.66221"
         id="path22-3-7-3" /><g
         id="text140-4-4"
         style="font-size:12.7px;font-family:'Bebas Neue';-inkscape-font-specification:'Bebas Neue, Normal';font-variant-position:sub;white-space:pre;inline-size:154.041;opacity:1;fill:#0038a8;stroke-width:1.791;stroke-miterlimit:3.4"
         transform="matrix(0.86372778,0,0,0.97958217,493.18978,-11.324756)"
         aria-label="gepaart mit einer ordentlichen Stärkung - Asado"><path
           d="m -270.75371,298.08427 -5.30923,11.84057 h -1.7121 l -5.32652,-11.84057 h 1.86774 l 4.35806,9.72619 4.39266,-9.72619 z m 6.88298,11.97589 q -1.83315,0 -3.30313,-0.77809 -1.46999,-0.79501 -2.31739,-2.18205 -0.83011,-1.38704 -0.83011,-3.09546 0,-1.70843 0.83011,-3.09547 0.8474,-1.38704 2.31739,-2.16513 1.46998,-0.79501 3.30313,-0.79501 1.81586,0 3.28585,0.79501 1.46998,0.77809 2.30009,2.16513 0.8301,1.37013 0.8301,3.09547 0,1.72534 -0.8301,3.11238 -0.83011,1.37012 -2.30009,2.16513 -1.46999,0.77809 -3.28585,0.77809 z m 0,-1.50544 q 1.33163,0 2.38656,-0.59203 1.07222,-0.59203 1.67751,-1.62385 0.62258,-1.04874 0.62258,-2.33428 0,-1.28555 -0.62258,-2.31737 -0.60529,-1.04874 -1.67751,-1.64077 -1.05493,-0.59203 -2.38656,-0.59203 -1.33163,0 -2.42114,0.59203 -1.07223,0.59203 -1.69481,1.64077 -0.60528,1.03182 -0.60528,2.31737 0,1.28554 0.60528,2.33428 0.62258,1.03182 1.69481,1.62385 1.08951,0.59203 2.42114,0.59203 z m 9.06201,-10.47045 h 1.72939 v 11.84057 h -1.72939 z m 5.3611,0 h 1.72939 v 10.36896 h 6.55439 v 1.47161 h -8.28378 z m 18.03755,8.88043 h -6.43334 l -1.33163,2.96014 h -1.78127 l 5.48217,-11.84057 h 1.7121 l 5.49946,11.84057 h -1.81586 z m -0.60529,-1.35321 -2.61138,-5.80188 -2.61138,5.80188 z m -5.75887,-10.69035 h 2.10986 l 2.35197,2.19897 h -1.55645 z"
           id="text4"
           style="font-size:64px;font-family:Montserrat;-inkscape-font-specification:'Montserrat, Normal';text-align:center;text-anchor:middle;fill:#4a6fa5;fill-opacity:1;stroke-width:1.80899"
           aria-label="VOILÀ" /><path
           d="m -653.83631,343.45504 h -4.83697 v -1.54603 h 11.66919 v 1.54603 h -4.83697 v 10.89329 h -1.99525 z m 12.21335,10.99991 q -1.59217,0 -2.86188,-0.62197 -1.2697,-0.62196 -1.99525,-1.70596 -0.70539,-1.10177 -0.70539,-2.48786 0,-1.3861 0.70539,-2.4701 0.72555,-1.10176 1.99525,-1.70596 1.26971,-0.62196 2.86188,-0.62196 1.59217,0 2.84172,0.62196 1.2697,0.6042 1.9751,1.70596 0.72554,1.084 0.72554,2.4701 0,1.38609 -0.72554,2.48786 -0.7054,1.084 -1.9751,1.70596 -1.24955,0.62197 -2.84172,0.62197 z m 0,-1.49272 q 1.02785,0 1.83402,-0.40872 0.82631,-0.42649 1.28986,-1.17285 0.46354,-0.76413 0.46354,-1.7415 0,-0.97738 -0.46354,-1.72374 -0.46355,-0.76413 -1.28986,-1.17285 -0.80617,-0.40872 -1.83402,-0.40872 -1.02786,0 -1.85417,0.40872 -0.80617,0.40872 -1.28986,1.17285 -0.46355,0.74636 -0.46355,1.72374 0,0.97737 0.46355,1.7415 0.48369,0.74636 1.28986,1.17285 0.82631,0.40872 1.85417,0.40872 z m 21.58499,-8.12109 q 2.01541,0 3.18434,1.03068 1.18909,1.03069 1.18909,3.05652 v 5.41999 h -1.93479 v -5.22452 q 0,-1.36832 -0.72555,-2.06137 -0.70539,-0.69305 -2.03555,-0.69305 -1.47125,0 -2.33787,0.81744 -0.86663,0.79967 -0.86663,2.31016 v 4.85134 h -1.93479 v -5.22452 q 0,-1.36832 -0.72554,-2.06137 -0.7054,-0.69305 -2.03556,-0.69305 -1.47125,0 -2.33787,0.81744 -0.86663,0.79967 -0.86663,2.31016 v 4.85134 h -1.93479 v -9.41834 h 1.85418 v 1.40386 q 0.58446,-0.72859 1.5317,-1.10176 0.94725,-0.39095 2.15649,-0.39095 1.24955,0 2.21694,0.44426 0.9674,0.44426 1.4914,1.29724 0.60463,-0.81744 1.67279,-1.27947 1.08832,-0.46203 2.43864,-0.46203 z m 11.8304,0 q 2.21695,0 3.38588,0.9596 1.18909,0.9596 1.18909,2.86104 v 5.68655 h -1.83402 v -1.24394 q -0.48369,0.65751 -1.39063,1.01292 -0.88677,0.33764 -2.11617,0.33764 -1.7937,0 -2.88202,-0.76413 -1.06817,-0.76413 -1.06817,-2.00806 0,-1.24393 1.02786,-1.99029 1.02786,-0.76413 3.26495,-0.76413 h 3.06341 v -0.33764 q 0,-1.10177 -0.72554,-1.68819 -0.72555,-0.58643 -2.13633,-0.58643 -0.94724,0 -1.85416,0.28433 -0.90694,0.26656 -1.53171,0.72859 l -0.80616,-1.27947 q 0.82631,-0.58643 1.97509,-0.88853 1.14878,-0.31986 2.43863,-0.31986 z m -0.44339,8.29879 q 1.10848,0 1.91464,-0.42649 0.80616,-0.44426 1.16893,-1.24393 v -1.31501 h -2.9828 q -2.45878,0 -2.45878,1.45718 0,0.71081 0.62477,1.11953 0.62478,0.40872 1.73324,0.40872 z m 23.98329,-8.20994 v 9.41834 h -1.83402 v -1.42164 q -0.58446,0.72859 -1.55186,1.13731 -0.94724,0.39095 -2.07586,0.39095 -2.13633,0 -3.36573,-1.03069 -1.2294,-1.04845 -1.2294,-3.07429 v -5.41998 h 1.93479 v 5.22451 q 0,1.36832 0.7457,2.07914 0.7457,0.69305 2.13633,0.69305 1.53171,0 2.41849,-0.81744 0.88677,-0.81744 0.88677,-2.31016 v -4.8691 z m 9.39179,-0.0888 q 2.03556,0 3.22465,1.04845 1.20924,1.03069 1.20924,3.03875 v 5.41999 h -1.93479 v -5.22452 q 0,-1.36832 -0.7457,-2.06137 -0.7457,-0.69305 -2.13633,-0.69305 -1.57201,0 -2.47894,0.81744 -0.90694,0.79967 -0.90694,2.31016 v 4.85134 h -1.93479 v -9.41834 h 1.85418 v 1.42163 q 0.58446,-0.72859 1.57201,-1.11953 1.00771,-0.39095 2.27741,-0.39095 z m 19.10604,0 q 1.55186,0 2.78126,0.60419 1.2294,0.6042 1.91464,1.68819 0.70539,1.084 0.70539,2.50564 0,1.42163 -0.70539,2.5234 -0.68524,1.084 -1.91464,1.68819 -1.2294,0.6042 -2.78126,0.6042 -1.14878,0 -2.11617,-0.39095 -0.94724,-0.39095 -1.61233,-1.13731 v 4.8691 h -1.93479 v -12.8658 h 1.85418 v 1.49272 q 0.64493,-0.7819 1.63247,-1.17285 0.98755,-0.40872 2.17664,-0.40872 z m -0.16123,8.12109 q 1.02786,0 1.83402,-0.40872 0.82631,-0.42649 1.28986,-1.17285 0.48369,-0.76413 0.48369,-1.7415 0,-0.97738 -0.48369,-1.72374 -0.46355,-0.76413 -1.28986,-1.17285 -0.80616,-0.40872 -1.83402,-0.40872 -1.0077,0 -1.83402,0.42649 -0.80616,0.40872 -1.28986,1.15508 -0.46354,0.74636 -0.46354,1.72374 0,0.97737 0.46354,1.7415 0.46354,0.74636 1.28986,1.17285 0.82632,0.40872 1.83402,0.40872 z m 18.19908,-8.03224 v 9.41834 h -1.83402 v -1.42164 q -0.58447,0.72859 -1.55186,1.13731 -0.94724,0.39095 -2.07587,0.39095 -2.13633,0 -3.36573,-1.03069 -1.2294,-1.04845 -1.2294,-3.07429 v -5.41998 h 1.93479 v 5.22451 q 0,1.36832 0.7457,2.07914 0.7457,0.69305 2.13633,0.69305 1.53171,0 2.41849,-0.81744 0.88678,-0.81744 0.88678,-2.31016 v -4.8691 z m 9.39178,-0.0888 q 2.03556,0 3.22465,1.04845 1.20925,1.03069 1.20925,3.03875 v 5.41999 h -1.93479 v -5.22452 q 0,-1.36832 -0.7457,-2.06137 -0.7457,-0.69305 -2.13633,-0.69305 -1.57202,0 -2.47895,0.81744 -0.90693,0.79967 -0.90693,2.31016 v 4.85134 h -1.93479 v -9.41834 h 1.85417 v 1.42163 q 0.58447,-0.72859 1.57202,-1.11953 1.0077,-0.39095 2.2774,-0.39095 z m 0.78601,-1.33279 q -0.4837,0 -0.84647,-0.1777 -0.34262,-0.17771 -0.86662,-0.53312 -0.30231,-0.24878 -0.52401,-0.35541 -0.22169,-0.12439 -0.44339,-0.12439 -0.44339,0 -0.72554,0.3021 -0.28216,0.28433 -0.30231,0.79967 h -1.08832 q 0.0403,-0.99515 0.56431,-1.58157 0.54416,-0.58643 1.41078,-0.58643 0.4837,0 0.84647,0.19548 0.38293,0.1777 0.86663,0.53311 0.34262,0.24879 0.54416,0.37318 0.20154,0.10663 0.42323,0.10663 0.44339,0 0.72555,-0.28433 0.28216,-0.28433 0.30231,-0.7819 h 1.08832 q -0.0403,0.9596 -0.58447,1.54603 -0.524,0.56865 -1.39063,0.56865 z m 11.12504,1.33279 q 2.21694,0 3.38588,0.9596 1.18909,0.9596 1.18909,2.86104 v 5.68655 h -1.83402 v -1.24394 q -0.4837,0.65751 -1.39063,1.01292 -0.88678,0.33764 -2.11618,0.33764 -1.79371,0 -2.88203,-0.76413 -1.06816,-0.76413 -1.06816,-2.00806 0,-1.24393 1.02786,-1.99029 1.02785,-0.76413 3.26495,-0.76413 h 3.06342 v -0.33764 q 0,-1.10177 -0.72555,-1.68819 -0.72554,-0.58643 -2.13633,-0.58643 -0.94724,0 -1.85417,0.28433 -0.90693,0.26656 -1.53171,0.72859 l -0.80616,-1.27947 q 0.82632,-0.58643 1.9751,-0.88853 1.14878,-0.31986 2.43864,-0.31986 z m -0.44339,8.29879 q 1.10847,0 1.91463,-0.42649 0.80617,-0.44426 1.16894,-1.24393 v -1.31501 h -2.9828 q -2.45879,0 -2.45879,1.45718 0,0.71081 0.62477,1.11953 0.62478,0.40872 1.73325,0.40872 z m 18.74327,-11.97728 v 13.18568 h -1.85418 v -1.49272 q -0.64493,0.7819 -1.63247,1.19062 -0.98755,0.40872 -2.17664,0.40872 -1.55186,0 -2.78126,-0.6042 -1.2294,-0.60419 -1.93479,-1.68819 -0.68524,-1.10177 -0.68524,-2.5234 0,-1.42164 0.68524,-2.50564 0.70539,-1.08399 1.93479,-1.68819 1.2294,-0.60419 2.78126,-0.60419 1.14878,0 2.11617,0.39095 0.9674,0.37317 1.61233,1.11953 v -5.18897 z m -5.50206,11.79958 q 1.0077,0 1.83402,-0.40872 0.82632,-0.42649 1.28986,-1.17285 0.46354,-0.76413 0.46354,-1.7415 0,-0.97738 -0.46354,-1.72374 -0.46354,-0.76413 -1.28986,-1.17285 -0.82632,-0.40872 -1.83402,-0.40872 -1.02786,0 -1.85417,0.40872 -0.80616,0.40872 -1.28986,1.17285 -0.46354,0.74636 -0.46354,1.72374 0,0.97737 0.46354,1.7415 0.4837,0.74636 1.28986,1.17285 0.82631,0.40872 1.85417,0.40872 z m 13.74506,1.49272 q -1.59217,0 -2.86187,-0.62197 -1.26971,-0.62196 -1.99525,-1.70596 -0.70539,-1.10177 -0.70539,-2.48786 0,-1.3861 0.70539,-2.4701 0.72554,-1.10176 1.99525,-1.70596 1.2697,-0.62196 2.86187,-0.62196 1.59217,0 2.84172,0.62196 1.26971,0.6042 1.9751,1.70596 0.72555,1.084 0.72555,2.4701 0,1.38609 -0.72555,2.48786 -0.70539,1.084 -1.9751,1.70596 -1.24955,0.62197 -2.84172,0.62197 z m 0,-1.49272 q 1.02786,0 1.83402,-0.40872 0.82632,-0.42649 1.28986,-1.17285 0.46354,-0.76413 0.46354,-1.7415 0,-0.97738 -0.46354,-1.72374 -0.46354,-0.76413 -1.28986,-1.17285 -0.80616,-0.40872 -1.83402,-0.40872 -1.02785,0 -1.85417,0.40872 -0.80616,0.40872 -1.28986,1.17285 -0.46354,0.74636 -0.46354,1.72374 0,0.97737 0.46354,1.7415 0.4837,0.74636 1.28986,1.17285 0.82632,0.40872 1.85417,0.40872 z m 23.72129,-11.79958 v 13.18568 h -1.85417 v -1.49272 q -0.64493,0.7819 -1.63248,1.19062 -0.98755,0.40872 -2.17664,0.40872 -1.55186,0 -2.78126,-0.6042 -1.22939,-0.60419 -1.93479,-1.68819 -0.68523,-1.10177 -0.68523,-2.5234 0,-1.42164 0.68523,-2.50564 0.7054,-1.08399 1.93479,-1.68819 1.2294,-0.60419 2.78126,-0.60419 1.14878,0 2.11618,0.39095 0.96739,0.37317 1.61232,1.11953 v -5.18897 z m -5.50206,11.79958 q 1.00771,0 1.83402,-0.40872 0.82632,-0.42649 1.28986,-1.17285 0.46355,-0.76413 0.46355,-1.7415 0,-0.97738 -0.46355,-1.72374 -0.46354,-0.76413 -1.28986,-1.17285 -0.82631,-0.40872 -1.83402,-0.40872 -1.02785,0 -1.85417,0.40872 -0.80616,0.40872 -1.28986,1.17285 -0.46354,0.74636 -0.46354,1.72374 0,0.97737 0.46354,1.7415 0.4837,0.74636 1.28986,1.17285 0.82632,0.40872 1.85417,0.40872 z m 18.82389,-3.26976 q 0,0.19547 -0.0403,0.51534 h -8.66624 q 0.18138,1.24393 1.2294,2.00806 1.06816,0.74636 2.64018,0.74636 1.91463,0 3.08357,-1.13731 l 1.06816,1.10177 q -0.72555,0.74636 -1.81386,1.13731 -1.06817,0.39095 -2.39834,0.39095 -1.69294,0 -3.00295,-0.6042 -1.31001,-0.62196 -2.03556,-1.72373 -0.70539,-1.10177 -0.70539,-2.48786 0,-1.36833 0.68524,-2.4701 0.70539,-1.10176 1.91463,-1.70596 1.2294,-0.62196 2.76111,-0.62196 1.5317,0 2.72079,0.62196 1.20925,0.6042 1.87433,1.70596 0.68524,1.10177 0.68524,2.52341 z m -5.28036,-3.41193 q -1.39063,0 -2.33787,0.74636 -0.92709,0.74636 -1.08832,1.95475 h 6.85238 q -0.16124,-1.19062 -1.10848,-1.93698 -0.92708,-0.76413 -2.31771,-0.76413 z m -134.90105,17.09517 h 1.93479 v 13.18568 h -1.93479 z m 9.51268,3.67849 q 2.21695,0 3.38588,0.9596 1.18909,0.9596 1.18909,2.86104 v 5.68655 h -1.83402 v -1.24394 q -0.4837,0.65751 -1.39063,1.01292 -0.88678,0.33764 -2.11617,0.33764 -1.79371,0 -2.88203,-0.76413 -1.06817,-0.76413 -1.06817,-2.00806 0,-1.24393 1.02786,-1.99029 1.02786,-0.76413 3.26496,-0.76413 h 3.06341 v -0.33764 q 0,-1.10177 -0.72554,-1.68819 -0.72555,-0.58643 -2.13633,-0.58643 -0.94724,0 -1.85418,0.28433 -0.90693,0.26656 -1.5317,0.72859 l -0.80617,-1.27947 q 0.82632,-0.58643 1.9751,-0.88853 1.14878,-0.31986 2.43864,-0.31986 z m -0.44339,8.2988 q 1.10847,0 1.91464,-0.4265 0.80616,-0.44426 1.16893,-1.24393 v -1.31501 h -2.9828 q -2.45879,0 -2.45879,1.45718 0,0.71081 0.62477,1.11954 0.62478,0.40872 1.73325,0.40872 z m 18.74327,-11.97729 v 13.18568 h -1.85417 v -1.49272 q -0.64493,0.7819 -1.63248,1.19062 -0.98755,0.40872 -2.17664,0.40872 -1.55186,0 -2.78126,-0.6042 -1.2294,-0.60419 -1.93479,-1.68819 -0.68524,-1.10177 -0.68524,-2.5234 0,-1.42164 0.68524,-2.50564 0.70539,-1.08399 1.93479,-1.68819 1.2294,-0.60419 2.78126,-0.60419 1.14878,0 2.11618,0.39095 0.96739,0.37318 1.61232,1.11953 v -5.18897 z m -5.50206,11.79958 q 1.00771,0 1.83402,-0.40872 0.82632,-0.42649 1.28986,-1.17285 0.46354,-0.76413 0.46354,-1.7415 0,-0.97738 -0.46354,-1.72374 -0.46354,-0.76413 -1.28986,-1.17285 -0.82631,-0.40872 -1.83402,-0.40872 -1.02785,0 -1.85417,0.40872 -0.80616,0.40872 -1.28986,1.17285 -0.46354,0.74636 -0.46354,1.72374 0,0.97737 0.46354,1.7415 0.4837,0.74636 1.28986,1.17285 0.82632,0.40872 1.85417,0.40872 z m 11.02427,-6.45067 q 0.50385,-0.81744 1.4914,-1.24393 0.98755,-0.42649 2.39833,-0.42649 v 1.65265 q -0.16123,-0.0178 -0.44339,-0.0178 -1.57201,0 -2.47895,0.83521 -0.88677,0.81744 -0.88677,2.3457 v 4.6914 h -1.93479 v -9.41834 h 1.85417 z m 6.26791,-1.58157 h 1.93479 v 9.41834 h -1.93479 z m 0.96739,-1.81259 q -0.56431,0 -0.94724,-0.31987 -0.36277,-0.31986 -0.36277,-0.7819 0,-0.46203 0.36277,-0.7819 0.38293,-0.33763 0.94724,-0.33763 0.56432,0 0.92709,0.31986 0.38293,0.3021 0.38293,0.76413 0,0.47981 -0.38293,0.81744 -0.36277,0.31987 -0.92709,0.31987 z m 4.65556,-1.95475 h 1.93479 v 13.18568 h -1.93479 z m 5.62298,0 h 1.93479 v 13.18568 h -1.93479 z m 10.19792,13.2923 q -1.59217,0 -2.86188,-0.62197 -1.2697,-0.62196 -1.99525,-1.70596 -0.70539,-1.10177 -0.70539,-2.48786 0,-1.3861 0.70539,-2.4701 0.72555,-1.10176 1.99525,-1.70596 1.26971,-0.62196 2.86188,-0.62196 1.59217,0 2.84172,0.62196 1.2697,0.6042 1.97509,1.70596 0.72555,1.084 0.72555,2.4701 0,1.38609 -0.72555,2.48786 -0.70539,1.084 -1.97509,1.70596 -1.24955,0.62197 -2.84172,0.62197 z m 0,-1.49272 q 1.02785,0 1.83401,-0.40872 0.82632,-0.42649 1.28986,-1.17285 0.46355,-0.76413 0.46355,-1.7415 0,-0.97738 -0.46355,-1.72374 -0.46354,-0.76413 -1.28986,-1.17285 -0.80616,-0.40872 -1.83401,-0.40872 -1.02786,0 -1.85418,0.40872 -0.80616,0.40872 -1.28986,1.17285 -0.46354,0.74636 -0.46354,1.72374 0,0.97737 0.46354,1.7415 0.4837,0.74636 1.28986,1.17285 0.82632,0.40872 1.85418,0.40872 z m 11.2863,1.49272 q -1.31002,0 -2.51926,-0.3021 -1.20924,-0.31987 -1.89448,-0.79967 l 0.80616,-1.35055 q 0.70539,0.44426 1.7131,0.71081 1.0077,0.26656 2.03555,0.26656 2.53942,0 2.53942,-1.27947 0,-0.42649 -0.34262,-0.67528 -0.34262,-0.24878 -0.86663,-0.35541 -0.50385,-0.12439 -1.45109,-0.26655 -1.28986,-0.17771 -2.11617,-0.40872 -0.80617,-0.23102 -1.39063,-0.7819 -0.58447,-0.55089 -0.58447,-1.54603 0,-1.27947 1.20924,-2.0436 1.20924,-0.7819 3.2448,-0.7819 1.06817,0 2.13633,0.23101 1.06817,0.23102 1.75341,0.62197 l -0.82632,1.35055 q -1.31001,-0.74636 -3.08357,-0.74636 -1.2294,0 -1.87433,0.35541 -0.64493,0.35541 -0.64493,0.94184 0,0.46203 0.36278,0.72858 0.36277,0.26656 0.88677,0.39095 0.54416,0.1244 1.51156,0.28433 1.28986,0.19548 2.07587,0.42649 0.80616,0.21325 1.37047,0.74636 0.56431,0.53311 0.56431,1.49272 0,1.27947 -1.24955,2.0436 -1.22939,0.74636 -3.36572,0.74636 z"
           id="text5"
           style="font-size:64px;font-family:Montserrat;-inkscape-font-specification:'Montserrat, Normal';text-align:center;text-anchor:middle;fill:#4a6fa5;fill-opacity:1;stroke-width:2.00163"
           aria-label="Toma un puñado de ladrillos" /><g
           id="text6"
           style="font-size:18.4091px;font-family:Montserrat;-inkscape-font-specification:'Montserrat, Normal';text-align:center;text-anchor:middle;fill:#4a6fa5;fill-opacity:1;stroke-width:1.94709"
           transform="matrix(0.95189203,0,0,0.83931253,-66.368804,17.029349)"
           aria-label="La idea adecuada y un &#10;trabajo bien hecho"><path
             d="m -689.86804,131.23886 h 1.84091 v 11.28478 h 6.97705 v 1.60159 h -8.81796 z m 14.28546,3.0375 q 2.02501,0 3.09273,0.99409 1.08614,0.99409 1.08614,2.96387 v 5.89091 h -1.67523 v -1.28864 q -0.44182,0.68114 -1.27023,1.04932 -0.81,0.34977 -1.93295,0.34977 -1.63841,0 -2.6325,-0.79159 -0.97568,-0.79159 -0.97568,-2.08023 0,-1.28863 0.93886,-2.06182 0.93886,-0.79159 2.98227,-0.79159 h 2.79819 v -0.34977 q 0,-1.14136 -0.66273,-1.74886 -0.66273,-0.6075 -1.95137,-0.6075 -0.86522,0 -1.69363,0.29454 -0.82841,0.27614 -1.39909,0.75477 l -0.73637,-1.32545 q 0.75477,-0.6075 1.80409,-0.92046 1.04932,-0.33136 2.2275,-0.33136 z m -0.405,8.59705 q 1.0125,0 1.74887,-0.44182 0.73636,-0.46023 1.06773,-1.28864 v -1.36227 h -2.72455 q -2.24591,0 -2.24591,1.50955 0,0.73636 0.57068,1.15977 0.57068,0.42341 1.58318,0.42341 z m 12.81271,-8.505 h 1.76728 v 9.75682 h -1.76728 z m 0.88364,-1.87773 q -0.51546,0 -0.86523,-0.33137 -0.33136,-0.33136 -0.33136,-0.81 0,-0.47863 0.33136,-0.81 0.34977,-0.34977 0.86523,-0.34977 0.51545,0 0.84682,0.33136 0.34977,0.31296 0.34977,0.7916 0,0.49704 -0.34977,0.84681 -0.33137,0.33137 -0.84682,0.33137 z m 13.45704,-2.025 v 13.65955 h -1.69364 v -1.54637 q -0.58909,0.81 -1.49114,1.23341 -0.90204,0.42341 -1.98818,0.42341 -1.4175,0 -2.54045,-0.62591 -1.12296,-0.62591 -1.76728,-1.74886 -0.62591,-1.14136 -0.62591,-2.61409 0,-1.47273 0.62591,-2.59569 0.64432,-1.12295 1.76728,-1.74886 1.12295,-0.62591 2.54045,-0.62591 1.04932,0 1.93296,0.405 0.88363,0.38659 1.47272,1.15977 v -5.37545 z m -5.02569,12.22364 q 0.92046,0 1.67523,-0.42341 0.75478,-0.44182 1.17818,-1.215 0.42341,-0.79159 0.42341,-1.80409 0,-1.0125 -0.42341,-1.78569 -0.4234,-0.79159 -1.17818,-1.215 -0.75477,-0.42341 -1.67523,-0.42341 -0.93886,0 -1.69363,0.42341 -0.73637,0.42341 -1.17819,1.215 -0.4234,0.77319 -0.4234,1.78569 0,1.0125 0.4234,1.80409 0.44182,0.77318 1.17819,1.215 0.75477,0.42341 1.69363,0.42341 z m 17.19409,-3.38728 q 0,0.2025 -0.0368,0.53387 h -7.91591 q 0.16568,1.28864 1.12295,2.08023 0.97569,0.77318 2.4116,0.77318 1.74886,0 2.81659,-1.17818 l 0.97568,1.14136 q -0.66273,0.77318 -1.65682,1.17818 -0.97568,0.405 -2.19068,0.405 -1.54637,0 -2.74296,-0.62591 -1.19659,-0.64431 -1.85932,-1.78568 -0.64431,-1.14136 -0.64431,-2.57727 0,-1.4175 0.6259,-2.55887 0.64432,-1.14136 1.74887,-1.76727 1.12295,-0.64432 2.52205,-0.64432 1.39909,0 2.48522,0.64432 1.10455,0.62591 1.71205,1.76727 0.62591,1.14137 0.62591,2.61409 z m -4.82318,-3.53454 q -1.27023,0 -2.13546,0.77318 -0.84682,0.77318 -0.99409,2.025 h 6.25909 q -0.14727,-1.23341 -1.0125,-2.00659 -0.84682,-0.79159 -2.11704,-0.79159 z m 10.54841,-1.49114 q 2.025,0 3.09273,0.99409 1.08614,0.99409 1.08614,2.96387 v 5.89091 h -1.67523 v -1.28864 q -0.44182,0.68114 -1.27023,1.04932 -0.81,0.34977 -1.93295,0.34977 -1.63841,0 -2.63251,-0.79159 -0.97568,-0.79159 -0.97568,-2.08023 0,-1.28863 0.93887,-2.06182 0.93886,-0.79159 2.98227,-0.79159 h 2.79818 v -0.34977 q 0,-1.14136 -0.66272,-1.74886 -0.66273,-0.6075 -1.95137,-0.6075 -0.86523,0 -1.69364,0.29454 -0.8284,0.27614 -1.39909,0.75477 l -0.73636,-1.32545 q 0.75477,-0.6075 1.80409,-0.92046 1.04932,-0.33136 2.2275,-0.33136 z m -0.405,8.59705 q 1.0125,0 1.74887,-0.44182 0.73636,-0.46023 1.06772,-1.28864 v -1.36227 h -2.72454 q -2.24591,0 -2.24591,1.50955 0,0.73636 0.57068,1.15977 0.57068,0.42341 1.58318,0.42341 z m 16.36567,-8.59705 q 2.025,0 3.09273,0.99409 1.08613,0.99409 1.08613,2.96387 v 5.89091 h -1.67522 v -1.28864 q -0.44182,0.68114 -1.27023,1.04932 -0.81,0.34977 -1.93296,0.34977 -1.63841,0 -2.6325,-0.79159 -0.97568,-0.79159 -0.97568,-2.08023 0,-1.28863 0.93886,-2.06182 0.93887,-0.79159 2.98228,-0.79159 h 2.79818 v -0.34977 q 0,-1.14136 -0.66273,-1.74886 -0.66272,-0.6075 -1.95136,-0.6075 -0.86523,0 -1.69364,0.29454 -0.82841,0.27614 -1.39909,0.75477 l -0.73636,-1.32545 q 0.75477,-0.6075 1.80409,-0.92046 1.04932,-0.33136 2.2275,-0.33136 z m -0.405,8.59705 q 1.0125,0 1.74886,-0.44182 0.73637,-0.46023 1.06773,-1.28864 v -1.36227 h -2.72455 q -2.24591,0 -2.24591,1.50955 0,0.73636 0.57069,1.15977 0.57068,0.42341 1.58318,0.42341 z m 17.12046,-12.40773 v 13.65955 h -1.69364 v -1.54637 q -0.58909,0.81 -1.49114,1.23341 -0.90204,0.42341 -1.98818,0.42341 -1.4175,0 -2.54046,-0.62591 -1.12295,-0.62591 -1.76727,-1.74886 -0.62591,-1.14136 -0.62591,-2.61409 0,-1.47273 0.62591,-2.59569 0.64432,-1.12295 1.76727,-1.74886 1.12296,-0.62591 2.54046,-0.62591 1.04932,0 1.93296,0.405 0.88363,0.38659 1.47272,1.15977 v -5.37545 z m -5.02569,12.22364 q 0.92046,0 1.67523,-0.42341 0.75477,-0.44182 1.17818,-1.215 0.42341,-0.79159 0.42341,-1.80409 0,-1.0125 -0.42341,-1.78569 -0.42341,-0.79159 -1.17818,-1.215 -0.75477,-0.42341 -1.67523,-0.42341 -0.93886,0 -1.69363,0.42341 -0.73637,0.42341 -1.17819,1.215 -0.42341,0.77319 -0.42341,1.78569 0,1.0125 0.42341,1.80409 0.44182,0.77318 1.17819,1.215 0.75477,0.42341 1.69363,0.42341 z m 17.19409,-3.38728 q 0,0.2025 -0.0368,0.53387 h -7.91591 q 0.16568,1.28864 1.12295,2.08023 0.97569,0.77318 2.4116,0.77318 1.74886,0 2.81659,-1.17818 l 0.97568,1.14136 q -0.66273,0.77318 -1.65682,1.17818 -0.97568,0.405 -2.19068,0.405 -1.54637,0 -2.74296,-0.62591 -1.19659,-0.64431 -1.85932,-1.78568 -0.64432,-1.14136 -0.64432,-2.57727 0,-1.4175 0.62591,-2.55887 0.64432,-1.14136 1.74887,-1.76727 1.12295,-0.64432 2.52205,-0.64432 1.39909,0 2.48522,0.64432 1.10455,0.62591 1.71205,1.76727 0.62591,1.14137 0.62591,2.61409 z m -4.82318,-3.53454 q -1.27023,0 -2.13546,0.77318 -0.84682,0.77318 -0.99409,2.025 h 6.25909 q -0.14727,-1.23341 -1.0125,-2.00659 -0.84682,-0.79159 -2.11704,-0.79159 z m 11.52408,8.46818 q -1.49114,0 -2.66932,-0.64432 -1.15977,-0.64431 -1.8225,-1.76727 -0.66273,-1.14136 -0.66273,-2.57727 0,-1.43591 0.66273,-2.55887 0.66273,-1.14136 1.8225,-1.76727 1.17818,-0.64432 2.66932,-0.64432 1.32546,0 2.35636,0.53386 1.04932,0.53387 1.62001,1.54637 l -1.34387,0.86523 q -0.46023,-0.69955 -1.14136,-1.04932 -0.68114,-0.34978 -1.50955,-0.34978 -0.95727,0 -1.73045,0.42341 -0.75478,0.42341 -1.1966,1.215 -0.42341,0.77319 -0.42341,1.78569 0,1.03091 0.42341,1.8225 0.44182,0.77318 1.1966,1.19659 0.77318,0.42341 1.73045,0.42341 0.82841,0 1.50955,-0.34977 0.68113,-0.34978 1.14136,-1.04932 l 1.34387,0.84682 q -0.57069,1.0125 -1.62001,1.56477 -1.0309,0.53386 -2.35636,0.53386 z m 15.35317,-9.86727 v 9.75682 h -1.67522 v -1.47273 q -0.53387,0.75477 -1.4175,1.17818 -0.86523,0.405 -1.89614,0.405 -1.95137,0 -3.07432,-1.06772 -1.12296,-1.08614 -1.12296,-3.18478 v -5.61477 h 1.76728 v 5.41227 q 0,1.4175 0.68113,2.15387 0.68114,0.71795 1.95137,0.71795 1.39909,0 2.20909,-0.84682 0.81,-0.84682 0.81,-2.39318 v -5.04409 z m 6.92183,-0.0921 q 2.025,0 3.09273,0.99409 1.08614,0.99409 1.08614,2.96387 v 5.89091 h -1.67523 v -1.28864 q -0.44182,0.68114 -1.27023,1.04932 -0.81,0.34977 -1.93295,0.34977 -1.63841,0 -2.6325,-0.79159 -0.97569,-0.79159 -0.97569,-2.08023 0,-1.28863 0.93887,-2.06182 0.93886,-0.79159 2.98227,-0.79159 h 2.79818 v -0.34977 q 0,-1.14136 -0.66272,-1.74886 -0.66273,-0.6075 -1.95137,-0.6075 -0.86523,0 -1.69363,0.29454 -0.82841,0.27614 -1.3991,0.75477 l -0.73636,-1.32545 q 0.75477,-0.6075 1.80409,-0.92046 1.04932,-0.33136 2.2275,-0.33136 z m -0.405,8.59705 q 1.0125,0 1.74887,-0.44182 0.73636,-0.46023 1.06772,-1.28864 v -1.36227 h -2.72454 q -2.24591,0 -2.24591,1.50955 0,0.73636 0.57068,1.15977 0.57068,0.42341 1.58318,0.42341 z m 17.12045,-12.40773 v 13.65955 h -1.69363 v -1.54637 q -0.58909,0.81 -1.49114,1.23341 -0.90205,0.42341 -1.98818,0.42341 -1.4175,0 -2.54046,-0.62591 -1.12295,-0.62591 -1.76727,-1.74886 -0.62591,-1.14136 -0.62591,-2.61409 0,-1.47273 0.62591,-2.59569 0.64432,-1.12295 1.76727,-1.74886 1.12296,-0.62591 2.54046,-0.62591 1.04932,0 1.93295,0.405 0.88364,0.38659 1.47273,1.15977 v -5.37545 z m -5.02568,12.22364 q 0.92045,0 1.67523,-0.42341 0.75477,-0.44182 1.17818,-1.215 0.42341,-0.79159 0.42341,-1.80409 0,-1.0125 -0.42341,-1.78569 -0.42341,-0.79159 -1.17818,-1.215 -0.75478,-0.42341 -1.67523,-0.42341 -0.93886,0 -1.69364,0.42341 -0.73636,0.42341 -1.17818,1.215 -0.42341,0.77319 -0.42341,1.78569 0,1.0125 0.42341,1.80409 0.44182,0.77318 1.17818,1.215 0.75478,0.42341 1.69364,0.42341 z m 11.92908,-8.41296 q 2.025,0 3.09273,0.99409 1.08614,0.99409 1.08614,2.96387 v 5.89091 h -1.67523 v -1.28864 q -0.44182,0.68114 -1.27023,1.04932 -0.81,0.34977 -1.93295,0.34977 -1.63841,0 -2.6325,-0.79159 -0.97569,-0.79159 -0.97569,-2.08023 0,-1.28863 0.93887,-2.06182 0.93886,-0.79159 2.98227,-0.79159 h 2.79819 v -0.34977 q 0,-1.14136 -0.66273,-1.74886 -0.66273,-0.6075 -1.95137,-0.6075 -0.86522,0 -1.69363,0.29454 -0.82841,0.27614 -1.3991,0.75477 l -0.73636,-1.32545 q 0.75477,-0.6075 1.80409,-0.92046 1.04932,-0.33136 2.2275,-0.33136 z m -0.405,8.59705 q 1.0125,0 1.74887,-0.44182 0.73636,-0.46023 1.06773,-1.28864 v -1.36227 h -2.72455 q -2.24591,0 -2.24591,1.50955 0,0.73636 0.57068,1.15977 0.57068,0.42341 1.58318,0.42341 z m 21.44658,-8.505 -4.73114,10.7325 q -0.62591,1.49114 -1.47273,2.09864 -0.82841,0.6075 -2.00659,0.6075 -0.71796,0 -1.39909,-0.23932 -0.66273,-0.22091 -1.10455,-0.66273 l 0.75477,-1.32545 q 0.75478,0.71795 1.74887,0.71795 0.64432,0 1.06773,-0.34977 0.44182,-0.33136 0.79159,-1.15977 l 0.31295,-0.68114 -4.30773,-9.73841 h 1.84091 l 3.40569,7.80545 3.36886,-7.80545 z m 15.70295,0 v 9.75682 h -1.67523 v -1.47273 q -0.53387,0.75477 -1.4175,1.17818 -0.86523,0.405 -1.89614,0.405 -1.95136,0 -3.07432,-1.06772 -1.12295,-1.08614 -1.12295,-3.18478 v -5.61477 h 1.76727 v 5.41227 q 0,1.4175 0.68114,2.15387 0.68113,0.71795 1.95136,0.71795 1.39909,0 2.20909,-0.84682 0.81,-0.84682 0.81,-2.39318 v -5.04409 z m 8.57864,-0.0921 q 1.85932,0 2.94546,1.08614 1.10455,1.06773 1.10455,3.14795 v 5.61478 h -1.76728 v -5.41228 q 0,-1.4175 -0.68113,-2.13545 -0.68114,-0.71796 -1.95137,-0.71796 -1.43591,0 -2.26432,0.84682 -0.82841,0.82841 -0.82841,2.39318 v 5.02569 h -1.76727 v -9.75682 h 1.69364 v 1.47272 q 0.53386,-0.75477 1.43591,-1.15977 0.92045,-0.405 2.08022,-0.405 z"
             id="path10"
             style="fill:#4a6fa5;fill-opacity:1" /><path
             d="m -665.69694,166.56592 q -0.38659,0.33137 -0.95727,0.51546 -0.57068,0.16568 -1.17818,0.16568 -1.47273,0 -2.28273,-0.79159 -0.81,-0.79159 -0.81,-2.26432 v -5.35705 h -1.65682 v -1.45432 h 1.65682 v -2.13545 h 1.76727 v 2.13545 h 2.79818 v 1.45432 h -2.79818 v 5.28341 q 0,0.79159 0.38659,1.215 0.405,0.42341 1.14137,0.42341 0.81,0 1.38068,-0.46023 z m 3.82909,-7.54773 q 0.46022,-0.84682 1.36227,-1.28864 0.90205,-0.44181 2.19068,-0.44181 v 1.71204 q -0.14727,-0.0184 -0.405,-0.0184 -1.43591,0 -2.26432,0.86523 -0.81,0.84682 -0.81,2.43 v 4.86 h -1.76727 v -9.75682 h 1.69364 z m 9.25978,-1.73045 q 2.025,0 3.09273,0.99409 1.08614,0.99409 1.08614,2.96386 v 5.89091 h -1.67523 v -1.28863 q -0.44182,0.68113 -1.27023,1.04932 -0.81,0.34977 -1.93295,0.34977 -1.63841,0 -2.63251,-0.79159 -0.97568,-0.79159 -0.97568,-2.08023 0,-1.28864 0.93887,-2.06182 0.93886,-0.79159 2.98227,-0.79159 h 2.79818 v -0.34977 q 0,-1.14137 -0.66272,-1.74887 -0.66273,-0.6075 -1.95137,-0.6075 -0.86523,0 -1.69364,0.29455 -0.82841,0.27613 -1.39909,0.75477 l -0.73636,-1.32546 q 0.75477,-0.6075 1.80409,-0.92045 1.04932,-0.33136 2.2275,-0.33136 z m -0.405,8.59704 q 1.0125,0 1.74887,-0.44181 0.73636,-0.46023 1.06772,-1.28864 v -1.36227 h -2.72454 q -2.24591,0 -2.24591,1.50954 0,0.73637 0.57068,1.15978 0.57068,0.4234 1.58318,0.4234 z m 13.03364,-8.59704 q 1.4175,0 2.54045,0.6259 1.12296,0.62591 1.74887,1.74887 0.64431,1.12295 0.64431,2.59568 0,1.47273 -0.64431,2.61409 -0.62591,1.12296 -1.74887,1.74887 -1.12295,0.62591 -2.54045,0.62591 -1.08614,0 -1.98819,-0.42341 -0.90204,-0.42341 -1.49113,-1.23341 v 1.54636 h -1.69364 v -13.65955 h 1.76727 v 5.37546 q 0.58909,-0.77318 1.47273,-1.15977 0.88364,-0.405 1.93296,-0.405 z m -0.14728,8.41295 q 0.93887,0 1.67523,-0.42341 0.75477,-0.44181 1.17818,-1.215 0.44182,-0.79159 0.44182,-1.80409 0,-1.0125 -0.44182,-1.78568 -0.42341,-0.79159 -1.17818,-1.215 -0.73636,-0.42341 -1.67523,-0.42341 -0.92045,0 -1.67523,0.42341 -0.75477,0.42341 -1.17818,1.215 -0.42341,0.77318 -0.42341,1.78568 0,1.0125 0.42341,1.80409 0.42341,0.77319 1.17818,1.215 0.75478,0.42341 1.67523,0.42341 z m 10.99024,-8.41295 q 2.025,0 3.09272,0.99409 1.08614,0.99409 1.08614,2.96386 v 5.89091 h -1.67523 v -1.28863 q -0.44182,0.68113 -1.27022,1.04932 -0.81001,0.34977 -1.93296,0.34977 -1.63841,0 -2.6325,-0.79159 -0.97568,-0.79159 -0.97568,-2.08023 0,-1.28864 0.93886,-2.06182 0.93886,-0.79159 2.98227,-0.79159 h 2.79819 v -0.34977 q 0,-1.14137 -0.66273,-1.74887 -0.66273,-0.6075 -1.95136,-0.6075 -0.86523,0 -1.69364,0.29455 -0.82841,0.27613 -1.39909,0.75477 l -0.73637,-1.32546 q 0.75478,-0.6075 1.80409,-0.92045 1.04932,-0.33136 2.22751,-0.33136 z m -0.405,8.59704 q 1.0125,0 1.74886,-0.44181 0.73636,-0.46023 1.06773,-1.28864 v -1.36227 h -2.72455 q -2.24591,0 -2.24591,1.50954 0,0.73637 0.57068,1.15978 0.57069,0.4234 1.58319,0.4234 z m 6.60885,4.93364 q -0.64432,0 -1.19659,-0.14727 -0.55227,-0.14727 -0.92045,-0.44182 l 0.57068,-1.36227 q 0.55227,0.46023 1.43591,0.46023 0.69954,0 1.06773,-0.44182 0.38659,-0.42341 0.38659,-1.27023 v -10.23546 h 1.76727 v 10.19864 q 0,1.50955 -0.81,2.37478 -0.81,0.86522 -2.30114,0.86522 z m 2.2275,-15.31637 q -0.51545,0 -0.86522,-0.33136 -0.33137,-0.33137 -0.33137,-0.81 0,-0.47864 0.33137,-0.81 0.34977,-0.34978 0.86522,-0.34978 0.51546,0 0.84682,0.33137 0.34978,0.31295 0.34978,0.79159 0,0.49705 -0.34978,0.84682 -0.33136,0.33136 -0.84682,0.33136 z m 8.43138,11.74501 q -1.45432,0 -2.61409,-0.64432 -1.15978,-0.64432 -1.8225,-1.76727 -0.64432,-1.14137 -0.64432,-2.57728 0,-1.43591 0.64432,-2.55886 0.66272,-1.14137 1.8225,-1.76728 1.15977,-0.64431 2.61409,-0.64431 1.45432,0 2.59568,0.64431 1.15978,0.62591 1.80409,1.76728 0.66273,1.12295 0.66273,2.55886 0,1.43591 -0.66273,2.57728 -0.64431,1.12295 -1.80409,1.76727 -1.14136,0.64432 -2.59568,0.64432 z m 0,-1.54637 q 0.93886,0 1.67523,-0.42341 0.75477,-0.44181 1.17818,-1.215 0.42341,-0.79159 0.42341,-1.80409 0,-1.0125 -0.42341,-1.78568 -0.42341,-0.79159 -1.17818,-1.215 -0.73637,-0.42341 -1.67523,-0.42341 -0.93886,0 -1.69364,0.42341 -0.73636,0.42341 -1.17818,1.215 -0.42341,0.77318 -0.42341,1.78568 0,1.0125 0.42341,1.80409 0.44182,0.77319 1.17818,1.215 0.75478,0.42341 1.69364,0.42341 z m 17.6359,-8.41295 q 1.4175,0 2.54046,0.6259 1.12295,0.62591 1.74886,1.74887 0.64432,1.12295 0.64432,2.59568 0,1.47273 -0.64432,2.61409 -0.62591,1.12296 -1.74886,1.74887 -1.12296,0.62591 -2.54046,0.62591 -1.08614,0 -1.98818,-0.42341 -0.90205,-0.42341 -1.49114,-1.23341 v 1.54636 h -1.69364 v -13.65955 h 1.76728 v 5.37546 q 0.58909,-0.77318 1.47273,-1.15977 0.88363,-0.405 1.93295,-0.405 z m -0.14727,8.41295 q 0.93886,0 1.67523,-0.42341 0.75477,-0.44181 1.17818,-1.215 0.44182,-0.79159 0.44182,-1.80409 0,-1.0125 -0.44182,-1.78568 -0.42341,-0.79159 -1.17818,-1.215 -0.73637,-0.42341 -1.67523,-0.42341 -0.92046,0 -1.67523,0.42341 -0.75477,0.42341 -1.17818,1.215 -0.42341,0.77318 -0.42341,1.78568 0,1.0125 0.42341,1.80409 0.42341,0.77319 1.17818,1.215 0.75477,0.42341 1.67523,0.42341 z m 7.52931,-8.32091 h 1.76727 v 9.75682 h -1.76727 z m 0.88363,-1.87773 q -0.51545,0 -0.86522,-0.33136 -0.33137,-0.33137 -0.33137,-0.81 0,-0.47864 0.33137,-0.81 0.34977,-0.34978 0.86522,-0.34978 0.51546,0 0.84682,0.33137 0.34978,0.31295 0.34978,0.79159 0,0.49705 -0.34978,0.84682 -0.33136,0.33136 -0.84682,0.33136 z m 13.07046,6.81137 q 0,0.2025 -0.0368,0.53386 h -7.91591 q 0.16568,1.28864 1.12295,2.08023 0.97568,0.77318 2.41159,0.77318 1.74887,0 2.8166,-1.17818 l 0.97568,1.14137 q -0.66273,0.77318 -1.65682,1.17818 -0.97568,0.405 -2.19068,0.405 -1.54637,0 -2.74296,-0.62591 -1.19659,-0.64432 -1.85932,-1.78568 -0.64432,-1.14137 -0.64432,-2.57728 0,-1.4175 0.62591,-2.55886 0.64432,-1.14137 1.74887,-1.76728 1.12295,-0.64431 2.52204,-0.64431 1.39909,0 2.48523,0.64431 1.10455,0.62591 1.71205,1.76728 0.62591,1.14136 0.62591,2.61409 z m -4.82319,-3.53455 q -1.27022,0 -2.13545,0.77318 -0.84682,0.77319 -0.99409,2.02501 h 6.25909 q -0.14727,-1.23341 -1.0125,-2.0066 -0.84682,-0.79159 -2.11705,-0.79159 z m 12.48136,-1.49113 q 1.85932,0 2.94546,1.08613 1.10454,1.06773 1.10454,3.14796 v 5.61477 h -1.76727 v -5.41227 q 0,-1.4175 -0.68114,-2.13546 -0.68113,-0.71795 -1.95136,-0.71795 -1.43591,0 -2.26432,0.84682 -0.82841,0.82841 -0.82841,2.39318 v 5.02568 h -1.76727 v -9.75682 h 1.69363 v 1.47273 q 0.53387,-0.75477 1.43591,-1.15977 0.92046,-0.405 2.08023,-0.405 z m 17.48863,0 q 1.85932,0 2.94545,1.08613 1.10455,1.06773 1.10455,3.14796 v 5.61477 h -1.76728 v -5.41227 q 0,-1.4175 -0.68113,-2.13546 -0.68114,-0.71795 -1.95137,-0.71795 -1.43591,0 -2.26432,0.84682 -0.82841,0.82841 -0.82841,2.39318 v 5.02568 h -1.76727 v -13.65955 h 1.76727 v 5.28341 q 0.55228,-0.69954 1.43591,-1.08613 0.90205,-0.38659 2.0066,-0.38659 z m 16.20001,5.02568 q 0,0.2025 -0.0368,0.53386 h -7.91591 q 0.16568,1.28864 1.12295,2.08023 0.97568,0.77318 2.41159,0.77318 1.74887,0 2.8166,-1.17818 l 0.97568,1.14137 q -0.66273,0.77318 -1.65682,1.17818 -0.97568,0.405 -2.19068,0.405 -1.54637,0 -2.74296,-0.62591 -1.19659,-0.64432 -1.85932,-1.78568 -0.64432,-1.14137 -0.64432,-2.57728 0,-1.4175 0.62591,-2.55886 0.64432,-1.14137 1.74887,-1.76728 1.12295,-0.64431 2.52204,-0.64431 1.39909,0 2.48523,0.64431 1.10455,0.62591 1.71205,1.76728 0.62591,1.14136 0.62591,2.61409 z m -4.82319,-3.53455 q -1.27023,0 -2.13545,0.77318 -0.84682,0.77319 -0.99409,2.02501 h 6.25909 q -0.14727,-1.23341 -1.0125,-2.0066 -0.84682,-0.79159 -2.11705,-0.79159 z m 11.52409,8.46819 q -1.49114,0 -2.66932,-0.64432 -1.15978,-0.64432 -1.8225,-1.76727 -0.66273,-1.14137 -0.66273,-2.57728 0,-1.43591 0.66273,-2.55886 0.66272,-1.14137 1.8225,-1.76728 1.17818,-0.64431 2.66932,-0.64431 1.32545,0 2.35636,0.53386 1.04932,0.53386 1.62,1.54636 l -1.34386,0.86523 q -0.46023,-0.69954 -1.14137,-1.04932 -0.68113,-0.34977 -1.50954,-0.34977 -0.95727,0 -1.73046,0.42341 -0.75477,0.42341 -1.19659,1.215 -0.42341,0.77318 -0.42341,1.78568 0,1.03091 0.42341,1.8225 0.44182,0.77319 1.19659,1.19659 0.77319,0.42341 1.73046,0.42341 0.82841,0 1.50954,-0.34977 0.68114,-0.34977 1.14137,-1.04932 l 1.34386,0.84682 q -0.57068,1.0125 -1.62,1.56477 -1.03091,0.53387 -2.35636,0.53387 z m 11.33999,-9.95932 q 1.85932,0 2.94546,1.08613 1.10454,1.06773 1.10454,3.14796 v 5.61477 h -1.76727 v -5.41227 q 0,-1.4175 -0.68114,-2.13546 -0.68113,-0.71795 -1.95136,-0.71795 -1.43591,0 -2.26432,0.84682 -0.82841,0.82841 -0.82841,2.39318 v 5.02568 h -1.76727 v -13.65955 h 1.76727 v 5.28341 q 0.55227,-0.69954 1.43591,-1.08613 0.90205,-0.38659 2.00659,-0.38659 z m 11.5609,9.95932 q -1.45431,0 -2.61409,-0.64432 -1.15977,-0.64432 -1.8225,-1.76727 -0.64432,-1.14137 -0.64432,-2.57728 0,-1.43591 0.64432,-2.55886 0.66273,-1.14137 1.8225,-1.76728 1.15978,-0.64431 2.61409,-0.64431 1.45432,0 2.59569,0.64431 1.15977,0.62591 1.80409,1.76728 0.66273,1.12295 0.66273,2.55886 0,1.43591 -0.66273,2.57728 -0.64432,1.12295 -1.80409,1.76727 -1.14137,0.64432 -2.59569,0.64432 z m 0,-1.54637 q 0.93887,0 1.67523,-0.42341 0.75478,-0.44181 1.17818,-1.215 0.42341,-0.79159 0.42341,-1.80409 0,-1.0125 -0.42341,-1.78568 -0.4234,-0.79159 -1.17818,-1.215 -0.73636,-0.42341 -1.67523,-0.42341 -0.93886,0 -1.69363,0.42341 -0.73637,0.42341 -1.17819,1.215 -0.4234,0.77318 -0.4234,1.78568 0,1.0125 0.4234,1.80409 0.44182,0.77319 1.17819,1.215 0.75477,0.42341 1.69363,0.42341 z"
             id="path11"
             style="fill:#4a6fa5;fill-opacity:1" /></g><text
           xml:space="preserve"
           transform="matrix(0.30632722,0,0,0.27009815,-734.67965,24.623334)"
           id="text8"
           style="font-style:normal;font-variant:normal;font-weight:normal;font-stretch:normal;font-size:64px;font-family:Montserrat;-inkscape-font-specification:'Montserrat, Normal';font-variant-ligatures:normal;font-variant-position:sub;font-variant-caps:normal;font-variant-numeric:normal;font-variant-east-asian:normal;text-align:center;writing-mode:lr-tb;direction:ltr;white-space:pre;shape-inside:url(#rect8);display:inline;opacity:1;fill:#f5f5f5;fill-opacity:1;stroke-width:6.76913;stroke-miterlimit:3.4"><tspan
             x="1729.4461"
             y="188.78683"
             id="tspan4">A</tspan></text><path
           d="m -251.71957,101.84848 h -6.62781 l -1.37189,2.74917 h -1.83512 l 5.6479,-10.996679 h 1.76385 l 5.66572,10.996679 h -1.87076 z m -0.62358,-1.25676 -2.69033,-5.388375 -2.69032,5.388375 z m 9.49634,4.10019 q -1.44316,0 -2.58343,-0.54983 -1.12245,-0.54984 -1.76385,-1.50812 -0.6414,-0.97399 -0.6414,-2.19934 0,-1.22534 0.6414,-2.183623 0.6414,-0.973992 1.76385,-1.508117 1.14027,-0.549834 2.58343,-0.549834 1.2828,0 2.28054,0.455577 1.01555,0.455577 1.56787,1.319602 l -1.30062,0.738349 q -0.44542,-0.596963 -1.10464,-0.895444 -0.65922,-0.298482 -1.46097,-0.298482 -0.92647,0 -1.67477,0.36132 -0.73049,0.36132 -1.15809,1.03683 -0.40978,0.659801 -0.40978,1.523822 0,0.87974 0.40978,1.55525 0.4276,0.6598 1.15809,1.02112 0.7483,0.36132 1.67477,0.36132 0.80175,0 1.46097,-0.29848 0.65922,-0.29848 1.10464,-0.89545 l 1.30062,0.72264 q -0.55232,0.86403 -1.56787,1.33532 -0.99774,0.45557 -2.28054,0.45557 z m 9.95954,0 q -1.40752,0 -2.52997,-0.54983 -1.12246,-0.54984 -1.76386,-1.50812 -0.62358,-0.97399 -0.62358,-2.19934 0,-1.22534 0.62358,-2.183623 0.6414,-0.973992 1.76386,-1.508117 1.12245,-0.549834 2.52997,-0.549834 1.40752,0 2.51216,0.549834 1.12245,0.534125 1.74604,1.508117 0.6414,0.958283 0.6414,2.183623 0,1.22535 -0.6414,2.19934 -0.62359,0.95828 -1.74604,1.50812 -1.10464,0.54983 -2.51216,0.54983 z m 0,-1.3196 q 0.90865,0 1.62132,-0.36132 0.73049,-0.37703 1.14027,-1.03683 0.40979,-0.67551 0.40979,-1.53954 0,-0.864021 -0.40979,-1.523822 -0.40978,-0.67551 -1.14027,-1.03683 -0.71267,-0.36132 -1.62132,-0.36132 -0.90865,0 -1.63914,0.36132 -0.71267,0.36132 -1.14027,1.03683 -0.40978,0.659801 -0.40978,1.523822 0,0.86403 0.40978,1.53954 0.4276,0.6598 1.14027,1.03683 0.73049,0.36132 1.63914,0.36132 z m 19.08171,-7.179264 q 1.78167,0 2.81504,0.911154 1.05118,0.911154 1.05118,2.702042 v 4.791408 h -1.7104 v -4.618603 q 0,-1.209635 -0.6414,-1.822307 -0.62359,-0.612673 -1.79949,-0.612673 -1.30062,0 -2.06674,0.72264 -0.76612,0.706929 -0.76612,2.042243 v 4.2887 h -1.71041 v -4.618603 q 0,-1.209635 -0.6414,-1.822307 -0.62358,-0.612673 -1.79949,-0.612673 -1.30062,0 -2.06673,0.72264 -0.76612,0.706929 -0.76612,2.042243 v 4.2887 h -1.71041 v -8.326056 h 1.63914 v 1.241054 q 0.51668,-0.644091 1.35407,-0.973992 0.83739,-0.34561 1.90639,-0.34561 1.10464,0 1.95984,0.392739 0.8552,0.392739 1.31844,1.146797 0.5345,-0.722639 1.47878,-1.131087 0.96211,-0.408449 2.15583,-0.408449 z m 12.02628,0 q 1.37189,0 2.45871,0.534125 1.08682,0.534125 1.69258,1.492407 0.62359,0.958282 0.62359,2.215042 0,1.25677 -0.62359,2.23076 -0.60576,0.95828 -1.69258,1.49241 -1.08682,0.53412 -2.45871,0.53412 -1.01555,0 -1.87076,-0.34561 -0.83738,-0.34561 -1.42533,-1.00541 v 4.30442 h -1.71041 V 96.271594 h 1.63914 v 1.319602 q 0.57013,-0.69122 1.44315,-1.03683 0.87302,-0.36132 1.92421,-0.36132 z m -0.14253,7.179264 q 0.90865,0 1.62132,-0.36132 0.73048,-0.37703 1.14027,-1.03683 0.4276,-0.67551 0.4276,-1.53954 0,-0.864021 -0.4276,-1.523822 -0.40979,-0.67551 -1.14027,-1.03683 -0.71267,-0.36132 -1.62132,-0.36132 -0.89084,0 -1.62133,0.377029 -0.71266,0.36132 -1.14027,1.021121 -0.40978,0.659801 -0.40978,1.523822 0,0.86403 0.40978,1.53954 0.40979,0.6598 1.14027,1.03683 0.73049,0.36132 1.62133,0.36132 z m 10.63658,-7.179264 q 1.95983,0 2.9932,0.848316 1.05119,0.848315 1.05119,2.529237 v 5.027051 h -1.62132 v -1.09966 q -0.4276,0.58125 -1.22935,0.89544 -0.78394,0.29848 -1.87076,0.29848 -1.58569,0 -2.54779,-0.67551 -0.94429,-0.67551 -0.94429,-1.77518 0,-1.09967 0.90866,-1.75947 0.90865,-0.675508 2.8863,-0.675508 h 2.70815 v -0.298481 q 0,-0.973992 -0.64141,-1.492407 -0.6414,-0.518415 -1.88857,-0.518415 -0.83738,0 -1.63914,0.251353 -0.80175,0.235643 -1.35407,0.644091 l -0.71267,-1.131087 q 0.73049,-0.518416 1.74604,-0.785478 1.01556,-0.282772 2.15583,-0.282772 z m -0.39197,7.336364 q 0.97992,0 1.69259,-0.37703 0.71266,-0.39274 1.03337,-1.09967 v -1.16251 h -2.63688 q -2.17364,0 -2.17364,1.28818 0,0.62839 0.55232,0.98971 0.55232,0.36132 1.53224,0.36132 z m 12.64984,-7.336364 q 1.79949,0 2.85067,0.926864 1.06901,0.911153 1.06901,2.686332 v 4.791408 h -1.71041 v -4.618603 q 0,-1.209635 -0.65922,-1.822307 -0.65922,-0.612673 -1.88857,-0.612673 -1.3897,0 -2.19146,0.72264 -0.80175,0.706929 -0.80175,2.042243 v 4.2887 h -1.7104 v -8.326056 h 1.63914 v 1.256764 q 0.51668,-0.644092 1.3897,-0.989702 0.89084,-0.34561 2.01329,-0.34561 z m 0.69485,-1.178216 q -0.4276,0 -0.7483,-0.157095 -0.30289,-0.157096 -0.76612,-0.471287 -0.26725,-0.219933 -0.46323,-0.314191 -0.19599,-0.109967 -0.39197,-0.109967 -0.39197,0 -0.6414,0.267063 -0.24944,0.251353 -0.26726,0.706929 h -0.9621 q 0.0356,-0.879734 0.49887,-1.398149 0.48105,-0.518415 1.24717,-0.518415 0.4276,0 0.7483,0.172805 0.33852,0.157095 0.76612,0.471286 0.30289,0.219934 0.48105,0.329901 0.17817,0.09426 0.37415,0.09426 0.39197,0 0.64141,-0.251353 0.24943,-0.251353 0.26725,-0.69122 h 0.9621 q -0.0356,0.848316 -0.51669,1.366731 -0.46323,0.502705 -1.22935,0.502705 z m 9.83483,1.178216 q 1.95984,0 2.99321,0.848316 1.05118,0.848315 1.05118,2.529237 v 5.027051 h -1.62132 v -1.09966 q -0.4276,0.58125 -1.22935,0.89544 -0.78394,0.29848 -1.87076,0.29848 -1.58568,0 -2.54779,-0.67551 -0.94428,-0.67551 -0.94428,-1.77518 0,-1.09967 0.90865,-1.75947 0.90865,-0.675508 2.88631,-0.675508 h 2.70814 v -0.298481 q 0,-0.973992 -0.6414,-1.492407 -0.64141,-0.518415 -1.88858,-0.518415 -0.83738,0 -1.63913,0.251353 -0.80176,0.235643 -1.35407,0.644091 l -0.71267,-1.131087 q 0.73048,-0.518416 1.74604,-0.785478 1.01555,-0.282772 2.15582,-0.282772 z m -0.39197,7.336364 q 0.97992,0 1.69259,-0.37703 0.71267,-0.39274 1.03337,-1.09967 v -1.16251 h -2.63688 q -2.17364,0 -2.17364,1.28818 0,0.62839 0.55232,0.98971 0.55232,0.36132 1.53224,0.36132 z m 16.56955,-10.58824 v 11.65648 h -1.63914 v -1.3196 q -0.57014,0.69122 -1.44315,1.05254 -0.87302,0.36132 -1.92421,0.36132 -1.37189,0 -2.45871,-0.53412 -1.08682,-0.53413 -1.7104,-1.49241 -0.60577,-0.97399 -0.60577,-2.23076 0,-1.25676 0.60577,-2.215042 0.62358,-0.958282 1.7104,-1.492407 1.08682,-0.534125 2.45871,-0.534125 1.01555,0 1.87076,0.34561 0.8552,0.329901 1.42533,0.989702 V 92.94117 Z m -4.86397,10.43114 q 0.89084,0 1.62132,-0.36132 0.73049,-0.37703 1.14027,-1.03683 0.40979,-0.67551 0.40979,-1.53954 0,-0.864021 -0.40979,-1.523822 -0.40978,-0.67551 -1.14027,-1.03683 -0.73048,-0.36132 -1.62132,-0.36132 -0.90865,0 -1.63913,0.36132 -0.71267,0.36132 -1.14027,1.03683 -0.40979,0.659801 -0.40979,1.523822 0,0.86403 0.40979,1.53954 0.4276,0.6598 1.14027,1.03683 0.73048,0.36132 1.63913,0.36132 z m 12.151,1.3196 q -1.40752,0 -2.52997,-0.54983 -1.12245,-0.54984 -1.76385,-1.50812 -0.62359,-0.97399 -0.62359,-2.19934 0,-1.22534 0.62359,-2.183623 0.6414,-0.973992 1.76385,-1.508117 1.12245,-0.549834 2.52997,-0.549834 1.40753,0 2.51216,0.549834 1.12245,0.534125 1.74604,1.508117 0.6414,0.958283 0.6414,2.183623 0,1.22535 -0.6414,2.19934 -0.62359,0.95828 -1.74604,1.50812 -1.10463,0.54983 -2.51216,0.54983 z m 0,-1.3196 q 0.90866,0 1.62133,-0.36132 0.73048,-0.37703 1.14027,-1.03683 0.40978,-0.67551 0.40978,-1.53954 0,-0.864021 -0.40978,-1.523822 -0.40979,-0.67551 -1.14027,-1.03683 -0.71267,-0.36132 -1.62133,-0.36132 -0.90865,0 -1.63913,0.36132 -0.71267,0.36132 -1.14027,1.03683 -0.40979,0.659801 -0.40979,1.523822 0,0.86403 0.40979,1.53954 0.4276,0.6598 1.14027,1.03683 0.73048,0.36132 1.63913,0.36132 z m 20.97025,-10.43114 v 11.65648 h -1.63914 v -1.3196 q -0.57013,0.69122 -1.44315,1.05254 -0.87302,0.36132 -1.92421,0.36132 -1.37188,0 -2.4587,-0.53412 -1.08682,-0.53413 -1.71041,-1.49241 -0.60577,-0.97399 -0.60577,-2.23076 0,-1.25676 0.60577,-2.215042 0.62359,-0.958282 1.71041,-1.492407 1.08682,-0.534125 2.4587,-0.534125 1.01556,0 1.87076,0.34561 0.8552,0.329901 1.42534,0.989702 V 92.94117 Z m -4.86396,10.43114 q 0.89083,0 1.62132,-0.36132 0.73049,-0.37703 1.14027,-1.03683 0.40978,-0.67551 0.40978,-1.53954 0,-0.864021 -0.40978,-1.523822 -0.40978,-0.67551 -1.14027,-1.03683 -0.73049,-0.36132 -1.62132,-0.36132 -0.90865,0 -1.63914,0.36132 -0.71267,0.36132 -1.14027,1.03683 -0.40978,0.659801 -0.40978,1.523822 0,0.86403 0.40978,1.53954 0.4276,0.6598 1.14027,1.03683 0.73049,0.36132 1.63914,0.36132 z m 16.64081,-2.89056 q 0,0.17281 -0.0356,0.45558 h -7.66119 q 0.16035,1.09967 1.08682,1.77518 0.94429,0.6598 2.33399,0.6598 1.69259,0 2.72596,-1.00541 l 0.94428,0.97399 q -0.6414,0.6598 -1.6035,1.00541 -0.94429,0.34561 -2.12019,0.34561 -1.4966,0 -2.65469,-0.53412 -1.15809,-0.54984 -1.79949,-1.52383 -0.62358,-0.97399 -0.62358,-2.19934 0,-1.209631 0.60576,-2.183623 0.62359,-0.973992 1.69259,-1.508117 1.08682,-0.549834 2.44089,-0.549834 1.35407,0 2.40526,0.549834 1.069,0.534125 1.65695,1.508117 0.60577,0.973992 0.60577,2.230753 z m -4.66798,-3.01623 q -1.22935,0 -2.06674,0.659801 -0.81957,0.659801 -0.9621,1.72805 h 6.05768 q -0.14253,-1.05254 -0.97992,-1.712341 -0.81956,-0.67551 -2.04892,-0.67551 z m -127.70129,18.44301 v 8.32606 h -1.62132 v -1.25676 q -0.51668,0.64409 -1.37189,1.00541 -0.83738,0.34561 -1.83512,0.34561 -1.88857,0 -2.97539,-0.91116 -1.08682,-0.92686 -1.08682,-2.71775 v -4.79141 h 1.71041 v 4.61861 q 0,1.20963 0.65921,1.83801 0.65922,0.61268 1.88858,0.61268 1.35407,0 2.138,-0.72264 0.78394,-0.72264 0.78394,-2.04224 v -4.30442 z m 8.30259,-0.0785 q 1.79949,0 2.85068,0.92687 1.069,0.91115 1.069,2.68633 v 4.79141 h -1.7104 v -4.61861 q 0,-1.20963 -0.65922,-1.8223 -0.65922,-0.61268 -1.88858,-0.61268 -1.3897,0 -2.19145,0.72264 -0.80175,0.70693 -0.80175,2.04224 v 4.28871 h -1.71041 v -8.32606 h 1.63914 v 1.25676 q 0.51668,-0.64409 1.3897,-0.9897 0.89084,-0.34561 2.01329,-0.34561 z m 16.89025,0 q 1.37189,0 2.45871,0.53413 1.08682,0.53412 1.69258,1.4924 0.62359,0.95829 0.62359,2.21505 0,1.25676 -0.62359,2.23076 -0.60576,0.95828 -1.69258,1.4924 -1.08682,0.53413 -2.45871,0.53413 -1.05119,0 -1.92421,-0.36132 -0.87301,-0.36132 -1.44315,-1.05254 v 1.3196 h -1.63914 v -11.65648 h 1.71041 v 4.58718 q 0.57013,-0.6598 1.42533,-0.9897 0.85521,-0.34561 1.87076,-0.34561 z m -0.14253,7.17927 q 0.90865,0 1.62132,-0.36132 0.73048,-0.37703 1.14027,-1.03683 0.4276,-0.67552 0.4276,-1.53954 0,-0.86403 -0.4276,-1.52383 -0.40979,-0.67551 -1.14027,-1.03683 -0.71267,-0.36132 -1.62132,-0.36132 -0.89084,0 -1.62133,0.36132 -0.73048,0.36132 -1.14027,1.03683 -0.40978,0.6598 -0.40978,1.52383 0,0.86402 0.40978,1.53954 0.40979,0.6598 1.14027,1.03683 0.73049,0.36132 1.62133,0.36132 z m 16.08846,-7.10072 v 8.32606 h -1.62132 v -1.25676 q -0.51668,0.64409 -1.37188,1.00541 -0.83739,0.34561 -1.83513,0.34561 -1.88857,0 -2.97539,-0.91116 -1.08682,-0.92686 -1.08682,-2.71775 v -4.79141 h 1.71041 v 4.61861 q 0,1.20963 0.65922,1.83801 0.65921,0.61268 1.88857,0.61268 1.35407,0 2.138,-0.72264 0.78394,-0.72264 0.78394,-2.04224 v -4.30442 z m 11.79467,4.21016 q 0,0.1728 -0.0356,0.45558 h -7.66119 q 0.16035,1.09966 1.08682,1.77517 0.94428,0.65981 2.33399,0.65981 1.69259,0 2.72596,-1.00542 l 0.94428,0.974 q -0.6414,0.6598 -1.6035,1.00541 -0.94429,0.34561 -2.12019,0.34561 -1.49661,0 -2.65469,-0.53413 -1.15809,-0.54983 -1.79949,-1.52382 -0.62359,-0.974 -0.62359,-2.19934 0,-1.20964 0.60577,-2.18363 0.62359,-0.97399 1.69259,-1.50811 1.08682,-0.54984 2.44089,-0.54984 1.35407,0 2.40526,0.54984 1.069,0.53412 1.65695,1.50811 0.60577,0.97399 0.60577,2.23076 z m -4.66798,-3.01623 q -1.22935,0 -2.06674,0.6598 -0.81957,0.6598 -0.9621,1.72805 h 6.05768 q -0.14253,-1.05254 -0.97992,-1.71234 -0.81957,-0.67551 -2.04892,-0.67551 z m 12.07973,-1.27248 q 1.79949,0 2.85068,0.92687 1.069,0.91115 1.069,2.68633 v 4.79141 h -1.7104 v -4.61861 q 0,-1.20963 -0.65922,-1.8223 -0.65922,-0.61268 -1.88857,-0.61268 -1.38971,0 -2.19146,0.72264 -0.80175,0.70693 -0.80175,2.04224 v 4.28871 h -1.71041 v -8.32606 h 1.63914 v 1.25676 q 0.51669,-0.64409 1.38971,-0.9897 0.89083,-0.34561 2.01328,-0.34561 z m 20.07942,5.65544 h -6.62782 l -1.37189,2.74917 h -1.83512 l 5.6479,-10.99668 h 1.76385 l 5.66572,10.99668 h -1.87076 z m -0.62359,-1.25676 -2.69032,-5.38838 -2.69033,5.38838 z m 8.08882,4.10019 q -1.15809,0 -2.22709,-0.26707 -1.069,-0.28277 -1.67477,-0.70692 l 0.71267,-1.19393 q 0.62358,0.39274 1.51442,0.62838 0.89083,0.23564 1.79949,0.23564 2.2449,0 2.2449,-1.13108 0,-0.37703 -0.30288,-0.59697 -0.30289,-0.21993 -0.76612,-0.31419 -0.44542,-0.10996 -1.2828,-0.23564 -1.14027,-0.1571 -1.87076,-0.36132 -0.71267,-0.20422 -1.22935,-0.69122 -0.51669,-0.487 -0.51669,-1.36673 0,-1.13109 1.069,-1.8066 1.06901,-0.69122 2.8685,-0.69122 0.94428,0 1.88857,0.20423 0.94428,0.20422 1.55005,0.54983 l -0.73048,1.19393 q -1.15809,-0.65981 -2.72596,-0.65981 -1.08682,0 -1.65696,0.3142 -0.57013,0.31419 -0.57013,0.8326 0,0.40845 0.3207,0.64409 0.3207,0.23565 0.78394,0.34561 0.48105,0.10997 1.33625,0.25136 1.14027,0.1728 1.83512,0.37703 0.71267,0.18851 1.21154,0.6598 0.49887,0.47128 0.49887,1.3196 0,1.13109 -1.10464,1.8066 -1.08682,0.6598 -2.97539,0.6598 z m 9.65666,-8.49887 q 1.95984,0 2.99321,0.84832 1.05118,0.84831 1.05118,2.52923 v 5.02706 h -1.62132 v -1.09967 q -0.4276,0.58125 -1.22935,0.89545 -0.78394,0.29848 -1.87076,0.29848 -1.58568,0 -2.54779,-0.67551 -0.94428,-0.67551 -0.94428,-1.77518 0,-1.09967 0.90865,-1.75947 0.90865,-0.67551 2.88631,-0.67551 h 2.70814 v -0.29848 q 0,-0.974 -0.6414,-1.49241 -0.6414,-0.51842 -1.88857,-0.51842 -0.83739,0 -1.63914,0.25136 -0.80175,0.23564 -1.35407,0.64409 l -0.71267,-1.13109 q 0.73048,-0.51841 1.74604,-0.78548 1.01555,-0.28277 2.15582,-0.28277 z m -0.39197,7.33636 q 0.97992,0 1.69259,-0.37703 0.71267,-0.39274 1.03337,-1.09967 v -1.1625 h -2.63688 q -2.17363,0 -2.17363,1.28818 0,0.62838 0.55231,0.9897 0.55232,0.36132 1.53224,0.36132 z m 16.56955,-10.58823 v 11.65648 h -1.63914 v -1.3196 q -0.57013,0.69122 -1.44315,1.05254 -0.87302,0.36132 -1.92421,0.36132 -1.37189,0 -2.45871,-0.53413 -1.08682,-0.53412 -1.7104,-1.4924 -0.60577,-0.974 -0.60577,-2.23076 0,-1.25676 0.60577,-2.21505 0.62358,-0.95828 1.7104,-1.4924 1.08682,-0.53413 2.45871,-0.53413 1.01555,0 1.87076,0.34561 0.8552,0.3299 1.42533,0.9897 v -4.58718 z m -4.86397,10.43114 q 0.89084,0 1.62133,-0.36132 0.73048,-0.37703 1.14027,-1.03683 0.40978,-0.67552 0.40978,-1.53954 0,-0.86403 -0.40978,-1.52383 -0.40979,-0.67551 -1.14027,-1.03683 -0.73049,-0.36132 -1.62133,-0.36132 -0.90865,0 -1.63913,0.36132 -0.71267,0.36132 -1.14027,1.03683 -0.40979,0.6598 -0.40979,1.52383 0,0.86402 0.40979,1.53954 0.4276,0.6598 1.14027,1.03683 0.73048,0.36132 1.63913,0.36132 z m 12.15098,1.3196 q -1.40752,0 -2.52998,-0.54984 -1.12245,-0.54983 -1.76385,-1.50811 -0.62359,-0.974 -0.62359,-2.19934 0,-1.22535 0.62359,-2.18363 0.6414,-0.97399 1.76385,-1.50811 1.12246,-0.54984 2.52998,-0.54984 1.40752,0 2.51215,0.54984 1.12246,0.53412 1.74604,1.50811 0.6414,0.95828 0.6414,2.18363 0,1.22534 -0.6414,2.19934 -0.62358,0.95828 -1.74604,1.50811 -1.10463,0.54984 -2.51215,0.54984 z m 0,-1.3196 q 0.90865,0 1.62132,-0.36132 0.73048,-0.37703 1.14027,-1.03683 0.40978,-0.67552 0.40978,-1.53954 0,-0.86403 -0.40978,-1.52383 -0.40979,-0.67551 -1.14027,-1.03683 -0.71267,-0.36132 -1.62132,-0.36132 -0.90866,0 -1.63914,0.36132 -0.71267,0.36132 -1.14027,1.03683 -0.40978,0.6598 -0.40978,1.52383 0,0.86402 0.40978,1.53954 0.4276,0.6598 1.14027,1.03683 0.73048,0.36132 1.63914,0.36132 z"
           id="text9"
           style="font-size:64px;font-family:Montserrat;-inkscape-font-specification:'Montserrat, Normal';text-align:center;text-anchor:middle;fill:#4a6fa5;fill-opacity:1;stroke-width:1.76949"
           aria-label="Acompañado de un buen Asado" /></g><text
         xml:space="preserve"
         transform="matrix(0.26458333,0,0,0.26458333,-141.37345,12.795823)"
         id="text7"
         style="font-style:normal;font-variant:normal;font-weight:normal;font-stretch:normal;font-size:64px;font-family:Montserrat;-inkscape-font-specification:'Montserrat, Normal';font-variant-ligatures:normal;font-variant-position:sub;font-variant-caps:normal;font-variant-numeric:normal;font-variant-east-asian:normal;text-align:center;writing-mode:lr-tb;direction:ltr;white-space:pre;shape-inside:url(#rect7);display:inline;opacity:1;fill:#f5f5f5;fill-opacity:1;stroke-width:6.76913;stroke-miterlimit:3.4"><tspan
           x="2612.6426"
           y="708.65011"
           id="tspan6"><tspan
             dx="0 46.528076 36.031982 40.640015 67.647949 43.328003 38.271973 43.583984 38.463989 43.647949 40.640015 17.215942 43.647949 39.167969 17.215942 43.328003 43.583984 43.647949 43.328003 39.167969 43.583984 17.215942 46.528076 32.063965 38.463989 43.647949"
             id="tspan5">Acompanado de unbuen Asado</tspan></tspan></text></g></g></svg>
