<?xml version="1.0" encoding="UTF-8" standalone="no"?>
<!-- Created with Inkscape (http://www.inkscape.org/) -->

<svg
   width="463.44849mm"
   height="357.0202mm"
   viewBox="0 0 463.44847 357.02019"
   version="1.1"
   id="svg1"
   xml:space="preserve"
   sodipodi:docname="references_es.svg"
   inkscape:version="1.4 (86a8ad7, 2024-10-11)"
   xmlns:inkscape="http://www.inkscape.org/namespaces/inkscape"
   xmlns:sodipodi="http://sodipodi.sourceforge.net/DTD/sodipodi-0.dtd"
   xmlns="http://www.w3.org/2000/svg"
   xmlns:svg="http://www.w3.org/2000/svg"><sodipodi:namedview
     id="namedview1"
     pagecolor="#ffffff"
     bordercolor="#000000"
     borderopacity="0.25"
     inkscape:showpageshadow="2"
     inkscape:pageopacity="0.0"
     inkscape:pagecheckerboard="0"
     inkscape:deskcolor="#d1d1d1"
     inkscape:document-units="mm"
     showgrid="false"
     inkscape:zoom="0.30007923"
     inkscape:cx="1916.1606"
     inkscape:cy="1377.9694"
     inkscape:window-width="1920"
     inkscape:window-height="1111"
     inkscape:window-x="-9"
     inkscape:window-y="92"
     inkscape:window-maximized="1"
     inkscape:current-layer="text140-4-4" /><defs
     id="defs1"><rect
       x="1233.0077"
       y="284.92474"
       width="408.22552"
       height="144.96172"
       id="rect3" /><rect
       x="76.646423"
       y="416.55664"
       width="374.36642"
       height="209.90582"
       id="rect2" /><rect
       x="119.96831"
       y="1228.009"
       width="534.85876"
       height="173.28757"
       id="rect1" /><marker
       style="overflow:visible"
       id="DartArrow"
       refX="0"
       refY="0"
       orient="auto-start-reverse"
       markerWidth="1"
       markerHeight="1"
       viewBox="0 0 1 1"
       preserveAspectRatio="xMidYMid"><path
         style="fill:context-stroke;fill-rule:evenodd;stroke:none"
         d="M 0,0 5,-5 -12.5,0 5,5 Z"
         transform="scale(-0.5)"
         id="path23" /></marker><marker
       style="overflow:visible"
       id="DartArrow-1"
       refX="0"
       refY="0"
       orient="auto-start-reverse"
       markerWidth="1"
       markerHeight="1"
       viewBox="0 0 1 1"
       preserveAspectRatio="xMidYMid"><path
         style="fill:context-stroke;fill-rule:evenodd;stroke:none"
         d="M 0,0 5,-5 -12.5,0 5,5 Z"
         transform="scale(-0.5)"
         id="path23-2" /></marker><marker
       style="overflow:visible"
       id="DartArrow-1-1"
       refX="0"
       refY="0"
       orient="auto-start-reverse"
       markerWidth="1"
       markerHeight="1"
       viewBox="0 0 1 1"
       preserveAspectRatio="xMidYMid"><path
         style="fill:context-stroke;fill-rule:evenodd;stroke:none"
         d="M 0,0 5,-5 -12.5,0 5,5 Z"
         transform="scale(-0.5)"
         id="path23-2-3" /></marker><marker
       style="overflow:visible"
       id="DartArrow-1-1-2"
       refX="0"
       refY="0"
       orient="auto-start-reverse"
       markerWidth="1"
       markerHeight="1"
       viewBox="0 0 1 1"
       preserveAspectRatio="xMidYMid"><path
         style="fill:context-stroke;fill-rule:evenodd;stroke:none"
         d="M 0,0 5,-5 -12.5,0 5,5 Z"
         transform="scale(-0.5)"
         id="path23-2-3-9" /></marker></defs><g
     id="layer1"
     transform="translate(95.881974,8.4539159)"><g
       id="g2"
       transform="translate(-20.396903,-21.249739)"><path
         d="m -48.236015,324.76302 h -1.898816 v -1.65114 h 5.613892 v 1.65114 h -1.898816 v 9.90686 h -1.81626 z m 7.149467,10.07199 q -1.337427,0 -2.047419,-0.75953 -0.709993,-0.75953 -0.709993,-2.14649 v -6.07621 q 0,-1.38696 0.709993,-2.14649 0.709992,-0.75952 2.047419,-0.75952 1.337427,0 2.047419,0.75952 0.709992,0.75953 0.709992,2.14649 v 6.07621 q 0,1.38696 -0.709992,2.14649 -0.709992,0.75953 -2.047419,0.75953 z m 0,-1.65115 q 0.941152,0 0.941152,-1.13929 v -6.30738 q 0,-1.13928 -0.941152,-1.13928 -0.941153,0 -0.941153,1.13928 v 6.30738 q 0,1.13929 0.941153,1.13929 z m 3.979252,-10.07198 h 2.592298 l 1.1558,8.27223 h 0.03302 l 1.155801,-8.27223 h 2.592298 v 11.558 h -1.717191 v -8.75106 h -0.03302 l -1.320915,8.75106 h -1.519054 l -1.320916,-8.75106 h -0.03302 v 8.75106 h -1.585099 z m 10.286635,0 h 2.460206 l 1.882304,11.558 h -1.816259 l -0.330228,-2.29508 v 0.033 h -2.063932 l -0.330229,2.26207 h -1.684167 z m 1.981374,7.72736 -0.809061,-5.71296 h -0.03302 l -0.792549,5.71296 z m 8.519886,3.99577 q -1.320917,0 -2.014396,-0.74303 -0.693481,-0.75952 -0.693481,-2.16299 v -8.81711 h 1.816258 v 8.9492 q 0,0.5944 0.231161,0.8586 0.247671,0.26418 0.69348,0.26418 0.445809,0 0.67697,-0.26418 0.247671,-0.2642 0.247671,-0.8586 v -8.9492 h 1.750214 v 8.81711 q 0,1.40347 -0.693481,2.16299 -0.693481,0.74303 -2.014396,0.74303 z m 3.995777,-11.72313 h 2.278579 l 1.7667251,6.91829 h 0.033022 v -6.91829 h 1.6181219 v 11.558 h -1.8657932 l -2.1795108,-8.43735 h -0.03302 v 8.43735 h -1.618122 z m 9.6922189,0 h 2.67485453 q 1.35393857,0 2.03090807,0.7265 0.6769698,0.7265 0.6769698,2.12997 v 1.1393 q 0,1.40347 -0.6769698,2.12998 -0.6769695,0.7265 -2.03090807,0.7265 h -0.85859525 v 4.70575 H -2.6314051 Z m 2.67485453,5.2011 q 0.44580914,0 0.66045784,-0.24767 0.23116033,-0.24767 0.23116033,-0.84208 v -1.37045 q 0,-0.59441 -0.23116033,-0.84209 -0.2146487,-0.24767 -0.66045784,-0.24767 h -0.85859525 v 3.54996 z m 6.34038837,6.52203 q -1.3209153,0 -2.0143957,-0.74303 -0.6934816,-0.75952 -0.6934816,-2.16299 v -8.81711 H 5.49222 v 8.9492 q 0,0.5944 0.2311602,0.8586 0.2476714,0.26418 0.6934803,0.26418 0.44581,0 0.6769703,-0.26418 0.2476716,-0.2642 0.2476716,-0.8586 v -8.9492 H 9.091715 v 8.81711 q 0,1.40347 -0.6934798,2.16299 -0.693481,0.74303 -2.0143974,0.74303 z m 3.9957772,-11.72313 h 2.27858 l 1.766725,6.91829 h 0.03302 v -6.91829 h 1.61812 v 11.558 h -1.86579 l -2.179511,-8.43735 h -0.03302 v 8.43735 h -1.618122 z m 0.56139,-1.23836 q 0.313717,-0.71 0.676969,-1.04022 0.363252,-0.34674 0.825572,-0.34674 0.297206,0 0.511854,0.0826 0.231161,0.0826 0.478833,0.23116 0.148603,0.0826 0.280695,0.14861 0.148603,0.0661 0.280694,0.0661 0.198138,0 0.34674,-0.14861 0.148604,-0.1486 0.313717,-0.49534 l 0.875109,0.52836 q -0.313719,0.70999 -0.676971,1.05674 -0.363251,0.33023 -0.825573,0.33023 -0.297205,0 -0.528365,-0.0826 -0.214648,-0.0826 -0.46232,-0.23116 -0.148604,-0.0826 -0.297207,-0.1486 -0.132091,-0.0661 -0.264183,-0.0661 -0.198137,0 -0.346741,0.14861 -0.148602,0.1486 -0.313717,0.49535 z m 7.892475,1.23836 h 2.460205 l 1.882305,11.558 h -1.816259 l -0.330229,-2.29508 v 0.033 h -2.063931 l -0.330229,2.26207 h -1.684167 z m 1.981374,7.72736 -0.809061,-5.71296 h -0.03302 l -0.79255,5.71296 z m 3.236226,-7.72736 h 2.773924 q 1.353938,0 2.030906,0.7265 0.676971,0.7265 0.676971,2.12997 v 5.84505 q 0,1.40348 -0.676971,2.12999 -0.676968,0.72649 -2.030906,0.72649 H 24.05108 Z m 2.7409,9.90686 q 0.445809,0 0.67697,-0.26418 0.247671,-0.26419 0.247671,-0.85859 v -6.01017 q 0,-0.59441 -0.247671,-0.85859 -0.231161,-0.26419 -0.67697,-0.26419 h -0.924641 v 8.25572 z m 6.588071,1.81627 q -1.337427,0 -2.04742,-0.75953 -0.709991,-0.75953 -0.709991,-2.14649 v -6.07621 q 0,-1.38696 0.709991,-2.14649 0.709993,-0.75952 2.04742,-0.75952 1.337426,0 2.04742,0.75952 0.709991,0.75953 0.709991,2.14649 v 6.07621 q 0,1.38696 -0.709991,2.14649 -0.709994,0.75953 -2.04742,0.75953 z m 0,-1.65115 q 0.941152,0 0.941152,-1.13929 v -6.30738 q 0,-1.13928 -0.941152,-1.13928 -0.941153,0 -0.941153,1.13928 v 6.30738 q 0,1.13929 0.941153,1.13929 z m 6.62108,-10.07198 h 2.773923 q 1.353939,0 2.030908,0.7265 0.676969,0.7265 0.676969,2.12997 v 5.84505 q 0,1.40348 -0.676969,2.12999 -0.676969,0.72649 -2.030908,0.72649 h -2.773923 z m 2.7409,9.90686 q 0.445808,0 0.676969,-0.26418 0.247672,-0.26419 0.247672,-0.85859 v -6.01017 q 0,-0.59441 -0.247672,-0.85859 -0.231161,-0.26419 -0.676969,-0.26419 H 41.81739 v 8.25572 z m 3.962751,-9.90686 h 4.953434 v 1.65114 h -3.137174 v 3.05462 h 2.493228 v 1.65115 h -2.493228 v 3.54995 h 3.137174 v 1.65114 h -4.953434 z m 8.635498,0 h 1.816257 v 9.90686 h 2.988573 v 1.65114 h -4.80483 z m 7.149448,0 h 2.460206 l 1.882305,11.558 h -1.81626 l -0.330228,-2.29508 v 0.033 h -2.06393 l -0.330231,2.26207 h -1.684167 z m 1.981374,7.72736 -0.809061,-5.71296 h -0.03302 l -0.792549,5.71296 z m 3.236229,-7.72736 h 2.773923 q 1.35394,0 2.030909,0.7265 0.676969,0.7265 0.676969,2.12997 v 5.84505 q 0,1.40348 -0.676969,2.12999 -0.676969,0.72649 -2.030909,0.72649 h -2.773923 z m 2.740901,9.90686 q 0.445809,0 0.676969,-0.26418 0.247673,-0.26419 0.247673,-0.85859 v -6.01017 q 0,-0.59441 -0.247673,-0.85859 -0.23116,-0.26419 -0.676969,-0.26419 h -0.92464 v 8.25572 z m 3.962751,-9.90686 h 2.691366 q 1.403473,0 2.04742,0.66045 0.643946,0.64396 0.643946,1.99788 v 0.71001 q 0,1.79973 -1.188824,2.27858 v 0.033 q 0.660457,0.19814 0.92464,0.80906 0.280695,0.61091 0.280695,1.63464 v 2.0309 q 0,0.49534 0.03302,0.80906 0.03302,0.2972 0.165115,0.59441 h -1.849283 q -0.09907,-0.2807 -0.132091,-0.52836 -0.03302,-0.24768 -0.03302,-0.89161 v -2.11347 q 0,-0.79257 -0.264181,-1.10628 -0.247672,-0.31372 -0.875108,-0.31372 h -0.627434 v 4.95344 h -1.816259 z m 2.476718,4.95343 q 0.544876,0 0.80906,-0.2807 0.280694,-0.28069 0.280694,-0.94114 v -0.89163 q 0,-0.62742 -0.231159,-0.90812 -0.214649,-0.2807 -0.693481,-0.2807 h -0.825573 v 3.30229 z m 4.177391,-4.95343 h 1.81626 v 11.558 h -1.81626 z m 3.170189,0 h 1.816258 v 9.90686 h 2.988573 v 1.65114 h -4.804831 z m 5.679937,0 h 1.816259 v 9.90686 h 2.988572 v 1.65114 h -4.804831 z m 8.239212,11.72313 q -1.337427,0 -2.047419,-0.75953 -0.709992,-0.75953 -0.709992,-2.14649 v -6.07621 q 0,-1.38696 0.709992,-2.14649 0.709992,-0.75952 2.047419,-0.75952 1.337427,0 2.04742,0.75952 0.70999,0.75953 0.70999,2.14649 v 6.07621 q 0,1.38696 -0.70999,2.14649 -0.709993,0.75953 -2.04742,0.75953 z m 0,-1.65115 q 0.941153,0 0.941153,-1.13929 v -6.30738 q 0,-1.13928 -0.941153,-1.13928 -0.941153,0 -0.941153,1.13928 v 6.30738 q 0,1.13929 0.941153,1.13929 z m 6.34039,1.65115 q -1.32092,0 -1.99789,-0.74303 -0.67697,-0.75952 -0.67697,-2.16299 v -0.66045 h 1.7172 v 0.79254 q 0,1.12278 0.94115,1.12278 0.46232,0 0.69348,-0.26418 0.24767,-0.2807 0.24767,-0.89162 0,-0.7265 -0.33023,-1.27138 -0.33023,-0.56139 -1.22185,-1.33743 -1.12277,-0.99069 -1.56858,-1.78324 -0.44581,-0.80905 -0.44581,-1.81626 0,-1.37044 0.69348,-2.11346 0.69348,-0.75952 2.01439,-0.75952 1.30441,0 1.96487,0.75952 0.67697,0.74302 0.67697,2.14649 v 0.47882 h -1.71719 v -0.59441 q 0,-0.5944 -0.23116,-0.85859 -0.23116,-0.28069 -0.67697,-0.28069 -0.90813,0 -0.90813,1.10626 0,0.62743 0.33023,1.17232 0.34674,0.54488 1.23835,1.32091 1.13929,0.99069 1.56859,1.79975 0.4293,0.80907 0.4293,1.89882 0,1.41998 -0.70999,2.17951 -0.69348,0.75953 -2.03091,0.75953 z"
         id="text1"
         style="font-size:48px;font-family:'Bebas Neue';-inkscape-font-specification:'Bebas Neue, Normal';font-variant-position:sub;text-align:center;text-anchor:middle;white-space:pre;opacity:0.807829;fill:#0038a8;stroke-width:2.32851;stroke-miterlimit:3.4"
         aria-label="Toma un puñado de ladrillos" /><rect
         style="opacity:0.807829;fill:#F5F5F5;fill-opacity:1;stroke:none;stroke-width:1.791;stroke-miterlimit:3.4;stroke-opacity:1"
         id="rect143"
         width="99.116333"
         height="87.25029"
         x="228.16635"
         y="165.65833" /><rect
         style="opacity:0.807829;fill:#F5F5F5;fill-opacity:1;stroke:none;stroke-width:1.791;stroke-miterlimit:3.4;stroke-opacity:1"
         id="rect142"
         width="92.136307"
         height="149.3725"
         x="99.035904"
         y="12.795823" /><rect
         style="opacity:0.807829;fill:#F5F5F5;fill-opacity:1;stroke:none;stroke-width:1.791;stroke-miterlimit:3.4;stroke-opacity:1"
         id="rect144"
         width="76.08226"
         height="80.968269"
         x="-22.416504"
         y="183.1084" /><path
         style="opacity:1;fill:none;fill-opacity:1;stroke-width:1.22572;stroke-miterlimit:3.4;stroke-dasharray:none"
         id="path5"
         d="m -24.297151,44.254967 a 8.0817719,9.8468122 0 0 1 7.555136,-10.447875 8.0817719,9.8468122 0 0 1 8.5761211,9.20374 8.0817719,9.8468122 0 0 1 -7.5528041,10.450377 8.0817719,9.8468122 0 0 1 -8.578175,-9.200898 l 8.06542,-0.626076 z" /><path
         style="opacity:1;fill:none;fill-opacity:1;stroke-width:1.22572;stroke-miterlimit:3.4;stroke-dasharray:none"
         id="path6"
         d="M -23.317034,103.80724 A 22.819118,21.134621 0 0 1 -1.9848875,81.382533 22.819118,21.134621 0 0 1 22.23004,101.1369 22.819118,21.134621 0 0 1 0.90447763,123.56698 22.819118,21.134621 0 0 1 -23.316248,103.81871 l 22.77294701,-1.34377 z" /><path
         style="fill:none;fill-opacity:1;stroke:#000000;stroke-width:2.3635;stroke-miterlimit:3.4;stroke-opacity:1;marker-start:url(#DartArrow)"
         d="m 77.147411,131.79211 c -37.938505,5.83204 -39.897133,36.40516 -40.523602,38.37638"
         id="path22" /><path
         style="fill:none;fill-opacity:1;stroke:#000000;stroke-width:2.3635;stroke-miterlimit:3.4;stroke-opacity:1;marker-start:url(#DartArrow-1)"
         d="M 266.38773,125.0144 C 256.92333,87.416906 218.56627,84.156688 216.56276,83.713412"
         id="path22-3" /><path
         style="fill:none;fill-opacity:1;stroke:#000000;stroke-width:2.3635;stroke-miterlimit:3.4;stroke-opacity:1;marker-start:url(#DartArrow-1-1)"
         d="m 241.76214,362.26028 c 33.31487,-19.83091 25.45867,-57.51609 25.30988,-59.56265"
         id="path22-3-7" /><path
         style="fill:none;fill-opacity:1;stroke:#000000;stroke-width:2.3635;stroke-miterlimit:3.4;stroke-opacity:1;marker-start:url(#DartArrow-1-1-2)"
         d="m 5.3456556,281.72874 c -6.20739667,10.12319 -6.5862174,26.27811 -3.1465757,31.08244"
         id="path22-3-7-3" /><path
         d="m 252.88204,282.63087 h 2.14748 l 1.39297,9.23594 h 0.0387 l 1.39297,-9.23594 h 1.95401 l -2.05075,11.90637 h -2.82462 z m 10.98892,12.07646 q -1.56709,0 -2.39899,-0.78242 -0.83191,-0.78242 -0.83191,-2.21118 v -6.25935 q 0,-1.42877 0.83191,-2.21119 0.8319,-0.78241 2.39899,-0.78241 1.56708,0 2.39899,0.78241 0.83191,0.78242 0.83191,2.21119 v 6.25935 q 0,1.42876 -0.83191,2.21118 -0.83191,0.78242 -2.39899,0.78242 z m 0,-1.70091 q 1.10276,0 1.10276,-1.17363 v -6.49748 q 0,-1.17362 -1.10276,-1.17362 -1.10276,0 -1.10276,1.17362 v 6.49748 q 0,1.17363 1.10276,1.17363 z m 4.66255,-10.37555 h 2.12814 v 11.90637 h -2.12814 z m 3.71456,0 h 2.12814 v 10.20546 h 3.50175 v 1.70091 h -5.62989 z m 8.37712,0 h 2.88266 l 2.20553,11.90637 h -2.12814 l -0.38694,-2.36427 v 0.034 h -2.41834 l -0.38693,2.33025 h -1.97337 z m 2.32161,7.96026 -0.94799,-5.88515 h -0.0387 l -0.92864,5.88515 z m -3.38568,-10.71574 h 2.32161 l 1.35427,1.95605 h -1.60578 z"
         id="text140-4-7"
         style="font-size:12.7px;font-family:'Bebas Neue';-inkscape-font-specification:'Bebas Neue, Normal';font-variant-position:sub;white-space:pre;inline-size:154.041;opacity:0.80605;fill:#0038a8;stroke-width:2.55821;stroke-miterlimit:3.4"
         aria-label="Voilà" /><g
         id="text140-4-4"
         style="font-size:12.7px;font-family:'Bebas Neue';-inkscape-font-specification:'Bebas Neue, Normal';font-variant-position:sub;white-space:pre;inline-size:154.041;opacity:1;fill:#0038a8;stroke-width:1.791;stroke-miterlimit:3.4"
         transform="matrix(0.86372778,0,0,0.97958217,493.18978,-11.324756)"
         aria-label="gepaart mit einer ordentlichen Stärkung - Asado"><path
           d="m 1256.4002,293.32383 h 7.152 l 5.472,33.6 h -5.28 l -0.96,-6.672 v 0.096 h -6 l -0.96,6.576 h -4.896 z m 5.76,22.464 -2.352,-16.608 h -0.096 l -2.304,16.608 z m 16.7519,11.616 q -3.792,0 -5.808,-2.16 -1.968,-2.16 -1.968,-6.096 v -18.048 q 0,-3.936 1.968,-6.096 2.016,-2.16 5.808,-2.16 3.792,0 5.76,2.16 2.016,2.16 2.016,6.096 v 3.552 h -4.992 v -3.888 q 0,-3.12 -2.64,-3.12 -2.64,0 -2.64,3.12 v 18.768 q 0,3.072 2.64,3.072 2.64,0 2.64,-3.072 v -5.136 h 4.992 v 4.752 q 0,3.936 -2.016,6.096 -1.968,2.16 -5.76,2.16 z m 18.672,0 q -3.888,0 -5.952,-2.208 -2.064,-2.208 -2.064,-6.24 v -17.664 q 0,-4.032 2.064,-6.24 2.064,-2.208 5.952,-2.208 3.888,0 5.952,2.208 2.064,2.208 2.064,6.24 v 17.664 q 0,4.032 -2.064,6.24 -2.064,2.208 -5.952,2.208 z m 0,-4.8 q 2.736,0 2.736,-3.312 v -18.336 q 0,-3.312 -2.736,-3.312 -2.736,0 -2.736,3.312 v 18.336 q 0,3.312 2.736,3.312 z m 11.568,-29.28 h 7.536 l 3.36,24.048 h 0.096 l 3.36,-24.048 h 7.536 v 33.6 h -4.992 v -25.44 h -0.096 l -3.84,25.44 h -4.416 l -3.84,-25.44 h -0.096 v 25.44 h -4.608 z m 25.824,0 h 7.776 q 3.936,0 5.904,2.112 1.968,2.112 1.968,6.192 v 3.312 q 0,4.08 -1.968,6.192 -1.968,2.112 -5.904,2.112 h -2.496 v 13.68 h -5.28 z m 7.776,15.12 q 1.296,0 1.92,-0.72 0.672,-0.72 0.672,-2.448 v -3.984 q 0,-1.728 -0.672,-2.448 -0.624,-0.72 -1.92,-0.72 h -2.496 v 10.32 z m 13.152,-15.12 h 7.152 l 5.472,33.6 h -5.28 l -0.96,-6.672 v 0.096 h -6 l -0.96,6.576 h -4.896 z m 5.76,22.464 -2.352,-16.608 h -0.096 l -2.304,16.608 z m 9.4079,-22.464 h 6.624 l 5.136,20.112 h 0.096 v -20.112 h 4.704 v 33.6 h -5.424 l -6.336,-24.528 h -0.096 v 24.528 h -4.704 z m 1.632,-3.6 q 0.912,-2.064 1.968,-3.024 1.056,-1.008 2.4,-1.008 0.864,0 1.488,0.24 0.672,0.24 1.392,0.672 0.432,0.24 0.816,0.432 0.432,0.192 0.816,0.192 0.576,0 1.008,-0.432 0.432,-0.432 0.912,-1.44 l 2.544,1.536 q -0.912,2.064 -1.968,3.072 -1.056,0.96 -2.4,0.96 -0.864,0 -1.536,-0.24 -0.624,-0.24 -1.344,-0.672 -0.432,-0.24 -0.864,-0.432 -0.384,-0.192 -0.768,-0.192 -0.576,0 -1.008,0.432 -0.432,0.432 -0.912,1.44 z m 22.944,3.6 h 7.152 l 5.472,33.6 h -5.28 l -0.96,-6.672 v 0.096 h -6 l -0.96,6.576 h -4.896 z m 5.76,22.464 -2.352,-16.608 h -0.096 l -2.304,16.608 z m 9.408,-22.464 h 8.064 q 3.936,0 5.904,2.112 1.968,2.112 1.968,6.192 v 16.992 q 0,4.08 -1.968,6.192 -1.968,2.112 -5.904,2.112 h -8.064 z m 7.968,28.8 q 1.296,0 1.968,-0.768 0.72,-0.768 0.72,-2.496 v -17.472 q 0,-1.728 -0.72,-2.496 -0.672,-0.768 -1.968,-0.768 h -2.688 v 24 z m 19.152,5.28 q -3.888,0 -5.952,-2.208 -2.064,-2.208 -2.064,-6.24 v -17.664 q 0,-4.032 2.064,-6.24 2.064,-2.208 5.952,-2.208 3.888,0 5.952,2.208 2.064,2.208 2.064,6.24 v 17.664 q 0,4.032 -2.064,6.24 -2.064,2.208 -5.952,2.208 z m 0,-4.8 q 2.736,0 2.736,-3.312 v -18.336 q 0,-3.312 -2.736,-3.312 -2.736,0 -2.736,3.312 v 18.336 q 0,3.312 2.736,3.312 z m 19.248,-29.28 h 8.064 q 3.936,0 5.904,2.112 1.968,2.112 1.968,6.192 v 16.992 q 0,4.08 -1.968,6.192 -1.968,2.112 -5.904,2.112 h -8.064 z m 7.968,28.8 q 1.296,0 1.968,-0.768 0.72,-0.768 0.72,-2.496 v -17.472 q 0,-1.728 -0.72,-2.496 -0.672,-0.768 -1.968,-0.768 h -2.688 v 24 z m 11.52,-28.8 h 14.4 v 4.8 h -9.12 v 8.88 h 7.248 v 4.8 h -7.248 v 10.32 h 9.12 v 4.8 h -14.4 z m 32.784,34.08 q -3.84,0 -5.856,-2.16 -2.016,-2.208 -2.016,-6.288 v -25.632 h 5.28 v 26.016 q 0,1.728 0.672,2.496 0.72,0.768 2.016,0.768 1.296,0 1.968,-0.768 0.72,-0.768 0.72,-2.496 v -26.016 h 5.088 v 25.632 q 0,4.08 -2.016,6.288 -2.016,2.16 -5.856,2.16 z m 11.616,-34.08 h 6.624 l 5.136,20.112 h 0.096 v -20.112 h 4.704 v 33.6 h -5.424 l -6.336,-24.528 h -0.096 v 24.528 h -4.704 z m 28.176,0 h 7.968 q 4.08,0 5.952,1.92 1.872,1.872 1.872,5.808 v 1.344 q 0,2.592 -0.864,4.224 -0.816,1.632 -2.544,2.352 v 0.096 q 3.936,1.344 3.936,7.008 v 2.88 q 0,3.888 -2.064,5.952 -2.016,2.016 -5.952,2.016 h -8.304 z m 7.344,13.68 q 1.584,0 2.352,-0.816 0.816,-0.816 0.816,-2.736 v -1.872 q 0,-1.824 -0.672,-2.64 -0.624,-0.816 -2.016,-0.816 h -2.544 v 8.88 z m 0.96,15.12 q 1.392,0 2.064,-0.72 0.672,-0.768 0.672,-2.592 v -2.928 q 0,-2.304 -0.816,-3.168 -0.768,-0.912 -2.592,-0.912 h -2.352 v 10.32 z m 18.768,5.28 q -3.84,0 -5.856,-2.16 -2.016,-2.208 -2.016,-6.288 v -25.632 h 5.28 v 26.016 q 0,1.728 0.672,2.496 0.72,0.768 2.016,0.768 1.296,0 1.968,-0.768 0.72,-0.768 0.72,-2.496 v -26.016 h 5.088 v 25.632 q 0,4.08 -2.016,6.288 -2.016,2.16 -5.856,2.16 z m 11.616,-34.08 h 14.4 v 4.8 h -9.12 v 8.88 h 7.248 v 4.8 h -7.248 v 10.32 h 9.12 v 4.8 h -14.4 z m 17.4241,0 h 6.624 l 5.136,20.112 h 0.096 v -20.112 h 4.704 v 33.6 h -5.424 l -6.336,-24.528 h -0.096 v 24.528 h -4.704 z m -219.8159,60 h 7.152 l 5.472,33.6 h -5.28 l -0.96,-6.672 v 0.096 h -6 l -0.96,6.576 h -4.896 z m 5.76,22.464 -2.352,-16.608 h -0.096 l -2.304,16.608 z m 16.1279,11.616 q -3.84,0 -5.808,-2.16 -1.968,-2.208 -1.968,-6.288 v -1.92 h 4.992 v 2.304 q 0,3.264 2.736,3.264 1.344,0 2.016,-0.768 0.72,-0.816 0.72,-2.592 0,-2.112 -0.96,-3.696 -0.96,-1.632 -3.552,-3.888 -3.264,-2.88 -4.56,-5.184 -1.296,-2.352 -1.296,-5.28 0,-3.984 2.016,-6.144 2.016,-2.208 5.856,-2.208 3.792,0 5.712,2.208 1.968,2.16 1.968,6.24 v 1.392 h -4.992 v -1.728 q 0,-1.728 -0.672,-2.496 -0.672,-0.816 -1.968,-0.816 -2.64,0 -2.64,3.216 0,1.824 0.96,3.408 1.008,1.584 3.6,3.84 3.312,2.88 4.56,5.232 1.248,2.352 1.248,5.52 0,4.128 -2.064,6.336 -2.016,2.208 -5.904,2.208 z m 14.928,-34.08 h 7.152 l 5.472,33.6 h -5.28 l -0.96,-6.672 v 0.096 h -6 l -0.96,6.576 h -4.896 z m 5.76,22.464 -2.352,-16.608 h -0.096 l -2.304,16.608 z m 9.408,-22.464 h 8.064 q 3.936,0 5.904,2.112 1.968,2.112 1.968,6.192 v 16.992 q 0,4.08 -1.968,6.192 -1.968,2.112 -5.904,2.112 h -8.064 z m 7.968,28.8 q 1.296,0 1.968,-0.768 0.72,-0.768 0.72,-2.496 v -17.472 q 0,-1.728 -0.72,-2.496 -0.672,-0.768 -1.968,-0.768 h -2.688 v 24 z m 19.152,5.28 q -3.888,0 -5.952,-2.208 -2.064,-2.208 -2.064,-6.24 v -17.664 q 0,-4.032 2.064,-6.24 2.064,-2.208 5.952,-2.208 3.888,0 5.952,2.208 2.064,2.208 2.064,6.24 v 17.664 q 0,4.032 -2.064,6.24 -2.064,2.208 -5.952,2.208 z m 0,-4.8 q 2.736,0 2.736,-3.312 v -18.336 q 0,-3.312 -2.736,-3.312 -2.736,0 -2.736,3.312 v 18.336 q 0,3.312 2.736,3.312 z m 11.5679,-29.28 h 6.624 l 5.136,20.112 h 0.096 v -20.112 h 4.704 v 33.6 h -5.424 l -6.336,-24.528 h -0.096 v 24.528 h -4.704 z"
           id="text3"
           style="font-size:48px;text-align:center;text-anchor:middle;opacity:0.807829;stroke-width:6.76913"
           transform="matrix(0.3940342,0,0,0.3474321,-761.69558,-1.1991561)"
           aria-label="Acompañado de un buen asadon" /></g><path
         d="m -75.485071,113.22974 h 1.786352 v 10.28083 h 2.939361 v 1.71347 h -4.725713 z m 7.031724,0 h 2.419695 l 1.851311,11.9943 h -1.786352 l -0.324792,-2.38173 v 0.0343 h -2.029945 l -0.324791,2.34746 h -1.656436 z m 1.948748,8.01905 -0.795739,-5.92861 h -0.03248 l -0.779499,5.92861 z m 5.781268,-8.01905 h 1.786352 v 11.9943 h -1.786352 z m 3.117986,0 h 2.728246 q 1.331645,0 1.997467,0.75393 0.665822,0.75393 0.665822,2.21038 v 6.06568 q 0,1.45645 -0.665822,2.21038 -0.665822,0.75393 -1.997467,0.75393 h -2.728246 z m 2.695767,10.28083 q 0.438469,0 0.665822,-0.27416 0.243594,-0.27415 0.243594,-0.891 v -6.23704 q 0,-0.61684 -0.243594,-0.891 -0.227353,-0.27416 -0.665822,-0.27416 h -0.909415 v 8.56736 z m 3.897499,-10.28083 h 4.871869 v 1.71347 h -3.085517 v 3.16992 h 2.452174 v 1.71347 h -2.452174 v 3.68397 h 3.085517 v 1.71347 h -4.871869 z m 7.275338,0 h 2.419695 l 1.85131,11.9943 h -1.786352 l -0.324791,-2.38173 v 0.0343 h -2.029946 l -0.324791,2.34746 h -1.656435 z m 1.948748,8.01905 -0.795739,-5.92861 h -0.03248 l -0.779499,5.92861 z m 7.16163,-8.01905 h 2.419695 l 1.85131,11.9943 h -1.786352 l -0.324791,-2.38173 v 0.0343 h -2.029945 l -0.324792,2.34746 h -1.656435 z m 1.948748,8.01905 -0.795739,-5.92861 h -0.03248 l -0.779499,5.92861 z m 3.182937,-8.01905 h 2.728247 q 1.331644,0 1.997466,0.75393 0.665822,0.75393 0.665822,2.21038 v 6.06568 q 0,1.45645 -0.665822,2.21038 -0.665822,0.75393 -1.997466,0.75393 h -2.728247 z m 2.695768,10.28083 q 0.438468,0 0.665822,-0.27416 0.243593,-0.27415 0.243593,-0.891 v -6.23704 q 0,-0.61684 -0.243593,-0.891 -0.227354,-0.27416 -0.665822,-0.27416 h -0.909416 v 8.56736 z m 3.897499,-10.28083 h 4.871869 v 1.71347 h -3.085518 v 3.16992 h 2.452175 v 1.71347 h -2.452175 v 3.68397 h 3.085518 v 1.71347 h -4.871869 z m 8.412107,12.16564 q -1.282926,0 -1.964987,-0.77106 -0.665822,-0.77106 -0.665822,-2.17611 v -6.44264 q 0,-1.40505 0.665822,-2.17611 0.682061,-0.77106 1.964987,-0.77106 1.282925,0 1.948748,0.77106 0.682062,0.77106 0.682062,2.17611 v 1.26796 h -1.688915 v -1.38791 q 0,-1.11375 -0.893176,-1.11375 -0.893176,0 -0.893176,1.11375 v 6.69967 q 0,1.09662 0.893176,1.09662 0.893176,0 0.893176,-1.09662 v -1.83341 h 1.688915 v 1.69633 q 0,1.40505 -0.682062,2.17611 -0.665823,0.77106 -1.948748,0.77106 z m 6.3009419,0 q -1.299165,0 -1.9812269,-0.77106 -0.682062,-0.78819 -0.682062,-2.24464 v -9.14994 h 1.7863525 v 9.28701 q 0,0.61685 0.2273539,0.89101 0.2435935,0.27415 0.6820617,0.27415 0.4384682,0 0.6658221,-0.27415 0.2435934,-0.27416 0.2435934,-0.89101 v -9.28701 h 1.7213938 v 9.14994 q 0,1.45645 -0.6820617,2.24464 -0.6820617,0.77106 -1.9812268,0.77106 z m 5.2778515,-12.16564 h 2.41969499 l 1.85131011,11.9943 h -1.78635191 l -0.32479117,-2.38173 v 0.0343 H -2.7805941 l -0.3247913,2.34746 h -1.6564355 z m 1.94874762,8.01905 -0.79573852,-5.92861 h -0.032479 l -0.7794991,5.92861 z m 3.18294088,-8.01905 h 2.7282466 q 1.3316442,0 1.9974663,0.75393 0.6658217,0.75393 0.6658217,2.21038 v 6.06568 q 0,1.45645 -0.6658217,2.21038 -0.6658221,0.75393 -1.9974663,0.75393 H 2.2211779 Z m 2.6957675,10.28083 q 0.4384682,0 0.6658221,-0.27416 0.2435935,-0.27415 0.2435935,-0.891 v -6.23704 q 0,-0.61684 -0.2435935,-0.891 -0.2273539,-0.27416 -0.6658221,-0.27416 H 4.0075298 v 8.56736 z m 5.2453676,-10.28083 h 2.419695 l 1.85131,11.9943 h -1.786352 l -0.324791,-2.38173 v 0.0343 h -2.029946 l -0.3247907,2.34746 H 8.3110042 Z m 1.948747,8.01905 -0.795738,-5.92861 h -0.03248 l -0.779499,5.92861 z m 7.421461,-1.1309 -2.159862,-6.88815 h 1.900029 l 1.217967,4.40362 h 0.03248 l 1.217967,-4.40362 h 1.737634 l -2.159862,6.88815 v 5.10615 h -1.786352 z m 9.954835,5.27749 q -1.299165,0 -1.981227,-0.77106 -0.682061,-0.78819 -0.682061,-2.24464 v -9.14994 h 1.786352 v 9.28701 q 0,0.61685 0.227354,0.89101 0.243593,0.27415 0.682061,0.27415 0.438468,0 0.665822,-0.27415 0.243594,-0.27416 0.243594,-0.89101 v -9.28701 h 1.721394 v 9.14994 q 0,1.45645 -0.682062,2.24464 -0.682062,0.77106 -1.981227,0.77106 z m 3.929981,-12.16564 h 2.24106 l 1.737633,7.17944 h 0.03248 v -7.17944 h 1.591478 v 11.9943 h -1.835071 l -2.143622,-8.75584 h -0.03248 v 8.75584 h -1.591478 z m -100.985641,23.13185 h -1.86755 v -1.71347 h 5.521452 v 1.71347 h -1.86755 v 10.28082 h -1.786352 z m 4.514606,-1.71347 h 2.647048 q 1.380363,0 2.013706,0.68539 0.633343,0.66825 0.633343,2.0733 v 0.73679 q 0,1.86768 -1.169248,2.36459 v 0.0343 q 0.649582,0.20562 0.909415,0.8396 0.276073,0.63398 0.276073,1.69634 v 2.10756 q 0,0.51405 0.03248,0.8396 0.03248,0.30843 0.162396,0.61685 h -1.818832 q -0.09744,-0.29129 -0.129916,-0.54831 -0.03248,-0.25702 -0.03248,-0.92527 v -2.19324 q 0,-0.82247 -0.259833,-1.14803 -0.243594,-0.32556 -0.860697,-0.32556 h -0.617103 v 5.14041 h -1.786352 z m 2.435934,5.14041 q 0.535906,0 0.795739,-0.29129 0.276072,-0.29129 0.276072,-0.97668 v -0.92527 q 0,-0.65112 -0.227354,-0.94241 -0.211114,-0.29129 -0.682061,-0.29129 h -0.811978 v 3.42694 z m 5.488969,-5.14041 h 2.419695 l 1.85131,11.99429 h -1.786352 l -0.324791,-2.38172 v 0.0343 h -2.029945 l -0.324792,2.34745 h -1.656435 z m 1.948748,8.01904 -0.795739,-5.9286 h -0.03248 l -0.779499,5.9286 z m 3.182941,-8.01904 h 2.695767 q 1.380363,0 2.013706,0.68539 0.633343,0.66825 0.633343,2.0733 v 0.47977 q 0,0.92527 -0.292312,1.50785 -0.276073,0.58258 -0.860697,0.83961 v 0.0343 q 1.331644,0.47978 1.331644,2.50167 v 1.02808 q 0,1.38791 -0.698301,2.12471 -0.682062,0.71965 -2.013706,0.71965 h -2.809444 z m 2.484653,4.88339 q 0.535906,0 0.795739,-0.29129 0.276072,-0.29129 0.276072,-0.97668 v -0.66825 q 0,-0.65112 -0.227354,-0.94241 -0.211114,-0.29129 -0.682061,-0.29129 h -0.860697 v 3.16992 z m 0.324791,5.39743 q 0.470948,0 0.698301,-0.25702 0.227354,-0.27415 0.227354,-0.92527 v -1.04522 q 0,-0.82246 -0.276072,-1.13089 -0.259833,-0.32556 -0.876937,-0.32556 h -0.795738 v 3.68396 z m 5.131689,-10.28082 h 2.419695 l 1.85131,11.99429 h -1.786352 l -0.324791,-2.38172 v 0.0343 h -2.029946 l -0.324791,2.34745 h -1.656436 z m 1.948747,8.01904 -0.795738,-5.9286 h -0.03248 l -0.779499,5.9286 z m 3.60517,4.04379 q -0.487187,0 -0.828218,-0.0685 v -1.71347 q 0.259833,0.0685 0.584624,0.0685 0.535906,0 0.795739,-0.27415 0.259833,-0.29129 0.259833,-0.87387 v -9.20134 h 1.786352 v 9.14993 q 0,1.47359 -0.649582,2.19325 -0.633343,0.71965 -1.948748,0.71965 z m 6.463336,0.10281 q -1.315405,0 -2.013706,-0.7882 -0.698301,-0.78819 -0.698301,-2.22751 v -6.30557 q 0,-1.43931 0.698301,-2.22751 0.698301,-0.78819 2.013706,-0.78819 1.315405,0 2.013706,0.78819 0.698301,0.7882 0.698301,2.22751 v 6.30557 q 0,1.43932 -0.698301,2.22751 -0.698301,0.7882 -2.013706,0.7882 z m 0,-1.71347 q 0.925655,0 0.925655,-1.18229 v -6.54546 q 0,-1.18229 -0.925655,-1.18229 -0.925655,0 -0.925655,1.18229 v 6.54546 q 0,1.18229 0.925655,1.18229 z m 6.512055,-10.45217 h 2.695767 q 1.380363,0 2.013706,0.68539 0.633343,0.66825 0.633343,2.0733 v 0.47977 q 0,0.92527 -0.292312,1.50785 -0.276072,0.58258 -0.860697,0.83961 v 0.0343 q 1.331644,0.47978 1.331644,2.50167 v 1.02808 q 0,1.38791 -0.698301,2.12471 -0.682061,0.71965 -2.013706,0.71965 h -2.809444 z m 2.484653,4.88339 q 0.535906,0 0.795739,-0.29129 0.276072,-0.29129 0.276072,-0.97668 v -0.66825 q 0,-0.65112 -0.227354,-0.94241 -0.211114,-0.29129 -0.682061,-0.29129 h -0.860697 v 3.16992 z m 0.324791,5.39743 q 0.470948,0 0.698302,-0.25702 0.227353,-0.27415 0.227353,-0.92527 v -1.04522 q 0,-0.82246 -0.276072,-1.13089 -0.259833,-0.32556 -0.876937,-0.32556 h -0.795738 v 3.68396 z m 3.751329,-10.28082 h 1.786352 v 11.99429 h -1.786352 z m 3.11799,0 h 4.8718704 v 1.71347 H -12.06155 v 3.16992 h 2.4521754 v 1.71347 H -12.06155 v 3.68396 h 3.0855184 v 1.71347 h -4.8718704 z m 5.8949764,0 h 2.2410598 l 1.7376333,7.17944 h 0.032479 v -7.17944 h 1.5914773 v 11.99429 h -1.8350707 l -2.1436224,-8.75583 h -0.032479 v 8.75583 h -1.5914772 z m 9.5326204,0 h 1.786352 v 4.88339 h 1.9162685 v -4.88339 h 1.786352 v 11.99429 h -1.786352 v -5.39743 H 3.3660468 v 5.39743 h -1.786352 z m 6.8206194,0 h 4.8718678 v 1.71347 h -3.085517 v 3.16992 h 2.452174 v 1.71347 h -2.452174 v 3.68396 h 3.085517 v 1.71347 H 8.4003142 Z m 8.4121068,12.16564 q -1.282926,0 -1.964987,-0.77106 -0.665822,-0.77106 -0.665822,-2.17611 v -6.44265 q 0,-1.40504 0.665822,-2.1761 0.682061,-0.77106 1.964987,-0.77106 1.282925,0 1.948747,0.77106 0.682062,0.77106 0.682062,2.1761 v 1.26797 H 17.754315 V 137.304 q 0,-1.11375 -0.893176,-1.11375 -0.893176,0 -0.893176,1.11375 v 6.69967 q 0,1.09662 0.893176,1.09662 0.893176,0 0.893176,-1.09662 v -1.83341 h 1.688915 v 1.69633 q 0,1.40505 -0.682062,2.17611 -0.665822,0.77106 -1.948747,0.77106 z m 3.70261,-12.16564 h 1.786352 v 4.88339 h 1.916269 v -4.88339 h 1.786352 v 11.99429 h -1.786352 v -5.39743 h -1.916269 v 5.39743 h -1.786352 z m 9.402707,12.16564 q -1.315404,0 -2.013705,-0.7882 -0.698302,-0.78819 -0.698302,-2.22751 v -6.30557 q 0,-1.43931 0.698302,-2.22751 0.698301,-0.78819 2.013705,-0.78819 1.315405,0 2.013706,0.78819 0.698302,0.7882 0.698302,2.22751 v 6.30557 q 0,1.43932 -0.698302,2.22751 -0.698301,0.7882 -2.013706,0.7882 z m 0,-1.71347 q 0.925656,0 0.925656,-1.18229 v -6.54546 q 0,-1.18229 -0.925656,-1.18229 -0.925655,0 -0.925655,1.18229 v 6.54546 q 0,1.18229 0.925655,1.18229 z"
         id="text2"
         style="font-size:48px;font-family:'Bebas Neue';-inkscape-font-specification:'Bebas Neue, Normal';font-variant-position:sub;text-align:center;text-anchor:middle;white-space:pre;opacity:0.807829;fill:#0038a8;stroke-width:2.35243;stroke-miterlimit:3.4"
         aria-label="la idea adecuada y un trabajo bien hecho" /></g></g></svg>
